{"glyphs":{"0":{"ha":868,"x_min":49,"x_max":819,"o":"m 435 -3 q 281 27 351 -3 q 159 117 211 57 q 78 263 107 176 q 49 463 49 350 q 76 673 49 585 q 156 818 104 761 q 278 901 207 875 q 435 926 349 926 q 587 897 517 926 q 709 808 657 867 q 790 662 761 749 q 819 463 819 575 q 790 260 819 347 q 709 114 761 172 q 587 26 657 56 q 435 -3 517 -3 m 433 151 q 558 192 510 151 q 628 303 606 232 q 651 467 651 375 q 628 624 651 556 q 558 733 606 693 q 433 771 510 772 q 310 732 358 772 q 239 622 261 692 q 217 463 217 553 q 239 303 217 374 q 310 192 261 232 q 433 151 358 151 z "},"1":{"ha":465,"x_min":72,"x_max":326,"o":"m 72 917 l 326 917 l 326 0 l 164 0 l 164 761 l 72 761 l 72 917 z "},"2":{"ha":778,"x_min":53,"x_max":714,"o":"m 75 0 q 242 169 161 88 q 386 328 322 251 q 487 478 450 406 q 524 617 524 550 q 511 685 524 656 q 476 733 499 714 q 426 763 454 753 q 364 772 397 772 q 294 760 324 772 q 247 727 265 747 q 219 684 229 707 q 210 638 210 661 q 224 556 210 592 q 264 494 239 521 l 165 404 q 104 466 129 425 q 66 553 79 507 q 53 633 53 599 q 92 776 53 710 q 208 885 132 843 q 392 928 283 928 q 549 887 482 928 q 654 778 617 846 q 692 631 692 710 q 667 501 692 564 q 601 376 643 438 q 509 254 560 314 q 407 133 458 194 l 335 156 l 714 156 l 714 0 l 75 0 z "},"3":{"ha":729,"x_min":67,"x_max":643,"o":"m 618 917 l 388 521 l 296 567 q 332 579 313 575 q 369 583 351 583 q 469 572 421 585 q 557 526 518 558 q 619 440 596 494 q 643 306 643 386 q 598 136 643 207 q 478 27 553 65 q 317 -11 404 -11 q 180 17 250 -11 q 67 90 110 44 l 149 224 q 217 169 172 194 q 313 144 263 144 q 392 165 356 144 q 453 223 429 185 q 476 315 476 261 q 435 429 476 388 q 319 471 393 471 q 254 466 279 471 q 207 454 229 461 l 203 458 l 397 782 l 446 761 l 129 761 l 129 917 l 618 917 z "},"4":{"ha":753,"x_min":17,"x_max":701,"o":"m 17 214 l 17 214 l 585 928 l 588 928 l 588 336 l 701 336 l 701 213 l 588 213 l 588 0 l 425 0 l 425 214 l 17 214 m 433 568 l 250 329 l 231 336 l 425 336 l 425 588 l 433 568 z "},"5":{"ha":724,"x_min":76,"x_max":646,"o":"m 339 -11 q 190 17 261 -11 q 76 88 118 46 l 161 214 q 234 163 188 183 q 325 143 281 143 q 404 163 369 143 q 459 217 439 182 q 479 299 479 251 q 460 389 479 350 q 404 450 442 428 q 314 472 367 472 q 227 460 268 472 q 139 419 186 447 l 138 419 l 138 917 l 583 917 l 583 761 l 276 761 l 276 563 l 257 596 q 303 605 279 601 q 353 608 328 608 q 513 567 447 608 q 612 456 578 525 q 646 304 646 386 q 606 144 646 215 q 496 31 565 72 q 339 -11 426 -11 z "},"6":{"ha":765,"x_min":49,"x_max":715,"o":"m 388 -11 q 215 34 292 -11 q 94 165 139 79 q 49 369 49 250 q 82 536 49 457 q 174 687 115 615 q 306 819 232 758 q 460 931 379 881 l 568 814 q 381 694 456 764 q 269 553 307 625 q 226 418 231 481 l 186 424 q 283 549 224 504 q 442 594 343 594 q 574 556 511 594 q 676 453 636 518 q 715 300 715 388 q 668 134 715 204 q 547 26 621 64 q 388 -11 472 -11 m 381 133 q 465 153 428 133 q 525 211 503 174 q 547 300 547 249 q 525 384 547 349 q 465 439 503 419 q 381 458 426 458 q 297 440 335 458 q 237 389 260 421 q 214 319 214 357 l 214 292 q 236 214 214 250 q 297 156 258 178 q 381 133 335 133 z "},"7":{"ha":688,"x_min":49,"x_max":656,"o":"m 656 917 l 299 0 l 118 0 l 429 782 l 483 761 l 49 761 l 49 917 l 656 917 z "},"8":{"ha":732,"x_min":32,"x_max":700,"o":"m 32 292 q 58 415 32 364 q 125 499 85 465 q 203 553 165 533 q 142 618 167 581 q 117 717 117 656 q 149 826 117 778 q 239 901 182 874 q 365 928 296 928 q 492 901 436 928 q 583 828 549 874 q 617 724 617 782 q 591 619 617 657 q 528 553 565 582 q 606 498 567 532 q 673 413 646 464 q 700 292 700 363 q 656 143 700 213 q 535 31 611 74 q 364 -11 460 -11 q 193 31 268 -11 q 75 143 118 74 q 32 292 32 213 l 32 292 m 197 299 q 220 212 197 251 q 281 149 243 172 q 364 125 318 125 q 452 149 413 125 q 515 212 492 172 q 539 299 539 251 q 516 385 539 346 q 456 447 493 424 q 371 472 418 471 q 285 451 325 474 q 222 388 246 428 q 197 299 197 349 l 197 299 m 274 697 q 303 633 274 660 q 369 607 332 607 q 434 633 406 607 q 463 697 463 660 q 435 765 463 738 q 369 793 407 793 q 303 765 332 793 q 274 697 274 738 l 274 697 z "},"9":{"ha":751,"x_min":49,"x_max":715,"o":"m 321 294 q 190 332 253 294 q 88 436 128 369 q 49 588 49 503 q 95 765 49 692 q 217 878 142 839 q 375 918 292 918 q 549 876 472 918 q 670 758 625 833 q 715 588 715 683 q 675 388 715 478 q 568 225 635 297 q 421 92 501 153 q 260 -21 340 32 l 151 97 q 350 215 265 151 q 483 343 435 278 q 536 468 531 408 l 579 465 q 481 339 539 383 q 321 294 424 294 m 382 431 q 501 474 454 431 q 549 582 549 518 l 549 610 q 526 691 549 654 q 467 751 504 728 q 382 774 429 774 q 298 752 336 774 q 238 692 260 731 q 215 600 215 653 q 238 509 215 547 q 299 451 261 471 q 382 431 336 431 z "},"A":{"ha":971,"x_min":33,"x_max":938,"o":"m 33 0 l 481 1053 l 490 1053 l 938 0 l 751 0 l 438 800 l 553 878 l 192 0 l 33 0 m 314 376 l 660 376 l 715 238 l 265 238 l 314 376 z "},"Á":{"ha":971,"x_min":33,"x_max":938,"o":"m 33 0 l 481 1053 l 490 1053 l 938 0 l 751 0 l 438 800 l 553 878 l 192 0 l 33 0 m 314 376 l 660 376 l 715 238 l 265 238 l 314 376 m 718 1283 l 529 1097 l 433 1097 l 546 1283 l 718 1283 z "},"Ă":{"ha":971,"x_min":33,"x_max":938,"o":"m 33 0 l 481 1053 l 490 1053 l 938 0 l 751 0 l 438 800 l 553 878 l 192 0 l 33 0 m 314 376 l 660 376 l 715 238 l 265 238 l 314 376 m 486 1101 q 380 1130 425 1101 q 307 1214 335 1158 q 267 1351 279 1269 l 371 1351 q 392 1276 378 1310 q 429 1224 406 1243 q 486 1206 453 1206 q 544 1224 522 1206 q 579 1276 567 1243 q 599 1351 592 1310 l 704 1351 q 664 1212 692 1268 q 592 1128 636 1156 q 486 1101 547 1101 z "},"Ắ":{"ha":971,"x_min":33,"x_max":938,"o":"m 33 0 l 481 1053 l 490 1053 l 938 0 l 751 0 l 438 800 l 553 878 l 192 0 l 33 0 m 314 376 l 660 376 l 715 238 l 265 238 l 314 376 m 486 1101 q 380 1130 425 1101 q 307 1214 335 1158 q 267 1351 279 1269 l 371 1351 q 392 1276 378 1310 q 429 1224 406 1243 q 486 1206 453 1206 q 544 1224 522 1206 q 579 1276 567 1243 q 599 1351 592 1310 l 704 1351 q 664 1212 692 1268 q 592 1128 636 1156 q 486 1101 547 1101 m 717 1589 l 528 1403 l 432 1403 l 544 1589 l 717 1589 z "},"Ặ":{"ha":971,"x_min":33,"x_max":938,"o":"m 33 0 l 481 1053 l 490 1053 l 938 0 l 751 0 l 438 800 l 553 878 l 192 0 l 33 0 m 314 376 l 660 376 l 715 238 l 265 238 l 314 376 m 393 -150 q 422 -90 393 -114 q 483 -67 450 -67 q 543 -90 517 -67 q 569 -150 569 -114 q 543 -209 569 -186 q 483 -232 517 -232 q 422 -208 450 -232 q 393 -150 393 -185 m 486 1101 q 380 1130 425 1101 q 307 1214 335 1158 q 267 1351 279 1269 l 371 1351 q 392 1276 378 1310 q 429 1224 406 1243 q 486 1206 453 1206 q 544 1224 522 1206 q 579 1276 567 1243 q 599 1351 592 1310 l 704 1351 q 664 1212 692 1268 q 592 1128 636 1156 q 486 1101 547 1101 z "},"Ằ":{"ha":971,"x_min":33,"x_max":938,"o":"m 33 0 l 481 1053 l 490 1053 l 938 0 l 751 0 l 438 800 l 553 878 l 192 0 l 33 0 m 314 376 l 660 376 l 715 238 l 265 238 l 314 376 m 486 1101 q 380 1130 425 1101 q 307 1214 335 1158 q 267 1351 279 1269 l 371 1351 q 392 1276 378 1310 q 429 1224 406 1243 q 486 1206 453 1206 q 544 1224 522 1206 q 579 1276 567 1243 q 599 1351 592 1310 l 704 1351 q 664 1212 692 1268 q 592 1128 636 1156 q 486 1101 547 1101 m 254 1596 l 426 1596 l 522 1410 l 425 1410 l 254 1596 z "},"Ẳ":{"ha":971,"x_min":33,"x_max":938,"o":"m 33 0 l 481 1053 l 490 1053 l 938 0 l 751 0 l 438 800 l 553 878 l 192 0 l 33 0 m 314 376 l 660 376 l 715 238 l 265 238 l 314 376 m 486 1101 q 380 1130 425 1101 q 307 1214 335 1158 q 267 1351 279 1269 l 371 1351 q 392 1276 378 1310 q 429 1224 406 1243 q 486 1206 453 1206 q 544 1224 522 1206 q 579 1276 567 1243 q 599 1351 592 1310 l 704 1351 q 664 1212 692 1268 q 592 1128 636 1156 q 486 1101 547 1101 m 472 1463 q 515 1499 499 1482 q 531 1542 531 1517 q 520 1576 531 1563 q 488 1590 510 1590 q 453 1578 468 1590 q 428 1549 438 1567 l 371 1585 q 431 1654 394 1632 q 508 1676 468 1676 q 572 1660 547 1676 q 608 1618 596 1644 q 619 1563 619 1592 q 586 1478 619 1513 q 508 1417 553 1444 l 472 1463 z "},"Ẵ":{"ha":971,"x_min":33,"x_max":938,"o":"m 33 0 l 481 1053 l 490 1053 l 938 0 l 751 0 l 438 800 l 553 878 l 192 0 l 33 0 m 314 376 l 660 376 l 715 238 l 265 238 l 314 376 m 486 1101 q 380 1130 425 1101 q 307 1214 335 1158 q 267 1351 279 1269 l 371 1351 q 392 1276 378 1310 q 429 1224 406 1243 q 486 1206 453 1206 q 544 1224 522 1206 q 579 1276 567 1243 q 599 1351 592 1310 l 704 1351 q 664 1212 692 1268 q 592 1128 636 1156 q 486 1101 547 1101 m 590 1453 q 515 1473 544 1453 q 460 1515 485 1493 q 428 1541 443 1529 q 393 1553 413 1553 q 363 1540 375 1553 q 346 1504 351 1526 q 342 1453 340 1482 l 261 1454 q 272 1553 256 1508 q 321 1626 288 1599 q 401 1653 354 1653 q 464 1633 438 1653 q 514 1594 490 1614 q 551 1563 533 1576 q 588 1549 568 1549 q 623 1578 614 1549 q 632 1653 632 1608 l 713 1651 q 705 1548 719 1593 q 660 1478 690 1503 q 590 1453 629 1453 z "},"Â":{"ha":971,"x_min":33,"x_max":938,"o":"m 33 0 l 481 1053 l 490 1053 l 938 0 l 751 0 l 438 800 l 553 878 l 192 0 l 33 0 m 314 376 l 660 376 l 715 238 l 265 238 l 314 376 m 578 1118 l 457 1240 l 499 1251 l 376 1118 l 233 1118 l 474 1363 l 475 1363 l 719 1118 l 578 1118 z "},"Ấ":{"ha":971,"x_min":33,"x_max":938,"o":"m 33 0 l 481 1053 l 490 1053 l 938 0 l 751 0 l 438 800 l 553 878 l 192 0 l 33 0 m 314 376 l 660 376 l 715 238 l 265 238 l 314 376 m 590 1139 l 469 1261 l 511 1272 l 389 1139 l 246 1139 l 486 1383 l 488 1383 l 732 1139 l 590 1139 m 893 1467 l 704 1281 l 608 1281 l 721 1467 l 893 1467 z "},"Ậ":{"ha":971,"x_min":33,"x_max":938,"o":"m 33 0 l 481 1053 l 490 1053 l 938 0 l 751 0 l 438 800 l 553 878 l 192 0 l 33 0 m 314 376 l 660 376 l 715 238 l 265 238 l 314 376 m 393 -150 q 422 -90 393 -114 q 483 -67 450 -67 q 543 -90 517 -67 q 569 -150 569 -114 q 543 -209 569 -186 q 483 -232 517 -232 q 422 -208 450 -232 q 393 -150 393 -185 m 578 1118 l 457 1240 l 499 1251 l 376 1118 l 233 1118 l 474 1363 l 475 1363 l 719 1118 l 578 1118 z "},"Ầ":{"ha":971,"x_min":33,"x_max":938,"o":"m 33 0 l 481 1053 l 490 1053 l 938 0 l 751 0 l 438 800 l 553 878 l 192 0 l 33 0 m 314 376 l 660 376 l 715 238 l 265 238 l 314 376 m 581 1138 l 460 1260 l 501 1271 l 379 1138 l 236 1138 l 476 1382 l 478 1382 l 722 1138 l 581 1138 m 33 1474 l 206 1474 l 301 1288 l 204 1288 l 33 1474 z "},"Ẩ":{"ha":971,"x_min":33,"x_max":938,"o":"m 33 0 l 481 1053 l 490 1053 l 938 0 l 751 0 l 438 800 l 553 878 l 192 0 l 33 0 m 314 376 l 660 376 l 715 238 l 265 238 l 314 376 m 585 1139 l 464 1261 l 506 1272 l 383 1139 l 240 1139 l 481 1383 l 482 1383 l 726 1139 l 585 1139 m 717 1288 q 759 1324 743 1307 q 775 1367 775 1342 q 765 1401 775 1388 q 732 1415 754 1415 q 697 1403 713 1415 q 672 1374 682 1392 l 615 1410 q 676 1479 639 1457 q 753 1501 713 1501 q 816 1485 792 1501 q 852 1443 840 1469 q 864 1388 864 1417 q 831 1303 864 1338 q 753 1242 797 1269 l 717 1288 z "},"Ẫ":{"ha":971,"x_min":33,"x_max":938,"o":"m 33 0 l 481 1053 l 490 1053 l 938 0 l 751 0 l 438 800 l 553 878 l 192 0 l 33 0 m 314 376 l 660 376 l 715 238 l 265 238 l 314 376 m 578 1133 l 457 1256 l 499 1267 l 376 1133 l 233 1133 l 474 1378 l 475 1378 l 719 1133 l 578 1133 m 586 1415 q 510 1435 540 1415 q 456 1476 481 1456 q 424 1503 439 1492 q 389 1514 408 1514 q 359 1501 371 1514 q 342 1465 347 1488 q 338 1415 336 1443 l 257 1415 q 267 1515 251 1469 q 317 1588 283 1561 q 397 1615 350 1615 q 460 1596 433 1615 q 510 1556 486 1576 q 547 1524 529 1538 q 583 1510 564 1510 q 619 1540 610 1510 q 628 1614 628 1571 l 708 1614 q 701 1510 715 1556 q 656 1440 686 1465 q 586 1415 625 1415 z "},"Ȁ":{"ha":971,"x_min":33,"x_max":938,"o":"m 33 0 l 481 1053 l 490 1053 l 938 0 l 751 0 l 438 800 l 553 878 l 192 0 l 33 0 m 314 376 l 660 376 l 715 238 l 265 238 l 314 376 m 186 1300 l 358 1300 l 454 1114 l 357 1114 l 186 1300 m 400 1300 l 572 1300 l 668 1114 l 571 1114 l 400 1300 z "},"Ä":{"ha":971,"x_min":33,"x_max":938,"o":"m 33 0 l 481 1053 l 490 1053 l 938 0 l 751 0 l 438 800 l 553 878 l 192 0 l 33 0 m 314 376 l 660 376 l 715 238 l 265 238 l 314 376 m 261 1186 q 288 1247 261 1222 q 344 1271 314 1271 q 401 1247 375 1271 q 428 1186 428 1222 q 401 1125 428 1149 q 344 1101 375 1101 q 288 1125 314 1101 q 261 1186 261 1149 l 261 1186 m 528 1186 q 554 1247 528 1222 q 613 1271 581 1271 q 668 1247 642 1271 q 694 1186 694 1222 q 668 1125 694 1149 q 613 1101 642 1101 q 554 1125 581 1101 q 528 1186 528 1149 l 528 1186 z "},"Ạ":{"ha":971,"x_min":33,"x_max":938,"o":"m 33 0 l 481 1053 l 490 1053 l 938 0 l 751 0 l 438 800 l 553 878 l 192 0 l 33 0 m 314 376 l 660 376 l 715 238 l 265 238 l 314 376 m 393 -150 q 422 -90 393 -114 q 483 -67 450 -67 q 543 -90 517 -67 q 569 -150 569 -114 q 543 -209 569 -186 q 483 -232 517 -232 q 422 -208 450 -232 q 393 -150 393 -185 z "},"À":{"ha":971,"x_min":33,"x_max":938,"o":"m 33 0 l 481 1053 l 490 1053 l 938 0 l 751 0 l 438 800 l 553 878 l 192 0 l 33 0 m 314 376 l 660 376 l 715 238 l 265 238 l 314 376 m 256 1290 l 428 1290 l 524 1104 l 426 1104 l 256 1290 z "},"Ả":{"ha":971,"x_min":33,"x_max":938,"o":"m 33 0 l 481 1053 l 490 1053 l 938 0 l 751 0 l 438 800 l 553 878 l 192 0 l 33 0 m 314 376 l 660 376 l 715 238 l 265 238 l 314 376 m 474 1156 q 516 1192 500 1175 q 532 1235 532 1210 q 522 1269 532 1256 q 489 1283 511 1283 q 454 1272 469 1283 q 429 1242 439 1260 l 372 1278 q 433 1347 396 1325 q 510 1369 469 1369 q 573 1353 549 1369 q 609 1311 597 1338 q 621 1256 621 1285 q 588 1172 621 1206 q 510 1110 554 1138 l 474 1156 z "},"Ȃ":{"ha":971,"x_min":33,"x_max":938,"o":"m 33 0 l 481 1053 l 490 1053 l 938 0 l 751 0 l 438 800 l 553 878 l 192 0 l 33 0 m 314 376 l 660 376 l 715 238 l 265 238 l 314 376 m 479 1318 q 585 1290 540 1318 q 658 1205 629 1261 q 699 1067 686 1149 l 593 1067 q 574 1143 588 1110 q 537 1194 560 1176 q 479 1213 514 1213 q 422 1194 444 1213 q 385 1143 399 1176 q 365 1067 372 1110 l 261 1067 q 301 1207 272 1151 q 374 1290 329 1263 q 479 1318 418 1318 z "},"Ā":{"ha":971,"x_min":33,"x_max":938,"o":"m 33 0 l 481 1053 l 490 1053 l 938 0 l 751 0 l 438 800 l 553 878 l 192 0 l 33 0 m 314 376 l 660 376 l 715 238 l 265 238 l 314 376 m 308 1217 l 654 1217 l 654 1107 l 308 1107 l 308 1217 z "},"Ą":{"ha":971,"x_min":33,"x_max":990,"o":"m 33 0 l 481 1053 l 490 1053 l 938 0 l 751 0 l 438 800 l 553 878 l 192 0 l 33 0 m 314 376 l 660 376 l 715 238 l 265 238 l 314 376 m 822 -308 q 695 -263 747 -308 q 643 -146 643 -218 q 676 -54 643 -99 q 765 14 708 -10 l 939 0 q 818 -62 864 -32 q 772 -133 772 -93 q 792 -183 772 -169 q 836 -197 813 -197 q 888 -181 864 -197 q 933 -131 913 -164 l 990 -211 q 916 -281 964 -253 q 822 -308 868 -308 z "},"Å":{"ha":971,"x_min":33,"x_max":938,"o":"m 33 0 l 481 1053 l 490 1053 l 938 0 l 751 0 l 438 800 l 553 878 l 192 0 l 33 0 m 314 376 l 660 376 l 715 238 l 265 238 l 314 376 m 349 1231 q 388 1326 349 1290 q 489 1363 428 1363 q 589 1326 549 1363 q 629 1231 629 1290 q 589 1134 629 1171 q 489 1097 549 1097 q 389 1134 429 1097 q 349 1231 349 1171 m 432 1228 q 448 1185 432 1201 q 489 1168 464 1168 q 531 1185 515 1168 q 546 1228 546 1201 q 531 1272 546 1257 q 489 1288 515 1288 q 448 1272 464 1288 q 432 1228 432 1257 z "},"Ǻ":{"ha":971,"x_min":33,"x_max":938,"o":"m 33 0 l 481 1053 l 490 1053 l 938 0 l 751 0 l 438 800 l 553 878 l 192 0 l 33 0 m 314 376 l 660 376 l 715 238 l 265 238 l 314 376 m 349 1231 q 388 1326 349 1290 q 489 1363 428 1363 q 589 1326 549 1363 q 629 1231 629 1290 q 589 1134 629 1171 q 489 1097 549 1097 q 389 1134 429 1097 q 349 1231 349 1171 m 432 1228 q 448 1185 432 1201 q 489 1168 464 1168 q 531 1185 515 1168 q 546 1228 546 1201 q 531 1272 546 1257 q 489 1288 515 1288 q 448 1272 464 1288 q 432 1228 432 1257 m 718 1600 l 529 1414 l 433 1414 l 546 1600 l 718 1600 z "},"Ã":{"ha":971,"x_min":33,"x_max":938,"o":"m 33 0 l 481 1053 l 490 1053 l 938 0 l 751 0 l 438 800 l 553 878 l 192 0 l 33 0 m 314 376 l 660 376 l 715 238 l 265 238 l 314 376 m 592 1147 q 516 1167 546 1147 q 461 1210 486 1188 q 429 1235 444 1224 q 394 1247 414 1247 q 365 1234 376 1247 q 347 1199 353 1221 q 343 1147 342 1176 l 263 1149 q 273 1248 257 1203 q 322 1320 289 1293 q 403 1347 356 1347 q 465 1328 439 1347 q 515 1289 492 1308 q 552 1257 535 1271 q 589 1243 569 1243 q 624 1273 615 1243 q 633 1347 633 1303 l 714 1346 q 706 1242 721 1288 q 661 1172 692 1197 q 592 1147 631 1147 z "},"Æ":{"ha":1329,"x_min":14,"x_max":1244,"o":"m 668 1011 l 1225 1011 l 1225 856 l 829 856 l 829 583 l 1169 583 l 1169 428 l 829 428 l 829 156 l 1244 156 l 1244 0 l 668 0 l 668 1011 m 688 826 q 679 794 685 813 q 674 774 674 776 l 200 0 l 14 0 l 668 1011 l 688 826 m 343 367 l 689 367 l 689 239 l 294 239 l 343 367 z "},"Ǽ":{"ha":1329,"x_min":14,"x_max":1244,"o":"m 668 1011 l 1225 1011 l 1225 856 l 829 856 l 829 583 l 1169 583 l 1169 428 l 829 428 l 829 156 l 1244 156 l 1244 0 l 668 0 l 668 1011 m 688 826 q 679 794 685 813 q 674 774 674 776 l 200 0 l 14 0 l 668 1011 l 688 826 m 343 367 l 689 367 l 689 239 l 294 239 l 343 367 m 1150 1261 l 961 1075 l 865 1075 l 978 1261 l 1150 1261 z "},"B":{"ha":875,"x_min":139,"x_max":797,"o":"m 415 1011 q 659 949 569 1011 q 749 757 749 886 q 708 610 749 671 q 598 517 668 550 q 433 482 528 485 l 408 568 q 608 533 521 567 q 747 437 696 499 q 797 290 797 375 q 769 156 797 211 q 692 67 740 101 q 582 16 643 32 q 454 0 521 0 l 139 0 l 139 1011 l 415 1011 m 440 581 q 548 623 514 581 q 582 722 582 665 q 539 824 582 792 q 422 856 496 856 l 301 856 l 301 581 l 440 581 m 447 150 q 540 165 499 150 q 607 210 582 179 q 632 289 632 242 q 603 371 632 342 q 529 413 574 400 q 436 425 485 425 l 301 425 l 301 150 l 447 150 z "},"C":{"ha":965,"x_min":76,"x_max":889,"o":"m 889 79 q 823 42 867 64 q 719 3 779 19 q 585 -11 658 -12 q 372 31 467 -10 q 213 142 278 72 q 112 303 147 213 q 76 497 76 394 q 113 708 76 613 q 215 874 149 804 q 374 983 282 944 q 574 1022 465 1022 q 745 997 669 1022 q 872 939 821 971 l 808 788 q 711 840 769 814 q 579 867 653 867 q 451 840 513 867 q 344 763 390 813 q 272 649 299 714 q 244 507 244 583 q 269 361 244 428 q 338 247 293 294 q 447 172 383 199 q 589 144 510 144 q 726 169 667 144 q 821 224 785 193 l 889 79 z "},"Ć":{"ha":965,"x_min":76,"x_max":889,"o":"m 889 79 q 823 42 867 64 q 719 3 779 19 q 585 -11 658 -12 q 372 31 467 -10 q 213 142 278 72 q 112 303 147 213 q 76 497 76 394 q 113 708 76 613 q 215 874 149 804 q 374 983 282 944 q 574 1022 465 1022 q 745 997 669 1022 q 872 939 821 971 l 808 788 q 711 840 769 814 q 579 867 653 867 q 451 840 513 867 q 344 763 390 813 q 272 649 299 714 q 244 507 244 583 q 269 361 244 428 q 338 247 293 294 q 447 172 383 199 q 589 144 510 144 q 726 169 667 144 q 821 224 785 193 l 889 79 m 781 1264 l 592 1078 l 496 1078 l 608 1264 l 781 1264 z "},"Č":{"ha":965,"x_min":76,"x_max":889,"o":"m 889 79 q 823 42 867 64 q 719 3 779 19 q 585 -11 658 -12 q 372 31 467 -10 q 213 142 278 72 q 112 303 147 213 q 76 497 76 394 q 113 708 76 613 q 215 874 149 804 q 374 983 282 944 q 574 1022 465 1022 q 745 997 669 1022 q 872 939 821 971 l 808 788 q 711 840 769 814 q 579 867 653 867 q 451 840 513 867 q 344 763 390 813 q 272 649 299 714 q 244 507 244 583 q 269 361 244 428 q 338 247 293 294 q 447 172 383 199 q 589 144 510 144 q 726 169 667 144 q 821 224 785 193 l 889 79 m 443 1311 l 565 1189 l 522 1178 l 646 1311 l 788 1311 l 547 1067 l 546 1067 l 301 1311 l 443 1311 z "},"Ç":{"ha":965,"x_min":76,"x_max":889,"o":"m 889 79 q 823 42 867 64 q 719 3 779 19 q 585 -11 658 -12 q 372 31 467 -10 q 213 142 278 72 q 112 303 147 213 q 76 497 76 394 q 113 708 76 613 q 215 874 149 804 q 374 983 282 944 q 574 1022 465 1022 q 745 997 669 1022 q 872 939 821 971 l 808 788 q 711 840 769 814 q 579 867 653 867 q 451 840 513 867 q 344 763 390 813 q 272 649 299 714 q 244 507 244 583 q 269 361 244 428 q 338 247 293 294 q 447 172 383 199 q 589 144 510 144 q 726 169 667 144 q 821 224 785 193 l 889 79 m 446 -204 q 484 -230 461 -219 q 535 -240 507 -240 q 594 -226 567 -240 q 622 -183 622 -211 q 605 -144 622 -162 q 539 -126 588 -126 q 493 -132 517 -126 q 451 -143 469 -137 l 426 -69 l 522 14 l 642 10 l 539 -107 l 507 -69 q 541 -61 522 -64 q 578 -57 560 -58 q 703 -87 653 -56 q 753 -181 753 -118 q 724 -261 753 -229 q 649 -308 694 -293 q 551 -324 604 -324 q 458 -307 496 -324 q 397 -267 421 -290 l 446 -204 z "},"Ĉ":{"ha":965,"x_min":76,"x_max":889,"o":"m 889 79 q 823 42 867 64 q 719 3 779 19 q 585 -11 658 -12 q 372 31 467 -10 q 213 142 278 72 q 112 303 147 213 q 76 497 76 394 q 113 708 76 613 q 215 874 149 804 q 374 983 282 944 q 574 1022 465 1022 q 745 997 669 1022 q 872 939 821 971 l 808 788 q 711 840 769 814 q 579 867 653 867 q 451 840 513 867 q 344 763 390 813 q 272 649 299 714 q 244 507 244 583 q 269 361 244 428 q 338 247 293 294 q 447 172 383 199 q 589 144 510 144 q 726 169 667 144 q 821 224 785 193 l 889 79 m 640 1100 l 519 1222 l 561 1233 l 439 1100 l 296 1100 l 536 1344 l 538 1344 l 782 1100 l 640 1100 z "},"Ċ":{"ha":965,"x_min":76,"x_max":889,"o":"m 889 79 q 823 42 867 64 q 719 3 779 19 q 585 -11 658 -12 q 372 31 467 -10 q 213 142 278 72 q 112 303 147 213 q 76 497 76 394 q 113 708 76 613 q 215 874 149 804 q 374 983 282 944 q 574 1022 465 1022 q 745 997 669 1022 q 872 939 821 971 l 808 788 q 711 840 769 814 q 579 867 653 867 q 451 840 513 867 q 344 763 390 813 q 272 649 299 714 q 244 507 244 583 q 269 361 244 428 q 338 247 293 294 q 447 172 383 199 q 589 144 510 144 q 726 169 667 144 q 821 224 785 193 l 889 79 m 460 1163 q 488 1222 460 1199 q 550 1246 517 1246 q 610 1222 583 1246 q 636 1163 636 1199 q 610 1103 636 1126 q 550 1081 583 1081 q 488 1104 517 1081 q 460 1163 460 1128 z "},"D":{"ha":1056,"x_min":139,"x_max":979,"o":"m 139 0 l 139 1011 l 426 1011 q 683 965 576 1011 q 854 844 789 919 q 949 677 919 769 q 979 492 979 585 q 939 288 979 378 q 828 133 899 197 q 667 34 758 68 q 475 0 576 0 l 139 0 m 301 156 l 446 156 q 593 178 526 156 q 709 245 660 201 q 785 354 758 289 q 813 503 813 419 q 781 665 813 597 q 699 774 750 732 q 589 837 649 817 q 471 857 529 857 l 301 857 l 301 156 z "},"Ǆ":{"ha":1958,"x_min":139,"x_max":1885,"o":"m 139 0 l 139 1011 l 426 1011 q 683 965 576 1011 q 854 844 789 919 q 949 677 919 769 q 979 492 979 585 q 939 288 979 378 q 828 133 899 197 q 667 34 758 68 q 475 0 576 0 l 139 0 m 301 156 l 446 156 q 593 178 526 156 q 709 245 660 201 q 785 354 758 289 q 813 503 813 419 q 781 665 813 597 q 699 774 750 732 q 589 837 649 817 q 471 857 529 857 l 301 857 l 301 156 m 1031 0 q 1069 56 1040 14 q 1138 161 1097 99 q 1227 299 1179 224 q 1326 452 1275 374 q 1426 605 1378 531 q 1516 741 1475 679 q 1585 845 1557 803 q 1622 900 1613 888 l 1642 856 l 1217 856 q 1160 867 1189 856 q 1113 899 1132 878 q 1094 947 1094 919 l 1094 1063 l 1244 1063 l 1244 1043 q 1254 1014 1244 1017 q 1288 1011 1264 1011 l 1876 1011 l 1296 136 l 1286 156 l 1885 156 l 1885 0 l 1031 0 m 1357 1286 l 1479 1164 l 1436 1153 l 1560 1286 l 1701 1286 l 1461 1042 l 1460 1042 l 1215 1286 l 1357 1286 z "},"Ð":{"ha":1056,"x_min":25,"x_max":979,"o":"m 139 0 l 139 1011 l 426 1011 q 683 965 576 1011 q 854 844 789 919 q 949 677 919 769 q 979 492 979 585 q 939 288 979 378 q 828 133 899 197 q 667 34 758 68 q 475 0 576 0 l 139 0 m 301 156 l 446 156 q 593 178 526 156 q 709 245 660 201 q 785 354 758 289 q 813 503 813 419 q 781 665 813 597 q 699 774 750 732 q 589 837 649 817 q 471 857 529 857 l 301 857 l 301 156 m 26 574 l 432 574 l 432 429 l 26 429 l 26 574 z "},"Ď":{"ha":1056,"x_min":139,"x_max":979,"o":"m 139 0 l 139 1011 l 426 1011 q 683 965 576 1011 q 854 844 789 919 q 949 677 919 769 q 979 492 979 585 q 939 288 979 378 q 828 133 899 197 q 667 34 758 68 q 475 0 576 0 l 139 0 m 301 156 l 446 156 q 593 178 526 156 q 709 245 660 201 q 785 354 758 289 q 813 503 813 419 q 781 665 813 597 q 699 774 750 732 q 589 837 649 817 q 471 857 529 857 l 301 857 l 301 156 m 328 1286 l 450 1164 l 407 1153 l 531 1286 l 672 1286 l 432 1042 l 431 1042 l 186 1286 l 328 1286 z "},"Đ":{"ha":1069,"x_min":39,"x_max":993,"o":"m 153 0 l 153 1011 l 440 1011 q 697 965 590 1011 q 868 844 803 919 q 963 677 933 769 q 993 492 993 585 q 953 288 993 378 q 842 133 913 197 q 681 34 772 68 q 489 0 590 0 l 153 0 m 315 156 l 460 156 q 607 178 540 156 q 723 245 674 201 q 799 354 772 289 q 826 503 826 419 q 795 665 826 597 q 713 774 764 732 q 603 837 663 817 q 485 857 543 857 l 315 857 l 315 156 m 39 574 l 444 574 l 444 429 l 39 429 l 39 574 z "},"ǅ":{"ha":1732,"x_min":139,"x_max":1661,"o":"m 139 0 l 139 1011 l 426 1011 q 683 965 576 1011 q 854 844 789 919 q 949 677 919 769 q 979 492 979 585 q 939 288 979 378 q 828 133 899 197 q 667 34 758 68 q 475 0 576 0 l 139 0 m 301 156 l 446 156 q 593 178 526 156 q 709 245 660 201 q 785 354 758 289 q 813 503 813 419 q 781 665 813 597 q 699 774 750 732 q 589 837 649 817 q 471 857 529 857 l 301 857 l 301 156 m 1233 461 q 1154 492 1188 461 q 1121 578 1121 522 l 1121 644 l 1238 644 l 1238 625 q 1249 594 1238 600 q 1285 588 1260 588 l 1660 588 l 1318 94 l 1289 128 l 1656 128 l 1656 0 l 1090 0 l 1439 506 l 1464 461 l 1233 461 m 1307 904 l 1429 782 l 1386 771 l 1510 904 l 1651 904 l 1411 660 l 1410 660 l 1165 904 l 1307 904 z "},"E":{"ha":914,"x_min":139,"x_max":829,"o":"m 139 1011 l 810 1011 l 810 856 l 301 856 l 301 586 l 754 586 l 754 431 l 301 431 l 301 156 l 829 156 l 829 0 l 139 0 l 139 1011 z "},"É":{"ha":914,"x_min":139,"x_max":829,"o":"m 139 1011 l 810 1011 l 810 856 l 301 856 l 301 586 l 754 586 l 754 431 l 301 431 l 301 156 l 829 156 l 829 0 l 139 0 l 139 1011 m 703 1261 l 514 1075 l 418 1075 l 531 1261 l 703 1261 z "},"Ĕ":{"ha":914,"x_min":139,"x_max":829,"o":"m 139 1011 l 810 1011 l 810 856 l 301 856 l 301 586 l 754 586 l 754 431 l 301 431 l 301 156 l 829 156 l 829 0 l 139 0 l 139 1011 m 472 1081 q 366 1109 411 1081 q 293 1193 321 1138 q 253 1331 265 1249 l 357 1331 q 378 1256 364 1289 q 415 1203 392 1222 q 472 1185 439 1185 q 531 1203 508 1185 q 565 1256 553 1222 q 585 1331 578 1289 l 690 1331 q 650 1191 678 1247 q 578 1108 622 1135 q 472 1081 533 1081 z "},"Ě":{"ha":914,"x_min":139,"x_max":829,"o":"m 139 1011 l 810 1011 l 810 856 l 301 856 l 301 586 l 754 586 l 754 431 l 301 431 l 301 156 l 829 156 l 829 0 l 139 0 l 139 1011 m 367 1308 l 489 1186 l 446 1175 l 569 1308 l 711 1308 l 471 1064 l 469 1064 l 225 1308 l 367 1308 z "},"Ê":{"ha":914,"x_min":139,"x_max":829,"o":"m 139 1011 l 810 1011 l 810 856 l 301 856 l 301 586 l 754 586 l 754 431 l 301 431 l 301 156 l 829 156 l 829 0 l 139 0 l 139 1011 m 563 1097 l 442 1219 l 483 1231 l 361 1097 l 218 1097 l 458 1342 l 460 1342 l 704 1097 l 563 1097 z "},"Ế":{"ha":914,"x_min":139,"x_max":879,"o":"m 139 1011 l 810 1011 l 810 856 l 301 856 l 301 586 l 754 586 l 754 431 l 301 431 l 301 156 l 829 156 l 829 0 l 139 0 l 139 1011 m 575 1118 l 454 1240 l 496 1251 l 374 1118 l 231 1118 l 471 1363 l 472 1363 l 717 1118 l 575 1118 m 879 1444 l 690 1258 l 594 1258 l 707 1444 l 879 1444 z "},"Ệ":{"ha":914,"x_min":139,"x_max":829,"o":"m 139 1011 l 810 1011 l 810 856 l 301 856 l 301 586 l 754 586 l 754 431 l 301 431 l 301 156 l 829 156 l 829 0 l 139 0 l 139 1011 m 379 -150 q 408 -90 379 -114 q 469 -67 436 -67 q 529 -90 503 -67 q 556 -150 556 -114 q 529 -209 556 -186 q 469 -232 503 -232 q 408 -208 436 -232 q 379 -150 379 -185 m 563 1097 l 442 1219 l 483 1231 l 361 1097 l 218 1097 l 458 1342 l 460 1342 l 704 1097 l 563 1097 z "},"Ề":{"ha":914,"x_min":19,"x_max":829,"o":"m 139 1011 l 810 1011 l 810 856 l 301 856 l 301 586 l 754 586 l 754 431 l 301 431 l 301 156 l 829 156 l 829 0 l 139 0 l 139 1011 m 565 1115 l 444 1238 l 486 1249 l 364 1115 l 221 1115 l 461 1360 l 463 1360 l 707 1115 l 565 1115 m 18 1451 l 190 1451 l 286 1265 l 189 1265 l 18 1451 z "},"Ể":{"ha":914,"x_min":139,"x_max":850,"o":"m 139 1011 l 810 1011 l 810 856 l 301 856 l 301 586 l 754 586 l 754 431 l 301 431 l 301 156 l 829 156 l 829 0 l 139 0 l 139 1011 m 569 1118 l 449 1240 l 490 1251 l 368 1118 l 225 1118 l 465 1363 l 467 1363 l 711 1118 l 569 1118 m 703 1267 q 745 1303 729 1286 q 761 1346 761 1321 q 751 1381 761 1367 q 718 1394 740 1394 q 683 1383 699 1394 q 658 1353 668 1371 l 601 1389 q 662 1458 625 1436 q 739 1481 699 1481 q 802 1465 778 1481 q 838 1422 826 1449 q 850 1367 850 1396 q 817 1283 850 1317 q 739 1221 783 1249 l 703 1267 z "},"Ễ":{"ha":914,"x_min":139,"x_max":829,"o":"m 139 1011 l 810 1011 l 810 856 l 301 856 l 301 586 l 754 586 l 754 431 l 301 431 l 301 156 l 829 156 l 829 0 l 139 0 l 139 1011 m 563 1111 l 442 1233 l 483 1244 l 361 1111 l 218 1111 l 458 1356 l 460 1356 l 704 1111 l 563 1111 m 572 1393 q 497 1413 526 1393 q 442 1454 467 1433 q 410 1481 425 1469 q 375 1492 394 1492 q 345 1478 357 1492 q 328 1443 333 1465 q 324 1393 322 1421 l 243 1393 q 253 1493 238 1447 q 303 1566 269 1539 q 383 1593 336 1593 q 446 1574 419 1593 q 496 1533 472 1554 q 533 1501 515 1515 q 569 1488 550 1488 q 605 1518 596 1488 q 614 1592 614 1549 l 694 1592 q 687 1488 701 1533 q 642 1418 672 1443 q 572 1393 611 1393 z "},"Ȅ":{"ha":914,"x_min":139,"x_max":829,"o":"m 139 1011 l 810 1011 l 810 856 l 301 856 l 301 586 l 754 586 l 754 431 l 301 431 l 301 156 l 829 156 l 829 0 l 139 0 l 139 1011 m 172 1279 l 344 1279 l 440 1093 l 343 1093 l 172 1279 m 385 1279 l 557 1279 l 653 1093 l 556 1093 l 385 1279 z "},"Ë":{"ha":914,"x_min":139,"x_max":829,"o":"m 139 1011 l 810 1011 l 810 856 l 301 856 l 301 586 l 754 586 l 754 431 l 301 431 l 301 156 l 829 156 l 829 0 l 139 0 l 139 1011 m 247 1164 q 274 1224 247 1200 q 331 1249 300 1249 q 388 1224 361 1249 q 414 1164 414 1200 q 388 1103 414 1126 q 331 1079 361 1079 q 274 1103 300 1079 q 247 1164 247 1126 l 247 1164 m 514 1164 q 540 1224 514 1200 q 599 1249 567 1249 q 654 1224 628 1249 q 681 1164 681 1200 q 654 1103 681 1126 q 599 1079 628 1079 q 540 1103 567 1079 q 514 1164 514 1126 l 514 1164 z "},"Ė":{"ha":914,"x_min":139,"x_max":829,"o":"m 139 1011 l 810 1011 l 810 856 l 301 856 l 301 586 l 754 586 l 754 431 l 301 431 l 301 156 l 829 156 l 829 0 l 139 0 l 139 1011 m 382 1160 q 410 1219 382 1196 q 472 1243 439 1243 q 532 1219 506 1243 q 558 1160 558 1196 q 532 1101 558 1124 q 472 1078 506 1078 q 410 1101 439 1078 q 382 1160 382 1125 z "},"Ẹ":{"ha":914,"x_min":139,"x_max":829,"o":"m 139 1011 l 810 1011 l 810 856 l 301 856 l 301 586 l 754 586 l 754 431 l 301 431 l 301 156 l 829 156 l 829 0 l 139 0 l 139 1011 m 379 -150 q 408 -90 379 -114 q 469 -67 436 -67 q 529 -90 503 -67 q 556 -150 556 -114 q 529 -209 556 -186 q 469 -232 503 -232 q 408 -208 436 -232 q 379 -150 379 -185 z "},"È":{"ha":914,"x_min":139,"x_max":829,"o":"m 139 1011 l 810 1011 l 810 856 l 301 856 l 301 586 l 754 586 l 754 431 l 301 431 l 301 156 l 829 156 l 829 0 l 139 0 l 139 1011 m 242 1269 l 414 1269 l 510 1083 l 413 1083 l 242 1269 z "},"Ẻ":{"ha":914,"x_min":139,"x_max":829,"o":"m 139 1011 l 810 1011 l 810 856 l 301 856 l 301 586 l 754 586 l 754 431 l 301 431 l 301 156 l 829 156 l 829 0 l 139 0 l 139 1011 m 460 1135 q 502 1172 486 1154 q 518 1214 518 1189 q 508 1249 518 1235 q 475 1263 497 1263 q 440 1251 456 1263 q 415 1221 425 1239 l 358 1257 q 419 1326 382 1304 q 496 1349 456 1349 q 559 1333 535 1349 q 595 1290 583 1317 q 607 1235 607 1264 q 574 1151 607 1185 q 496 1089 540 1117 l 460 1135 z "},"Ȇ":{"ha":914,"x_min":139,"x_max":829,"o":"m 139 1011 l 810 1011 l 810 856 l 301 856 l 301 586 l 754 586 l 754 431 l 301 431 l 301 156 l 829 156 l 829 0 l 139 0 l 139 1011 m 464 1296 q 569 1267 525 1296 q 642 1183 614 1239 q 683 1044 671 1126 l 578 1044 q 558 1121 572 1088 q 522 1172 544 1154 q 464 1190 499 1190 q 406 1172 429 1190 q 370 1121 383 1154 q 350 1044 357 1088 l 246 1044 q 285 1185 257 1129 q 358 1268 314 1240 q 464 1296 403 1296 z "},"Ē":{"ha":914,"x_min":139,"x_max":829,"o":"m 139 1011 l 810 1011 l 810 856 l 301 856 l 301 586 l 754 586 l 754 431 l 301 431 l 301 156 l 829 156 l 829 0 l 139 0 l 139 1011 m 293 1196 l 639 1196 l 639 1086 l 293 1086 l 293 1196 z "},"Ę":{"ha":914,"x_min":139,"x_max":882,"o":"m 139 1011 l 810 1011 l 810 856 l 301 856 l 301 586 l 754 586 l 754 431 l 301 431 l 301 156 l 829 156 l 829 0 l 139 0 l 139 1011 m 713 -308 q 585 -263 638 -308 q 533 -146 533 -218 q 566 -54 533 -99 q 656 14 599 -10 l 829 0 q 708 -62 754 -32 q 663 -133 663 -93 q 683 -183 663 -169 q 726 -197 703 -197 q 778 -181 754 -197 q 824 -131 803 -164 l 881 -211 q 806 -281 854 -253 q 713 -308 758 -308 z "},"Ẽ":{"ha":914,"x_min":139,"x_max":829,"o":"m 139 1011 l 810 1011 l 810 856 l 301 856 l 301 586 l 754 586 l 754 431 l 301 431 l 301 156 l 829 156 l 829 0 l 139 0 l 139 1011 m 578 1125 q 502 1145 532 1125 q 447 1188 472 1165 q 415 1213 431 1201 q 381 1225 400 1225 q 351 1212 363 1225 q 333 1176 339 1199 q 329 1125 328 1154 l 249 1126 q 259 1226 243 1181 q 308 1298 275 1271 q 389 1325 342 1325 q 451 1306 425 1325 q 501 1267 478 1286 q 538 1235 521 1249 q 575 1221 556 1221 q 610 1251 601 1221 q 619 1325 619 1281 l 700 1324 q 692 1220 707 1265 q 647 1150 678 1175 q 578 1125 617 1125 z "},"F":{"ha":824,"x_min":139,"x_max":753,"o":"m 139 1011 l 753 1011 l 753 856 l 301 856 l 301 571 l 694 571 l 694 417 l 301 417 l 301 0 l 139 0 l 139 1011 z "},"G":{"ha":1050,"x_min":76,"x_max":943,"o":"m 943 93 q 885 56 924 74 q 800 22 847 38 q 703 -2 753 7 q 608 -11 653 -11 q 388 26 486 -11 q 221 130 290 64 q 114 286 151 196 q 76 482 76 376 q 118 715 76 614 q 232 884 160 815 q 398 988 304 953 q 596 1022 492 1022 q 766 1001 688 1022 q 900 949 844 981 l 847 799 q 779 828 821 814 q 694 851 738 843 q 617 860 651 860 q 460 835 529 860 q 343 764 392 811 q 269 649 294 717 q 243 496 243 582 q 270 354 243 418 q 346 244 297 290 q 463 174 394 199 q 613 150 531 150 q 704 158 660 150 q 781 185 749 167 l 781 353 l 590 353 l 590 508 l 943 508 l 943 93 z "},"Ğ":{"ha":1050,"x_min":76,"x_max":943,"o":"m 943 93 q 885 56 924 74 q 800 22 847 38 q 703 -2 753 7 q 608 -11 653 -11 q 388 26 486 -11 q 221 130 290 64 q 114 286 151 196 q 76 482 76 376 q 118 715 76 614 q 232 884 160 815 q 398 988 304 953 q 596 1022 492 1022 q 766 1001 688 1022 q 900 949 844 981 l 847 799 q 779 828 821 814 q 694 851 738 843 q 617 860 651 860 q 460 835 529 860 q 343 764 392 811 q 269 649 294 717 q 243 496 243 582 q 270 354 243 418 q 346 244 297 290 q 463 174 394 199 q 613 150 531 150 q 704 158 660 150 q 781 185 749 167 l 781 353 l 590 353 l 590 508 l 943 508 l 943 93 m 568 1058 q 462 1087 507 1058 q 389 1171 417 1115 q 349 1308 361 1226 l 453 1308 q 474 1233 460 1267 q 511 1181 488 1200 q 568 1163 535 1163 q 626 1181 604 1163 q 661 1233 649 1200 q 681 1308 674 1267 l 786 1308 q 746 1169 774 1225 q 674 1085 718 1113 q 568 1058 629 1058 z "},"Ǧ":{"ha":1050,"x_min":76,"x_max":943,"o":"m 943 93 q 885 56 924 74 q 800 22 847 38 q 703 -2 753 7 q 608 -11 653 -11 q 388 26 486 -11 q 221 130 290 64 q 114 286 151 196 q 76 482 76 376 q 118 715 76 614 q 232 884 160 815 q 398 988 304 953 q 596 1022 492 1022 q 766 1001 688 1022 q 900 949 844 981 l 847 799 q 779 828 821 814 q 694 851 738 843 q 617 860 651 860 q 460 835 529 860 q 343 764 392 811 q 269 649 294 717 q 243 496 243 582 q 270 354 243 418 q 346 244 297 290 q 463 174 394 199 q 613 150 531 150 q 704 158 660 150 q 781 185 749 167 l 781 353 l 590 353 l 590 508 l 943 508 l 943 93 m 463 1286 l 585 1164 l 542 1153 l 665 1286 l 807 1286 l 567 1042 l 565 1042 l 321 1286 l 463 1286 z "},"Ĝ":{"ha":1050,"x_min":76,"x_max":943,"o":"m 943 93 q 885 56 924 74 q 800 22 847 38 q 703 -2 753 7 q 608 -11 653 -11 q 388 26 486 -11 q 221 130 290 64 q 114 286 151 196 q 76 482 76 376 q 118 715 76 614 q 232 884 160 815 q 398 988 304 953 q 596 1022 492 1022 q 766 1001 688 1022 q 900 949 844 981 l 847 799 q 779 828 821 814 q 694 851 738 843 q 617 860 651 860 q 460 835 529 860 q 343 764 392 811 q 269 649 294 717 q 243 496 243 582 q 270 354 243 418 q 346 244 297 290 q 463 174 394 199 q 613 150 531 150 q 704 158 660 150 q 781 185 749 167 l 781 353 l 590 353 l 590 508 l 943 508 l 943 93 m 660 1075 l 539 1197 l 581 1208 l 458 1075 l 315 1075 l 556 1319 l 557 1319 l 801 1075 l 660 1075 z "},"Ģ":{"ha":1050,"x_min":76,"x_max":943,"o":"m 943 93 q 885 56 924 74 q 800 22 847 38 q 703 -2 753 7 q 608 -11 653 -11 q 388 26 486 -11 q 221 130 290 64 q 114 286 151 196 q 76 482 76 376 q 118 715 76 614 q 232 884 160 815 q 398 988 304 953 q 596 1022 492 1022 q 766 1001 688 1022 q 900 949 844 981 l 847 799 q 779 828 821 814 q 694 851 738 843 q 617 860 651 860 q 460 835 529 860 q 343 764 392 811 q 269 649 294 717 q 243 496 243 582 q 270 354 243 418 q 346 244 297 290 q 463 174 394 199 q 613 150 531 150 q 704 158 660 150 q 781 185 749 167 l 781 353 l 590 353 l 590 508 l 943 508 l 943 93 m 490 -308 l 411 -254 q 457 -171 443 -225 q 463 -67 471 -117 l 599 -68 q 594 -152 606 -106 q 558 -240 583 -199 q 490 -308 532 -282 z "},"Ġ":{"ha":1050,"x_min":76,"x_max":943,"o":"m 943 93 q 885 56 924 74 q 800 22 847 38 q 703 -2 753 7 q 608 -11 653 -11 q 388 26 486 -11 q 221 130 290 64 q 114 286 151 196 q 76 482 76 376 q 118 715 76 614 q 232 884 160 815 q 398 988 304 953 q 596 1022 492 1022 q 766 1001 688 1022 q 900 949 844 981 l 847 799 q 779 828 821 814 q 694 851 738 843 q 617 860 651 860 q 460 835 529 860 q 343 764 392 811 q 269 649 294 717 q 243 496 243 582 q 270 354 243 418 q 346 244 297 290 q 463 174 394 199 q 613 150 531 150 q 704 158 660 150 q 781 185 749 167 l 781 353 l 590 353 l 590 508 l 943 508 l 943 93 m 479 1139 q 508 1199 479 1175 q 569 1222 536 1222 q 629 1199 603 1222 q 656 1139 656 1175 q 629 1080 656 1103 q 569 1057 603 1057 q 508 1081 536 1057 q 479 1139 479 1104 z "},"H":{"ha":1100,"x_min":139,"x_max":960,"o":"m 960 1011 l 960 0 l 799 0 l 799 431 l 301 431 l 301 0 l 139 0 l 139 1011 l 301 1011 l 301 585 l 799 585 l 799 1011 l 960 1011 z "},"Ħ":{"ha":1328,"x_min":139,"x_max":1189,"o":"m 139 811 l 1189 811 l 1189 690 l 139 690 l 139 811 m 1075 1011 l 1075 0 l 914 0 l 914 431 l 415 431 l 415 0 l 254 0 l 254 1011 l 415 1011 l 415 585 l 914 585 l 914 1011 l 1075 1011 z "},"Ĥ":{"ha":1100,"x_min":139,"x_max":960,"o":"m 960 1011 l 960 0 l 799 0 l 799 431 l 301 431 l 301 0 l 139 0 l 139 1011 l 301 1011 l 301 585 l 799 585 l 799 1011 l 960 1011 m 643 1075 l 522 1197 l 564 1208 l 442 1075 l 299 1075 l 539 1319 l 540 1319 l 785 1075 l 643 1075 z "},"I":{"ha":440,"x_min":139,"x_max":301,"o":"m 139 1011 l 301 1011 l 301 0 l 139 0 l 139 1011 z "},"Ĳ":{"ha":967,"x_min":139,"x_max":828,"o":"m 139 1011 l 301 1011 l 301 0 l 139 0 l 139 1011 m 828 196 q 778 -20 828 69 q 643 -158 729 -110 q 446 -210 557 -206 l 446 -210 l 446 -53 q 603 12 542 -47 q 665 200 665 71 l 665 1011 l 828 1011 l 828 196 z "},"Í":{"ha":440,"x_min":139,"x_max":453,"o":"m 139 1011 l 301 1011 l 301 0 l 139 0 l 139 1011 m 453 1261 l 264 1075 l 168 1075 l 281 1261 l 453 1261 z "},"Ĭ":{"ha":440,"x_min":3,"x_max":439,"o":"m 139 1011 l 301 1011 l 301 0 l 139 0 l 139 1011 m 222 1081 q 116 1109 161 1081 q 43 1193 71 1138 q 3 1331 15 1249 l 107 1331 q 128 1256 114 1289 q 165 1203 142 1222 q 222 1185 189 1185 q 281 1203 258 1185 q 315 1256 303 1222 q 335 1331 328 1289 l 440 1331 q 400 1191 428 1247 q 328 1108 372 1135 q 222 1081 283 1081 z "},"Î":{"ha":440,"x_min":-31,"x_max":456,"o":"m 139 1011 l 301 1011 l 301 0 l 139 0 l 139 1011 m 313 1097 l 192 1219 l 233 1231 l 111 1097 l -32 1097 l 208 1342 l 210 1342 l 454 1097 l 313 1097 z "},"Ȉ":{"ha":440,"x_min":-78,"x_max":403,"o":"m 139 1011 l 301 1011 l 301 0 l 139 0 l 139 1011 m -78 1279 l 94 1279 l 190 1093 l 93 1093 l -78 1279 m 135 1279 l 307 1279 l 403 1093 l 306 1093 l 135 1279 z "},"Ï":{"ha":440,"x_min":-3,"x_max":429,"o":"m 139 1011 l 301 1011 l 301 0 l 139 0 l 139 1011 m -3 1164 q 24 1224 -3 1200 q 81 1249 50 1249 q 138 1224 111 1249 q 164 1164 164 1200 q 138 1103 164 1126 q 81 1079 111 1079 q 24 1103 50 1079 q -3 1164 -3 1126 l -3 1164 m 264 1164 q 290 1224 264 1200 q 349 1249 317 1249 q 404 1224 378 1249 q 431 1164 431 1200 q 404 1103 431 1126 q 349 1079 378 1079 q 290 1103 317 1079 q 264 1164 264 1126 l 264 1164 z "},"İ":{"ha":440,"x_min":133,"x_max":310,"o":"m 139 1011 l 301 1011 l 301 0 l 139 0 l 139 1011 m 132 1160 q 160 1219 132 1196 q 222 1243 189 1243 q 282 1219 256 1243 q 308 1160 308 1196 q 282 1101 308 1124 q 222 1078 256 1078 q 160 1101 189 1078 q 132 1160 132 1125 z "},"Ị":{"ha":440,"x_min":129,"x_max":306,"o":"m 139 1011 l 301 1011 l 301 0 l 139 0 l 139 1011 m 129 -150 q 158 -90 129 -114 q 219 -67 186 -67 q 279 -90 253 -67 q 306 -150 306 -114 q 279 -209 306 -186 q 219 -232 253 -232 q 158 -208 186 -232 q 129 -150 129 -185 z "},"Ì":{"ha":440,"x_min":-8,"x_max":301,"o":"m 139 1011 l 301 1011 l 301 0 l 139 0 l 139 1011 m -8 1269 l 164 1269 l 260 1083 l 163 1083 l -8 1269 z "},"Ỉ":{"ha":440,"x_min":107,"x_max":357,"o":"m 139 1011 l 301 1011 l 301 0 l 139 0 l 139 1011 m 210 1135 q 252 1172 236 1154 q 268 1214 268 1189 q 258 1249 268 1235 q 225 1263 247 1263 q 190 1251 206 1263 q 165 1221 175 1239 l 108 1257 q 169 1326 132 1304 q 246 1349 206 1349 q 309 1333 285 1349 q 345 1290 333 1317 q 357 1235 357 1264 q 324 1151 357 1185 q 246 1089 290 1117 l 210 1135 z "},"Ȋ":{"ha":440,"x_min":-4,"x_max":433,"o":"m 139 1011 l 301 1011 l 301 0 l 139 0 l 139 1011 m 214 1296 q 319 1267 275 1296 q 392 1183 364 1239 q 433 1044 421 1126 l 328 1044 q 308 1121 322 1088 q 272 1172 294 1154 q 214 1190 249 1190 q 156 1172 179 1190 q 120 1121 133 1154 q 100 1044 107 1088 l -4 1044 q 35 1185 7 1129 q 108 1268 64 1240 q 214 1296 153 1296 z "},"Ī":{"ha":440,"x_min":43,"x_max":389,"o":"m 139 1011 l 301 1011 l 301 0 l 139 0 l 139 1011 m 43 1196 l 389 1196 l 389 1086 l 43 1086 l 43 1196 z "},"Į":{"ha":386,"x_min":15,"x_max":364,"o":"m 194 -308 q 68 -269 121 -308 q 15 -157 15 -229 q 49 -64 15 -108 q 138 4 82 -19 l 267 8 l 294 0 q 185 -60 226 -29 q 144 -133 144 -90 q 165 -183 144 -169 q 210 -197 185 -197 q 261 -181 238 -197 q 306 -131 285 -164 l 364 -211 q 288 -281 336 -253 q 194 -308 240 -308 m 139 1011 l 301 1011 l 301 0 l 139 0 l 139 1011 z "},"Ĩ":{"ha":440,"x_min":-7,"x_max":457,"o":"m 139 1011 l 301 1011 l 301 0 l 139 0 l 139 1011 m 328 1125 q 252 1145 282 1125 q 197 1188 222 1165 q 165 1213 181 1201 q 131 1225 150 1225 q 101 1212 113 1225 q 83 1176 89 1199 q 79 1125 78 1154 l -1 1126 q 9 1226 -7 1181 q 58 1298 25 1271 q 139 1325 92 1325 q 201 1306 175 1325 q 251 1267 228 1286 q 288 1235 271 1249 q 325 1221 306 1221 q 360 1251 351 1221 q 369 1325 369 1281 l 450 1324 q 442 1220 457 1265 q 397 1150 428 1175 q 328 1125 367 1125 z "},"J":{"ha":526,"x_min":6,"x_max":388,"o":"m 388 196 q 338 -20 388 69 q 203 -158 289 -110 q 6 -210 117 -206 l 6 -210 l 6 -53 q 163 12 101 -47 q 225 200 225 71 l 225 1011 l 388 1011 l 388 196 z "},"Ĵ":{"ha":526,"x_min":6,"x_max":543,"o":"m 388 196 q 338 -20 388 69 q 203 -158 289 -110 q 6 -210 117 -206 l 6 -210 l 6 -53 q 163 12 101 -47 q 225 200 225 71 l 225 1011 l 388 1011 l 388 196 m 401 1097 l 281 1219 l 322 1231 l 200 1097 l 57 1097 l 297 1342 l 299 1342 l 543 1097 l 401 1097 z "},"K":{"ha":957,"x_min":139,"x_max":925,"o":"m 303 624 l 299 572 l 321 604 l 701 1011 l 910 1011 l 492 569 l 925 0 l 719 0 l 374 467 l 303 397 l 303 0 l 139 0 l 139 1011 l 303 1011 l 303 624 z "},"Ķ":{"ha":957,"x_min":139,"x_max":925,"o":"m 303 624 l 299 572 l 321 604 l 701 1011 l 910 1011 l 492 569 l 925 0 l 719 0 l 374 467 l 303 397 l 303 0 l 139 0 l 139 1011 l 303 1011 l 303 624 m 408 -308 l 329 -254 q 375 -171 361 -225 q 381 -67 389 -117 l 517 -68 q 513 -152 524 -106 q 476 -240 501 -199 q 408 -308 450 -282 z "},"L":{"ha":875,"x_min":139,"x_max":799,"o":"m 139 1011 l 301 1011 l 301 156 l 799 156 l 799 0 l 139 0 l 139 1011 z "},"Ǉ":{"ha":1401,"x_min":139,"x_max":1261,"o":"m 139 1011 l 301 1011 l 301 156 l 799 156 l 799 0 l 139 0 l 139 1011 m 1263 196 q 1213 -20 1263 69 q 1078 -158 1164 -110 q 881 -210 992 -206 l 881 -210 l 881 -53 q 1038 12 976 -47 q 1100 200 1100 71 l 1100 1011 l 1263 1011 l 1263 196 z "},"Ĺ":{"ha":875,"x_min":139,"x_max":799,"o":"m 139 1011 l 301 1011 l 301 156 l 799 156 l 799 0 l 139 0 l 139 1011 m 450 1261 l 261 1075 l 165 1075 l 278 1261 l 450 1261 z "},"Ľ":{"ha":868,"x_min":139,"x_max":799,"o":"m 139 1011 l 301 1011 l 301 156 l 799 156 l 799 0 l 139 0 l 139 1011 m 622 781 l 543 817 q 590 894 572 844 q 599 993 608 944 l 721 1003 q 717 919 729 964 q 679 838 704 875 q 622 781 654 801 l 622 781 z "},"Ļ":{"ha":875,"x_min":139,"x_max":799,"o":"m 139 1011 l 301 1011 l 301 156 l 799 156 l 799 0 l 139 0 l 139 1011 m 408 -308 l 329 -254 q 375 -171 361 -225 q 381 -67 389 -117 l 517 -68 q 513 -152 524 -106 q 476 -240 501 -199 q 408 -308 450 -282 z "},"Ŀ":{"ha":876,"x_min":139,"x_max":814,"o":"m 139 1011 l 301 1011 l 301 156 l 799 156 l 799 0 l 139 0 l 139 1011 m 647 540 q 674 600 647 575 q 732 625 700 625 q 788 600 761 625 q 814 540 814 575 q 788 478 814 501 q 732 456 761 456 q 674 478 700 456 q 647 540 647 501 l 647 540 z "},"ǈ":{"ha":1254,"x_min":139,"x_max":1164,"o":"m 139 1011 l 301 1011 l 301 156 l 799 156 l 799 0 l 139 0 l 139 1011 m 1003 -283 l 913 -187 q 974 -107 951 -154 q 997 6 997 -60 l 997 588 l 1153 588 l 1153 -3 q 1118 -173 1153 -104 q 1003 -283 1083 -242 m 986 799 q 1015 858 986 835 q 1076 882 1043 882 q 1136 858 1110 882 q 1163 799 1163 835 q 1136 740 1163 763 q 1076 717 1110 717 q 1015 740 1043 717 q 986 799 986 764 z "},"Ł":{"ha":868,"x_min":15,"x_max":799,"o":"m 551 660 l 583 533 l 49 361 l 15 488 l 551 660 m 139 1011 l 301 1011 l 301 156 l 799 156 l 799 0 l 139 0 l 139 1011 z "},"M":{"ha":1299,"x_min":139,"x_max":1160,"o":"m 139 0 l 139 1047 l 140 1047 l 685 276 l 615 292 l 1157 1047 l 1160 1047 l 1160 0 l 999 0 l 999 682 l 1010 600 l 643 82 l 640 82 l 268 600 l 296 675 l 296 0 l 139 0 z "},"N":{"ha":1172,"x_min":139,"x_max":1032,"o":"m 1028 -36 l 251 717 l 299 697 l 303 0 l 139 0 l 139 1046 l 147 1046 l 911 293 l 874 304 l 871 1011 l 1032 1011 l 1032 -36 l 1028 -36 z "},"Ǌ":{"ha":1699,"x_min":139,"x_max":1558,"o":"m 1028 -36 l 251 717 l 299 697 l 303 0 l 139 0 l 139 1046 l 147 1046 l 911 293 l 874 304 l 871 1011 l 1032 1011 l 1032 -36 l 1028 -36 m 1560 196 q 1510 -20 1560 69 q 1375 -158 1461 -110 q 1178 -210 1289 -206 l 1178 -210 l 1178 -53 q 1335 12 1274 -47 q 1397 200 1397 71 l 1397 1011 l 1560 1011 l 1560 196 z "},"Ń":{"ha":1172,"x_min":139,"x_max":1032,"o":"m 1028 -36 l 251 717 l 299 697 l 303 0 l 139 0 l 139 1046 l 147 1046 l 911 293 l 874 304 l 871 1011 l 1032 1011 l 1032 -36 l 1028 -36 m 797 1240 l 608 1054 l 513 1054 l 625 1240 l 797 1240 z "},"Ň":{"ha":1172,"x_min":139,"x_max":1032,"o":"m 1028 -36 l 251 717 l 299 697 l 303 0 l 139 0 l 139 1046 l 147 1046 l 911 293 l 874 304 l 871 1011 l 1032 1011 l 1032 -36 l 1028 -36 m 460 1286 l 582 1164 l 539 1153 l 663 1286 l 804 1286 l 564 1042 l 563 1042 l 318 1286 l 460 1286 z "},"Ņ":{"ha":1172,"x_min":139,"x_max":1032,"o":"m 1028 -36 l 251 717 l 299 697 l 303 0 l 139 0 l 139 1046 l 147 1046 l 911 293 l 874 304 l 871 1011 l 1032 1011 l 1032 -36 l 1028 -36 m 544 -308 l 465 -254 q 511 -171 497 -225 q 517 -67 525 -117 l 653 -68 q 649 -152 660 -106 q 612 -240 638 -199 q 544 -308 586 -282 z "},"Ŋ":{"ha":1118,"x_min":113,"x_max":1006,"o":"m 1000 -36 l 225 718 l 272 697 l 275 0 l 113 0 l 113 1046 l 119 1046 l 883 292 l 847 304 l 843 1011 l 1006 1011 l 1006 0 l 1000 -36 m 1006 51 l 1006 -3 q 969 -168 1006 -97 q 856 -283 932 -239 l 765 -187 q 828 -107 806 -154 q 850 6 850 -60 l 850 196 l 1006 51 z "},"Ɲ":{"ha":1144,"x_min":28,"x_max":1006,"o":"m 1000 -36 l 225 718 l 272 697 l 275 0 l 113 0 l 113 1046 l 119 1046 l 883 293 l 847 304 l 843 1011 l 1006 1011 l 1006 0 l 1000 -36 m 275 51 l 275 -3 q 239 -168 275 -97 q 126 -283 203 -239 l 28 -187 q 90 -107 68 -154 q 113 6 113 -60 l 113 196 l 275 51 z "},"ǋ":{"ha":1551,"x_min":139,"x_max":1461,"o":"m 1028 -36 l 251 717 l 299 697 l 303 0 l 139 0 l 139 1046 l 147 1046 l 911 293 l 874 304 l 871 1011 l 1032 1011 l 1032 -36 l 1028 -36 m 1300 -283 l 1210 -187 q 1272 -107 1249 -154 q 1294 6 1294 -60 l 1294 588 l 1450 588 l 1450 -3 q 1415 -173 1450 -104 q 1300 -283 1381 -242 m 1285 799 q 1313 858 1285 835 q 1375 882 1342 882 q 1435 858 1408 882 q 1461 799 1461 835 q 1435 740 1461 763 q 1375 717 1408 717 q 1313 740 1342 717 q 1285 799 1285 764 z "},"Ñ":{"ha":1172,"x_min":139,"x_max":1032,"o":"m 1028 -36 l 251 717 l 299 697 l 303 0 l 139 0 l 139 1046 l 147 1046 l 911 293 l 874 304 l 871 1011 l 1032 1011 l 1032 -36 l 1028 -36 m 672 1104 q 597 1124 626 1104 q 542 1167 567 1144 q 510 1192 525 1181 q 475 1204 494 1204 q 445 1191 457 1204 q 428 1156 433 1178 q 424 1104 422 1133 l 343 1106 q 353 1205 338 1160 q 403 1277 369 1250 q 483 1304 436 1304 q 546 1285 519 1304 q 596 1246 572 1265 q 633 1214 615 1228 q 669 1200 650 1200 q 705 1230 696 1200 q 714 1304 714 1260 l 794 1303 q 787 1199 801 1244 q 742 1129 772 1154 q 672 1104 711 1104 z "},"O":{"ha":1188,"x_min":76,"x_max":1111,"o":"m 76 504 q 117 703 76 610 q 228 868 157 796 q 392 981 299 940 q 593 1022 486 1022 q 792 981 699 1022 q 958 868 886 940 q 1070 703 1029 796 q 1111 504 1111 610 q 1070 303 1111 397 q 958 139 1029 210 q 792 28 886 68 q 593 -11 699 -11 q 392 28 485 -11 q 228 138 299 68 q 117 302 157 208 q 76 504 76 396 m 243 504 q 270 364 243 429 q 346 249 297 299 q 458 172 394 200 q 597 144 522 144 q 733 172 669 144 q 843 249 796 200 q 917 364 890 299 q 944 504 944 429 q 917 646 944 581 q 842 761 889 711 q 731 839 794 811 q 593 867 667 867 q 456 839 519 867 q 344 761 392 811 q 269 645 296 711 q 243 504 243 579 z "},"Ó":{"ha":1188,"x_min":76,"x_max":1111,"o":"m 76 504 q 117 703 76 610 q 228 868 157 796 q 392 981 299 940 q 593 1022 486 1022 q 792 981 699 1022 q 958 868 886 940 q 1070 703 1029 796 q 1111 504 1111 610 q 1070 303 1111 397 q 958 139 1029 210 q 792 28 886 68 q 593 -11 699 -11 q 392 28 485 -11 q 228 138 299 68 q 117 302 157 208 q 76 504 76 396 m 243 504 q 270 364 243 429 q 346 249 297 299 q 458 172 394 200 q 597 144 522 144 q 733 172 669 144 q 843 249 796 200 q 917 364 890 299 q 944 504 944 429 q 917 646 944 581 q 842 761 889 711 q 731 839 794 811 q 593 867 667 867 q 456 839 519 867 q 344 761 392 811 q 269 645 296 711 q 243 504 243 579 m 826 1250 l 638 1064 l 542 1064 l 654 1250 l 826 1250 z "},"Ŏ":{"ha":1188,"x_min":76,"x_max":1111,"o":"m 76 504 q 117 703 76 610 q 228 868 157 796 q 392 981 299 940 q 593 1022 486 1022 q 792 981 699 1022 q 958 868 886 940 q 1070 703 1029 796 q 1111 504 1111 610 q 1070 303 1111 397 q 958 139 1029 210 q 792 28 886 68 q 593 -11 699 -11 q 392 28 485 -11 q 228 138 299 68 q 117 302 157 208 q 76 504 76 396 m 243 504 q 270 364 243 429 q 346 249 297 299 q 458 172 394 200 q 597 144 522 144 q 733 172 669 144 q 843 249 796 200 q 917 364 890 299 q 944 504 944 429 q 917 646 944 581 q 842 761 889 711 q 731 839 794 811 q 593 867 667 867 q 456 839 519 867 q 344 761 392 811 q 269 645 296 711 q 243 504 243 579 m 594 1069 q 488 1098 533 1069 q 415 1182 443 1126 q 375 1319 388 1238 l 479 1319 q 500 1244 486 1278 q 538 1192 514 1211 q 594 1174 561 1174 q 653 1192 631 1174 q 688 1244 675 1211 q 707 1319 700 1278 l 813 1319 q 772 1180 800 1236 q 700 1097 744 1124 q 594 1069 656 1069 z "},"Ô":{"ha":1188,"x_min":76,"x_max":1111,"o":"m 76 504 q 117 703 76 610 q 228 868 157 796 q 392 981 299 940 q 593 1022 486 1022 q 792 981 699 1022 q 958 868 886 940 q 1070 703 1029 796 q 1111 504 1111 610 q 1070 303 1111 397 q 958 139 1029 210 q 792 28 886 68 q 593 -11 699 -11 q 392 28 485 -11 q 228 138 299 68 q 117 302 157 208 q 76 504 76 396 m 243 504 q 270 364 243 429 q 346 249 297 299 q 458 172 394 200 q 597 144 522 144 q 733 172 669 144 q 843 249 796 200 q 917 364 890 299 q 944 504 944 429 q 917 646 944 581 q 842 761 889 711 q 731 839 794 811 q 593 867 667 867 q 456 839 519 867 q 344 761 392 811 q 269 645 296 711 q 243 504 243 579 m 686 1086 l 565 1208 l 607 1219 l 485 1086 l 342 1086 l 582 1331 l 583 1331 l 828 1086 l 686 1086 z "},"Ố":{"ha":1188,"x_min":76,"x_max":1111,"o":"m 76 504 q 117 703 76 610 q 228 868 157 796 q 392 981 299 940 q 593 1022 486 1022 q 792 981 699 1022 q 958 868 886 940 q 1070 703 1029 796 q 1111 504 1111 610 q 1070 303 1111 397 q 958 139 1029 210 q 792 28 886 68 q 593 -11 699 -11 q 392 28 485 -11 q 228 138 299 68 q 117 302 157 208 q 76 504 76 396 m 243 504 q 270 364 243 429 q 346 249 297 299 q 458 172 394 200 q 597 144 522 144 q 733 172 669 144 q 843 249 796 200 q 917 364 890 299 q 944 504 944 429 q 917 646 944 581 q 842 761 889 711 q 731 839 794 811 q 593 867 667 867 q 456 839 519 867 q 344 761 392 811 q 269 645 296 711 q 243 504 243 579 m 699 1107 l 578 1229 l 619 1240 l 497 1107 l 354 1107 l 594 1351 l 596 1351 l 840 1107 l 699 1107 m 1001 1433 l 813 1247 l 717 1247 l 829 1433 l 1001 1433 z "},"Ộ":{"ha":1188,"x_min":76,"x_max":1111,"o":"m 76 504 q 117 703 76 610 q 228 868 157 796 q 392 981 299 940 q 593 1022 486 1022 q 792 981 699 1022 q 958 868 886 940 q 1070 703 1029 796 q 1111 504 1111 610 q 1070 303 1111 397 q 958 139 1029 210 q 792 28 886 68 q 593 -11 699 -11 q 392 28 485 -11 q 228 138 299 68 q 117 302 157 208 q 76 504 76 396 m 243 504 q 270 364 243 429 q 346 249 297 299 q 458 172 394 200 q 597 144 522 144 q 733 172 669 144 q 843 249 796 200 q 917 364 890 299 q 944 504 944 429 q 917 646 944 581 q 842 761 889 711 q 731 839 794 811 q 593 867 667 867 q 456 839 519 867 q 344 761 392 811 q 269 645 296 711 q 243 504 243 579 m 501 -150 q 530 -90 501 -114 q 592 -67 558 -67 q 651 -90 625 -67 q 678 -150 678 -114 q 651 -209 678 -186 q 592 -232 625 -232 q 530 -208 558 -232 q 501 -150 501 -185 m 686 1086 l 565 1208 l 607 1219 l 485 1086 l 342 1086 l 582 1331 l 583 1331 l 828 1086 l 686 1086 z "},"Ồ":{"ha":1188,"x_min":76,"x_max":1111,"o":"m 76 504 q 117 703 76 610 q 228 868 157 796 q 392 981 299 940 q 593 1022 486 1022 q 792 981 699 1022 q 958 868 886 940 q 1070 703 1029 796 q 1111 504 1111 610 q 1070 303 1111 397 q 958 139 1029 210 q 792 28 886 68 q 593 -11 699 -11 q 392 28 485 -11 q 228 138 299 68 q 117 302 157 208 q 76 504 76 396 m 243 504 q 270 364 243 429 q 346 249 297 299 q 458 172 394 200 q 597 144 522 144 q 733 172 669 144 q 843 249 796 200 q 917 364 890 299 q 944 504 944 429 q 917 646 944 581 q 842 761 889 711 q 731 839 794 811 q 593 867 667 867 q 456 839 519 867 q 344 761 392 811 q 269 645 296 711 q 243 504 243 579 m 689 1104 l 568 1226 l 610 1238 l 488 1104 l 344 1104 l 585 1349 l 586 1349 l 831 1104 l 689 1104 m 142 1440 l 314 1440 l 410 1254 l 313 1254 l 142 1440 z "},"Ổ":{"ha":1188,"x_min":76,"x_max":1111,"o":"m 76 504 q 117 703 76 610 q 228 868 157 796 q 392 981 299 940 q 593 1022 486 1022 q 792 981 699 1022 q 958 868 886 940 q 1070 703 1029 796 q 1111 504 1111 610 q 1070 303 1111 397 q 958 139 1029 210 q 792 28 886 68 q 593 -11 699 -11 q 392 28 485 -11 q 228 138 299 68 q 117 302 157 208 q 76 504 76 396 m 243 504 q 270 364 243 429 q 346 249 297 299 q 458 172 394 200 q 597 144 522 144 q 733 172 669 144 q 843 249 796 200 q 917 364 890 299 q 944 504 944 429 q 917 646 944 581 q 842 761 889 711 q 731 839 794 811 q 593 867 667 867 q 456 839 519 867 q 344 761 392 811 q 269 645 296 711 q 243 504 243 579 m 693 1107 l 572 1229 l 614 1240 l 492 1107 l 349 1107 l 589 1351 l 590 1351 l 835 1107 l 693 1107 m 825 1256 q 867 1292 851 1275 q 883 1335 883 1310 q 873 1369 883 1356 q 840 1383 863 1383 q 806 1372 821 1383 q 781 1342 790 1360 l 724 1378 q 784 1447 747 1425 q 861 1469 821 1469 q 924 1453 900 1469 q 960 1411 949 1438 q 972 1356 972 1385 q 939 1272 972 1306 q 861 1210 906 1238 l 825 1256 z "},"Ỗ":{"ha":1188,"x_min":76,"x_max":1111,"o":"m 76 504 q 117 703 76 610 q 228 868 157 796 q 392 981 299 940 q 593 1022 486 1022 q 792 981 699 1022 q 958 868 886 940 q 1070 703 1029 796 q 1111 504 1111 610 q 1070 303 1111 397 q 958 139 1029 210 q 792 28 886 68 q 593 -11 699 -11 q 392 28 485 -11 q 228 138 299 68 q 117 302 157 208 q 76 504 76 396 m 243 504 q 270 364 243 429 q 346 249 297 299 q 458 172 394 200 q 597 144 522 144 q 733 172 669 144 q 843 249 796 200 q 917 364 890 299 q 944 504 944 429 q 917 646 944 581 q 842 761 889 711 q 731 839 794 811 q 593 867 667 867 q 456 839 519 867 q 344 761 392 811 q 269 645 296 711 q 243 504 243 579 m 686 1100 l 565 1222 l 607 1233 l 485 1100 l 342 1100 l 582 1344 l 583 1344 l 828 1100 l 686 1100 m 694 1382 q 619 1402 649 1382 q 564 1443 589 1422 q 532 1469 547 1458 q 497 1481 517 1481 q 467 1467 479 1481 q 450 1432 456 1454 q 446 1382 444 1410 l 365 1382 q 376 1482 360 1436 q 425 1555 392 1528 q 506 1582 458 1582 q 568 1563 542 1582 q 618 1522 594 1543 q 655 1490 638 1504 q 692 1476 672 1476 q 727 1507 718 1476 q 736 1581 736 1538 l 817 1581 q 809 1477 824 1522 q 764 1407 794 1432 q 694 1382 733 1382 z "},"Ȍ":{"ha":1188,"x_min":76,"x_max":1111,"o":"m 76 504 q 117 703 76 610 q 228 868 157 796 q 392 981 299 940 q 593 1022 486 1022 q 792 981 699 1022 q 958 868 886 940 q 1070 703 1029 796 q 1111 504 1111 610 q 1070 303 1111 397 q 958 139 1029 210 q 792 28 886 68 q 593 -11 699 -11 q 392 28 485 -11 q 228 138 299 68 q 117 302 157 208 q 76 504 76 396 m 243 504 q 270 364 243 429 q 346 249 297 299 q 458 172 394 200 q 597 144 522 144 q 733 172 669 144 q 843 249 796 200 q 917 364 890 299 q 944 504 944 429 q 917 646 944 581 q 842 761 889 711 q 731 839 794 811 q 593 867 667 867 q 456 839 519 867 q 344 761 392 811 q 269 645 296 711 q 243 504 243 579 m 294 1268 l 467 1268 l 563 1082 l 465 1082 l 294 1268 m 508 1268 l 681 1268 l 776 1082 l 679 1082 l 508 1268 z "},"Ö":{"ha":1188,"x_min":76,"x_max":1111,"o":"m 76 504 q 117 703 76 610 q 228 868 157 796 q 392 981 299 940 q 593 1022 486 1022 q 792 981 699 1022 q 958 868 886 940 q 1070 703 1029 796 q 1111 504 1111 610 q 1070 303 1111 397 q 958 139 1029 210 q 792 28 886 68 q 593 -11 699 -11 q 392 28 485 -11 q 228 138 299 68 q 117 302 157 208 q 76 504 76 396 m 243 504 q 270 364 243 429 q 346 249 297 299 q 458 172 394 200 q 597 144 522 144 q 733 172 669 144 q 843 249 796 200 q 917 364 890 299 q 944 504 944 429 q 917 646 944 581 q 842 761 889 711 q 731 839 794 811 q 593 867 667 867 q 456 839 519 867 q 344 761 392 811 q 269 645 296 711 q 243 504 243 579 m 369 1153 q 396 1213 369 1189 q 453 1238 422 1238 q 510 1213 483 1238 q 536 1153 536 1189 q 510 1092 536 1115 q 453 1068 483 1068 q 396 1092 422 1068 q 369 1153 369 1115 l 369 1153 m 636 1153 q 663 1213 636 1189 q 721 1238 689 1238 q 776 1213 750 1238 q 803 1153 803 1189 q 776 1092 803 1115 q 721 1068 750 1068 q 663 1092 689 1068 q 636 1153 636 1115 l 636 1153 z "},"Ȫ":{"ha":1188,"x_min":76,"x_max":1111,"o":"m 76 504 q 117 703 76 610 q 228 868 157 796 q 392 981 299 940 q 593 1022 486 1022 q 792 981 699 1022 q 958 868 886 940 q 1070 703 1029 796 q 1111 504 1111 610 q 1070 303 1111 397 q 958 139 1029 210 q 792 28 886 68 q 593 -11 699 -11 q 392 28 485 -11 q 228 138 299 68 q 117 302 157 208 q 76 504 76 396 m 243 504 q 270 364 243 429 q 346 249 297 299 q 458 172 394 200 q 597 144 522 144 q 733 172 669 144 q 843 249 796 200 q 917 364 890 299 q 944 504 944 429 q 917 646 944 581 q 842 761 889 711 q 731 839 794 811 q 593 867 667 867 q 456 839 519 867 q 344 761 392 811 q 269 645 296 711 q 243 504 243 579 m 369 1153 q 396 1213 369 1189 q 453 1238 422 1238 q 510 1213 483 1238 q 536 1153 536 1189 q 510 1092 536 1115 q 453 1068 483 1068 q 396 1092 422 1068 q 369 1153 369 1115 l 369 1153 m 636 1153 q 663 1213 636 1189 q 721 1238 689 1238 q 776 1213 750 1238 q 803 1153 803 1189 q 776 1092 803 1115 q 721 1068 750 1068 q 663 1092 689 1068 q 636 1153 636 1115 l 636 1153 m 417 1401 l 763 1401 l 763 1292 l 417 1292 l 417 1401 z "},"Ȱ":{"ha":1188,"x_min":76,"x_max":1111,"o":"m 76 504 q 117 703 76 610 q 228 868 157 796 q 392 981 299 940 q 593 1022 486 1022 q 792 981 699 1022 q 958 868 886 940 q 1070 703 1029 796 q 1111 504 1111 610 q 1070 303 1111 397 q 958 139 1029 210 q 792 28 886 68 q 593 -11 699 -11 q 392 28 485 -11 q 228 138 299 68 q 117 302 157 208 q 76 504 76 396 m 243 504 q 270 364 243 429 q 346 249 297 299 q 458 172 394 200 q 597 144 522 144 q 733 172 669 144 q 843 249 796 200 q 917 364 890 299 q 944 504 944 429 q 917 646 944 581 q 842 761 889 711 q 731 839 794 811 q 593 867 667 867 q 456 839 519 867 q 344 761 392 811 q 269 645 296 711 q 243 504 243 579 m 506 1149 q 534 1208 506 1185 q 596 1232 563 1232 q 656 1208 629 1232 q 682 1149 682 1185 q 656 1090 682 1113 q 596 1067 629 1067 q 534 1090 563 1067 q 506 1149 506 1114 m 417 1396 l 763 1396 l 763 1286 l 417 1286 l 417 1396 z "},"Ọ":{"ha":1188,"x_min":76,"x_max":1111,"o":"m 76 504 q 117 703 76 610 q 228 868 157 796 q 392 981 299 940 q 593 1022 486 1022 q 792 981 699 1022 q 958 868 886 940 q 1070 703 1029 796 q 1111 504 1111 610 q 1070 303 1111 397 q 958 139 1029 210 q 792 28 886 68 q 593 -11 699 -11 q 392 28 485 -11 q 228 138 299 68 q 117 302 157 208 q 76 504 76 396 m 243 504 q 270 364 243 429 q 346 249 297 299 q 458 172 394 200 q 597 144 522 144 q 733 172 669 144 q 843 249 796 200 q 917 364 890 299 q 944 504 944 429 q 917 646 944 581 q 842 761 889 711 q 731 839 794 811 q 593 867 667 867 q 456 839 519 867 q 344 761 392 811 q 269 645 296 711 q 243 504 243 579 m 501 -150 q 530 -90 501 -114 q 592 -67 558 -67 q 651 -90 625 -67 q 678 -150 678 -114 q 651 -209 678 -186 q 592 -232 625 -232 q 530 -208 558 -232 q 501 -150 501 -185 z "},"Ò":{"ha":1188,"x_min":76,"x_max":1111,"o":"m 76 504 q 117 703 76 610 q 228 868 157 796 q 392 981 299 940 q 593 1022 486 1022 q 792 981 699 1022 q 958 868 886 940 q 1070 703 1029 796 q 1111 504 1111 610 q 1070 303 1111 397 q 958 139 1029 210 q 792 28 886 68 q 593 -11 699 -11 q 392 28 485 -11 q 228 138 299 68 q 117 302 157 208 q 76 504 76 396 m 243 504 q 270 364 243 429 q 346 249 297 299 q 458 172 394 200 q 597 144 522 144 q 733 172 669 144 q 843 249 796 200 q 917 364 890 299 q 944 504 944 429 q 917 646 944 581 q 842 761 889 711 q 731 839 794 811 q 593 867 667 867 q 456 839 519 867 q 344 761 392 811 q 269 645 296 711 q 243 504 243 579 m 364 1258 l 536 1258 l 632 1072 l 535 1072 l 364 1258 z "},"Ỏ":{"ha":1188,"x_min":76,"x_max":1111,"o":"m 76 504 q 117 703 76 610 q 228 868 157 796 q 392 981 299 940 q 593 1022 486 1022 q 792 981 699 1022 q 958 868 886 940 q 1070 703 1029 796 q 1111 504 1111 610 q 1070 303 1111 397 q 958 139 1029 210 q 792 28 886 68 q 593 -11 699 -11 q 392 28 485 -11 q 228 138 299 68 q 117 302 157 208 q 76 504 76 396 m 243 504 q 270 364 243 429 q 346 249 297 299 q 458 172 394 200 q 597 144 522 144 q 733 172 669 144 q 843 249 796 200 q 917 364 890 299 q 944 504 944 429 q 917 646 944 581 q 842 761 889 711 q 731 839 794 811 q 593 867 667 867 q 456 839 519 867 q 344 761 392 811 q 269 645 296 711 q 243 504 243 579 m 582 1124 q 624 1160 608 1143 q 640 1203 640 1178 q 630 1238 640 1224 q 597 1251 619 1251 q 563 1240 578 1251 q 538 1210 547 1228 l 481 1246 q 541 1315 504 1293 q 618 1338 578 1338 q 681 1322 657 1338 q 717 1279 706 1306 q 729 1224 729 1253 q 696 1140 729 1174 q 618 1078 663 1106 l 582 1124 z "},"Ơ":{"ha":1188,"x_min":76,"x_max":1111,"o":"m 76 504 q 117 703 76 610 q 228 868 157 796 q 392 981 299 940 q 593 1022 486 1022 q 792 981 699 1022 q 958 868 886 940 q 1070 703 1029 796 q 1111 504 1111 610 q 1070 303 1111 397 q 958 139 1029 210 q 792 28 886 68 q 593 -11 699 -11 q 392 28 485 -11 q 228 138 299 68 q 117 302 157 208 q 76 504 76 396 m 243 504 q 270 364 243 429 q 346 249 297 299 q 458 172 394 200 q 597 144 522 144 q 733 172 669 144 q 843 249 796 200 q 917 364 890 299 q 944 504 944 429 q 917 646 944 581 q 842 761 889 711 q 731 839 794 811 q 593 867 667 867 q 456 839 519 867 q 344 761 392 811 q 269 645 296 711 q 243 504 243 579 m 693 1013 q 769 1037 747 1013 q 800 1129 790 1061 l 915 1129 q 874 994 903 1040 q 800 933 846 949 q 693 918 754 918 l 693 1013 z "},"Ớ":{"ha":1188,"x_min":76,"x_max":1111,"o":"m 76 504 q 117 703 76 610 q 228 868 157 796 q 392 981 299 940 q 593 1022 486 1022 q 792 981 699 1022 q 958 868 886 940 q 1070 703 1029 796 q 1111 504 1111 610 q 1070 303 1111 397 q 958 139 1029 210 q 792 28 886 68 q 593 -11 699 -11 q 392 28 485 -11 q 228 138 299 68 q 117 302 157 208 q 76 504 76 396 m 243 504 q 270 364 243 429 q 346 249 297 299 q 458 172 394 200 q 597 144 522 144 q 733 172 669 144 q 843 249 796 200 q 917 364 890 299 q 944 504 944 429 q 917 646 944 581 q 842 761 889 711 q 731 839 794 811 q 593 867 667 867 q 456 839 519 867 q 344 761 392 811 q 269 645 296 711 q 243 504 243 579 m 693 1013 q 769 1037 747 1013 q 800 1129 790 1061 l 915 1129 q 874 994 903 1040 q 800 933 846 949 q 693 918 754 918 l 693 1013 m 826 1250 l 638 1064 l 542 1064 l 654 1250 l 826 1250 z "},"Ợ":{"ha":1188,"x_min":76,"x_max":1111,"o":"m 76 504 q 117 703 76 610 q 228 868 157 796 q 392 981 299 940 q 593 1022 486 1022 q 792 981 699 1022 q 958 868 886 940 q 1070 703 1029 796 q 1111 504 1111 610 q 1070 303 1111 397 q 958 139 1029 210 q 792 28 886 68 q 593 -11 699 -11 q 392 28 485 -11 q 228 138 299 68 q 117 302 157 208 q 76 504 76 396 m 243 504 q 270 364 243 429 q 346 249 297 299 q 458 172 394 200 q 597 144 522 144 q 733 172 669 144 q 843 249 796 200 q 917 364 890 299 q 944 504 944 429 q 917 646 944 581 q 842 761 889 711 q 731 839 794 811 q 593 867 667 867 q 456 839 519 867 q 344 761 392 811 q 269 645 296 711 q 243 504 243 579 m 693 1013 q 769 1037 747 1013 q 800 1129 790 1061 l 915 1129 q 874 994 903 1040 q 800 933 846 949 q 693 918 754 918 l 693 1013 m 501 -150 q 530 -90 501 -114 q 592 -67 558 -67 q 651 -90 625 -67 q 678 -150 678 -114 q 651 -209 678 -186 q 592 -232 625 -232 q 530 -208 558 -232 q 501 -150 501 -185 z "},"Ờ":{"ha":1188,"x_min":76,"x_max":1111,"o":"m 76 504 q 117 703 76 610 q 228 868 157 796 q 392 981 299 940 q 593 1022 486 1022 q 792 981 699 1022 q 958 868 886 940 q 1070 703 1029 796 q 1111 504 1111 610 q 1070 303 1111 397 q 958 139 1029 210 q 792 28 886 68 q 593 -11 699 -11 q 392 28 485 -11 q 228 138 299 68 q 117 302 157 208 q 76 504 76 396 m 243 504 q 270 364 243 429 q 346 249 297 299 q 458 172 394 200 q 597 144 522 144 q 733 172 669 144 q 843 249 796 200 q 917 364 890 299 q 944 504 944 429 q 917 646 944 581 q 842 761 889 711 q 731 839 794 811 q 593 867 667 867 q 456 839 519 867 q 344 761 392 811 q 269 645 296 711 q 243 504 243 579 m 693 1013 q 769 1037 747 1013 q 800 1129 790 1061 l 915 1129 q 874 994 903 1040 q 800 933 846 949 q 693 918 754 918 l 693 1013 m 401 1258 l 574 1258 l 669 1072 l 572 1072 l 401 1258 z "},"Ở":{"ha":1188,"x_min":76,"x_max":1111,"o":"m 76 504 q 117 703 76 610 q 228 868 157 796 q 392 981 299 940 q 593 1022 486 1022 q 792 981 699 1022 q 958 868 886 940 q 1070 703 1029 796 q 1111 504 1111 610 q 1070 303 1111 397 q 958 139 1029 210 q 792 28 886 68 q 593 -11 699 -11 q 392 28 485 -11 q 228 138 299 68 q 117 302 157 208 q 76 504 76 396 m 243 504 q 270 364 243 429 q 346 249 297 299 q 458 172 394 200 q 597 144 522 144 q 733 172 669 144 q 843 249 796 200 q 917 364 890 299 q 944 504 944 429 q 917 646 944 581 q 842 761 889 711 q 731 839 794 811 q 593 867 667 867 q 456 839 519 867 q 344 761 392 811 q 269 645 296 711 q 243 504 243 579 m 693 1013 q 769 1037 747 1013 q 800 1129 790 1061 l 915 1129 q 874 994 903 1040 q 800 933 846 949 q 693 918 754 918 l 693 1013 m 582 1124 q 624 1160 608 1143 q 640 1203 640 1178 q 630 1238 640 1224 q 597 1251 619 1251 q 563 1240 578 1251 q 538 1210 547 1228 l 481 1246 q 541 1315 504 1293 q 618 1338 578 1338 q 681 1322 657 1338 q 717 1279 706 1306 q 729 1224 729 1253 q 696 1140 729 1174 q 618 1078 663 1106 l 582 1124 z "},"Ỡ":{"ha":1188,"x_min":76,"x_max":1111,"o":"m 76 504 q 117 703 76 610 q 228 868 157 796 q 392 981 299 940 q 593 1022 486 1022 q 792 981 699 1022 q 958 868 886 940 q 1070 703 1029 796 q 1111 504 1111 610 q 1070 303 1111 397 q 958 139 1029 210 q 792 28 886 68 q 593 -11 699 -11 q 392 28 485 -11 q 228 138 299 68 q 117 302 157 208 q 76 504 76 396 m 243 504 q 270 364 243 429 q 346 249 297 299 q 458 172 394 200 q 597 144 522 144 q 733 172 669 144 q 843 249 796 200 q 917 364 890 299 q 944 504 944 429 q 917 646 944 581 q 842 761 889 711 q 731 839 794 811 q 593 867 667 867 q 456 839 519 867 q 344 761 392 811 q 269 645 296 711 q 243 504 243 579 m 693 1013 q 769 1037 747 1013 q 800 1129 790 1061 l 915 1129 q 874 994 903 1040 q 800 933 846 949 q 693 918 754 918 l 693 1013 m 700 1114 q 624 1134 654 1114 q 569 1176 594 1154 q 538 1202 553 1190 q 503 1214 522 1214 q 473 1201 485 1214 q 456 1165 461 1188 q 451 1114 450 1143 l 371 1115 q 381 1215 365 1169 q 431 1287 397 1260 q 511 1314 464 1314 q 574 1294 547 1314 q 624 1256 600 1275 q 660 1224 643 1238 q 697 1210 678 1210 q 733 1240 724 1210 q 742 1314 742 1269 l 822 1313 q 815 1209 829 1254 q 769 1139 800 1164 q 700 1114 739 1114 z "},"Ő":{"ha":1188,"x_min":76,"x_max":1111,"o":"m 76 504 q 117 703 76 610 q 228 868 157 796 q 392 981 299 940 q 593 1022 486 1022 q 792 981 699 1022 q 958 868 886 940 q 1070 703 1029 796 q 1111 504 1111 610 q 1070 303 1111 397 q 958 139 1029 210 q 792 28 886 68 q 593 -11 699 -11 q 392 28 485 -11 q 228 138 299 68 q 117 302 157 208 q 76 504 76 396 m 243 504 q 270 364 243 429 q 346 249 297 299 q 458 172 394 200 q 597 144 522 144 q 733 172 669 144 q 843 249 796 200 q 917 364 890 299 q 944 504 944 429 q 917 646 944 581 q 842 761 889 711 q 731 839 794 811 q 593 867 667 867 q 456 839 519 867 q 344 761 392 811 q 269 645 296 711 q 243 504 243 579 m 672 1264 l 483 1078 l 388 1078 l 500 1264 l 672 1264 m 899 1261 l 710 1075 l 614 1075 l 726 1261 l 899 1261 z "},"Ȏ":{"ha":1188,"x_min":76,"x_max":1111,"o":"m 76 504 q 117 703 76 610 q 228 868 157 796 q 392 981 299 940 q 593 1022 486 1022 q 792 981 699 1022 q 958 868 886 940 q 1070 703 1029 796 q 1111 504 1111 610 q 1070 303 1111 397 q 958 139 1029 210 q 792 28 886 68 q 593 -11 699 -11 q 392 28 485 -11 q 228 138 299 68 q 117 302 157 208 q 76 504 76 396 m 243 504 q 270 364 243 429 q 346 249 297 299 q 458 172 394 200 q 597 144 522 144 q 733 172 669 144 q 843 249 796 200 q 917 364 890 299 q 944 504 944 429 q 917 646 944 581 q 842 761 889 711 q 731 839 794 811 q 593 867 667 867 q 456 839 519 867 q 344 761 392 811 q 269 645 296 711 q 243 504 243 579 m 588 1285 q 693 1256 649 1285 q 766 1172 738 1228 q 807 1033 794 1115 l 701 1033 q 682 1110 696 1076 q 645 1161 668 1143 q 588 1179 622 1179 q 530 1161 553 1179 q 494 1110 507 1143 q 474 1033 481 1076 l 369 1033 q 409 1174 381 1118 q 482 1257 438 1229 q 588 1285 526 1285 z "},"Ō":{"ha":1188,"x_min":76,"x_max":1111,"o":"m 76 504 q 117 703 76 610 q 228 868 157 796 q 392 981 299 940 q 593 1022 486 1022 q 792 981 699 1022 q 958 868 886 940 q 1070 703 1029 796 q 1111 504 1111 610 q 1070 303 1111 397 q 958 139 1029 210 q 792 28 886 68 q 593 -11 699 -11 q 392 28 485 -11 q 228 138 299 68 q 117 302 157 208 q 76 504 76 396 m 243 504 q 270 364 243 429 q 346 249 297 299 q 458 172 394 200 q 597 144 522 144 q 733 172 669 144 q 843 249 796 200 q 917 364 890 299 q 944 504 944 429 q 917 646 944 581 q 842 761 889 711 q 731 839 794 811 q 593 867 667 867 q 456 839 519 867 q 344 761 392 811 q 269 645 296 711 q 243 504 243 579 m 417 1185 l 763 1185 l 763 1075 l 417 1075 l 417 1185 z "},"Ǫ":{"ha":1188,"x_min":76,"x_max":1111,"o":"m 593 -11 q 392 28 485 -11 q 228 138 299 68 q 117 302 157 208 q 76 504 76 396 q 117 703 76 610 q 228 868 157 796 q 392 981 299 940 q 593 1022 486 1022 q 792 981 699 1022 q 958 868 886 940 q 1070 703 1029 796 q 1111 504 1111 610 q 1083 323 1111 401 q 1010 188 1054 244 q 915 89 967 131 q 835 27 875 54 q 762 -24 794 0 q 710 -74 729 -49 q 690 -132 690 -99 q 710 -183 690 -169 q 756 -197 731 -197 q 808 -181 783 -197 q 851 -131 832 -164 l 910 -211 q 834 -281 882 -253 q 742 -308 786 -308 q 615 -269 667 -308 q 563 -157 563 -229 q 578 -90 563 -121 q 624 -33 594 -58 q 690 7 653 -8 l 832 54 q 719 6 779 24 q 593 -11 658 -11 m 597 146 q 733 174 671 146 q 843 250 796 201 q 917 364 890 299 q 944 504 944 429 q 917 643 944 578 q 842 758 889 708 q 731 835 794 807 q 593 863 667 863 q 456 835 519 863 q 344 757 392 807 q 269 642 296 707 q 243 504 243 576 q 270 365 243 431 q 346 251 297 300 q 459 174 394 201 q 597 146 524 146 z "},"Ø":{"ha":1192,"x_min":76,"x_max":1111,"o":"m 1056 947 l 222 -25 l 119 68 l 956 1040 l 1056 947 m 76 504 q 117 703 76 610 q 228 868 157 796 q 392 981 299 940 q 593 1022 486 1022 q 792 981 699 1022 q 958 868 886 940 q 1070 703 1029 796 q 1111 504 1111 610 q 1070 303 1111 397 q 958 139 1029 210 q 792 28 886 68 q 593 -11 699 -11 q 392 28 485 -11 q 228 138 299 68 q 117 302 157 208 q 76 504 76 396 m 243 504 q 270 364 243 429 q 346 249 297 299 q 458 172 394 200 q 597 144 522 144 q 733 172 669 144 q 843 249 796 200 q 917 364 890 299 q 944 504 944 429 q 917 646 944 581 q 842 761 889 711 q 731 839 794 811 q 593 867 667 867 q 456 839 519 867 q 344 761 392 811 q 269 645 296 711 q 243 504 243 579 z "},"Ǿ":{"ha":1192,"x_min":76,"x_max":1111,"o":"m 1056 947 l 222 -25 l 119 68 l 956 1040 l 1056 947 m 76 504 q 117 703 76 610 q 228 868 157 796 q 392 981 299 940 q 593 1022 486 1022 q 792 981 699 1022 q 958 868 886 940 q 1070 703 1029 796 q 1111 504 1111 610 q 1070 303 1111 397 q 958 139 1029 210 q 792 28 886 68 q 593 -11 699 -11 q 392 28 485 -11 q 228 138 299 68 q 117 302 157 208 q 76 504 76 396 m 243 504 q 270 364 243 429 q 346 249 297 299 q 458 172 394 200 q 597 144 522 144 q 733 172 669 144 q 843 249 796 200 q 917 364 890 299 q 944 504 944 429 q 917 646 944 581 q 842 761 889 711 q 731 839 794 811 q 593 867 667 867 q 456 839 519 867 q 344 761 392 811 q 269 645 296 711 q 243 504 243 579 m 825 1250 l 636 1064 l 540 1064 l 653 1250 l 825 1250 z "},"Õ":{"ha":1188,"x_min":76,"x_max":1111,"o":"m 76 504 q 117 703 76 610 q 228 868 157 796 q 392 981 299 940 q 593 1022 486 1022 q 792 981 699 1022 q 958 868 886 940 q 1070 703 1029 796 q 1111 504 1111 610 q 1070 303 1111 397 q 958 139 1029 210 q 792 28 886 68 q 593 -11 699 -11 q 392 28 485 -11 q 228 138 299 68 q 117 302 157 208 q 76 504 76 396 m 243 504 q 270 364 243 429 q 346 249 297 299 q 458 172 394 200 q 597 144 522 144 q 733 172 669 144 q 843 249 796 200 q 917 364 890 299 q 944 504 944 429 q 917 646 944 581 q 842 761 889 711 q 731 839 794 811 q 593 867 667 867 q 456 839 519 867 q 344 761 392 811 q 269 645 296 711 q 243 504 243 579 m 700 1114 q 624 1134 654 1114 q 569 1176 594 1154 q 538 1202 553 1190 q 503 1214 522 1214 q 473 1201 485 1214 q 456 1165 461 1188 q 451 1114 450 1143 l 371 1115 q 381 1215 365 1169 q 431 1287 397 1260 q 511 1314 464 1314 q 574 1294 547 1314 q 624 1256 600 1275 q 660 1224 643 1238 q 697 1210 678 1210 q 733 1240 724 1210 q 742 1314 742 1269 l 822 1313 q 815 1209 829 1254 q 769 1139 800 1164 q 700 1114 739 1114 z "},"Ȭ":{"ha":1188,"x_min":76,"x_max":1111,"o":"m 76 504 q 117 703 76 610 q 228 868 157 796 q 392 981 299 940 q 593 1022 486 1022 q 792 981 699 1022 q 958 868 886 940 q 1070 703 1029 796 q 1111 504 1111 610 q 1070 303 1111 397 q 958 139 1029 210 q 792 28 886 68 q 593 -11 699 -11 q 392 28 485 -11 q 228 138 299 68 q 117 302 157 208 q 76 504 76 396 m 243 504 q 270 364 243 429 q 346 249 297 299 q 458 172 394 200 q 597 144 522 144 q 733 172 669 144 q 843 249 796 200 q 917 364 890 299 q 944 504 944 429 q 917 646 944 581 q 842 761 889 711 q 731 839 794 811 q 593 867 667 867 q 456 839 519 867 q 344 761 392 811 q 269 645 296 711 q 243 504 243 579 m 700 1114 q 624 1134 654 1114 q 569 1176 594 1154 q 538 1202 553 1190 q 503 1214 522 1214 q 473 1201 485 1214 q 456 1165 461 1188 q 451 1114 450 1143 l 371 1115 q 381 1215 365 1169 q 431 1287 397 1260 q 511 1314 464 1314 q 574 1294 547 1314 q 624 1256 600 1275 q 660 1224 643 1238 q 697 1210 678 1210 q 733 1240 724 1210 q 742 1314 742 1269 l 822 1313 q 815 1209 829 1254 q 769 1139 800 1164 q 700 1114 739 1114 m 417 1507 l 763 1507 l 763 1397 l 417 1397 l 417 1507 z "},"Œ":{"ha":1414,"x_min":89,"x_max":1319,"o":"m 681 853 q 644 860 663 858 q 604 863 625 863 q 469 835 532 863 q 358 758 406 807 q 282 643 310 708 q 254 504 254 578 q 282 365 254 431 q 358 251 310 300 q 472 174 407 201 q 610 146 536 146 q 686 154 649 146 l 731 6 q 668 -7 700 -3 q 603 -11 636 -11 q 403 28 497 -11 q 239 139 310 68 q 128 303 168 210 q 89 504 89 397 q 128 703 89 610 q 239 868 168 796 q 403 981 310 940 q 603 1022 497 1022 q 671 1017 638 1022 q 735 1004 704 1013 l 681 853 m 671 1011 l 1300 1011 l 1300 861 l 838 861 l 838 583 l 1244 583 l 1244 431 l 838 431 l 838 154 l 1319 154 l 1319 0 l 671 0 l 671 1011 z "},"P":{"ha":849,"x_min":139,"x_max":792,"o":"m 425 1011 q 622 972 540 1011 q 748 861 704 933 q 792 686 792 789 q 773 567 792 626 q 715 458 754 507 q 609 381 675 410 q 447 351 543 351 l 301 351 l 301 0 l 139 0 l 139 1011 l 425 1011 m 447 507 q 536 525 500 507 q 592 571 572 543 q 622 629 613 599 q 631 683 631 660 q 622 737 631 707 q 594 794 614 767 q 540 838 575 821 q 451 856 506 856 l 301 856 l 301 507 l 447 507 z "},"Þ":{"ha":849,"x_min":139,"x_max":792,"o":"m 456 831 q 602 809 539 831 q 707 746 665 788 q 770 644 749 704 q 792 506 792 583 q 774 386 792 446 q 719 278 757 326 q 618 200 682 229 q 458 171 554 171 l 306 171 l 306 0 l 139 0 l 139 1006 l 306 1006 l 306 831 l 456 831 m 442 326 q 526 342 492 326 q 582 383 560 357 q 615 440 604 408 q 625 503 625 471 q 607 584 625 544 q 549 649 589 624 q 443 675 510 675 l 306 675 l 306 326 l 442 326 z "},"Q":{"ha":1236,"x_min":76,"x_max":1158,"o":"m 825 157 l 1158 157 l 1158 0 l 613 0 l 825 157 m 76 504 q 117 703 76 610 q 228 868 157 796 q 392 981 299 940 q 593 1022 486 1022 q 792 981 699 1022 q 958 868 886 940 q 1070 703 1029 796 q 1111 504 1111 610 q 1070 303 1111 397 q 958 139 1029 210 q 792 28 886 68 q 593 -11 699 -11 q 392 28 485 -11 q 228 138 299 68 q 117 302 157 208 q 76 504 76 396 m 243 504 q 270 365 243 431 q 346 251 297 300 q 458 174 394 201 q 597 146 522 146 q 733 174 669 146 q 843 250 796 201 q 917 364 890 299 q 944 504 944 429 q 917 643 944 578 q 842 758 889 708 q 731 835 794 807 q 593 863 667 863 q 456 835 519 863 q 344 757 392 807 q 269 642 296 707 q 243 504 243 576 z "},"R":{"ha":931,"x_min":139,"x_max":879,"o":"m 424 1011 q 576 990 507 1011 q 694 926 646 968 q 770 824 743 885 q 797 686 797 764 q 779 567 797 626 q 720 459 761 507 q 613 381 679 411 q 447 351 546 351 l 301 351 l 301 0 l 139 0 l 139 1011 l 424 1011 m 446 507 q 536 524 500 507 q 592 568 572 542 q 622 624 613 594 q 631 681 631 654 q 622 735 631 706 q 594 792 614 765 q 539 838 574 819 q 451 856 504 856 l 301 856 l 301 507 l 446 507 m 621 411 l 879 0 l 692 0 l 428 407 l 621 411 z "},"Ŕ":{"ha":931,"x_min":139,"x_max":879,"o":"m 424 1011 q 576 990 507 1011 q 694 926 646 968 q 770 824 743 885 q 797 686 797 764 q 779 567 797 626 q 720 459 761 507 q 613 381 679 411 q 447 351 546 351 l 301 351 l 301 0 l 139 0 l 139 1011 l 424 1011 m 446 507 q 536 524 500 507 q 592 568 572 542 q 622 624 613 594 q 631 681 631 654 q 622 735 631 706 q 594 792 614 765 q 539 838 574 819 q 451 856 504 856 l 301 856 l 301 507 l 446 507 m 621 411 l 879 0 l 692 0 l 428 407 l 621 411 m 660 1261 l 471 1075 l 375 1075 l 488 1261 l 660 1261 z "},"Ř":{"ha":931,"x_min":139,"x_max":879,"o":"m 424 1011 q 576 990 507 1011 q 694 926 646 968 q 770 824 743 885 q 797 686 797 764 q 779 567 797 626 q 720 459 761 507 q 613 381 679 411 q 447 351 546 351 l 301 351 l 301 0 l 139 0 l 139 1011 l 424 1011 m 446 507 q 536 524 500 507 q 592 568 572 542 q 622 624 613 594 q 631 681 631 654 q 622 735 631 706 q 594 792 614 765 q 539 838 574 819 q 451 856 504 856 l 301 856 l 301 507 l 446 507 m 621 411 l 879 0 l 692 0 l 428 407 l 621 411 m 324 1308 l 446 1186 l 403 1175 l 526 1308 l 668 1308 l 428 1064 l 426 1064 l 182 1308 l 324 1308 z "},"Ŗ":{"ha":931,"x_min":139,"x_max":879,"o":"m 424 1011 q 576 990 507 1011 q 694 926 646 968 q 770 824 743 885 q 797 686 797 764 q 779 567 797 626 q 720 459 761 507 q 613 381 679 411 q 447 351 546 351 l 301 351 l 301 0 l 139 0 l 139 1011 l 424 1011 m 446 507 q 536 524 500 507 q 592 568 572 542 q 622 624 613 594 q 631 681 631 654 q 622 735 631 706 q 594 792 614 765 q 539 838 574 819 q 451 856 504 856 l 301 856 l 301 507 l 446 507 m 621 411 l 879 0 l 692 0 l 428 407 l 621 411 m 429 -308 l 350 -254 q 396 -171 382 -225 q 401 -67 410 -117 l 538 -68 q 533 -152 544 -106 q 497 -240 522 -199 q 429 -308 471 -282 z "},"Ȑ":{"ha":931,"x_min":129,"x_max":879,"o":"m 424 1011 q 576 990 507 1011 q 694 926 646 968 q 770 824 743 885 q 797 686 797 764 q 779 567 797 626 q 720 459 761 507 q 613 381 679 411 q 447 351 546 351 l 301 351 l 301 0 l 139 0 l 139 1011 l 424 1011 m 446 507 q 536 524 500 507 q 592 568 572 542 q 622 624 613 594 q 631 681 631 654 q 622 735 631 706 q 594 792 614 765 q 539 838 574 819 q 451 856 504 856 l 301 856 l 301 507 l 446 507 m 621 411 l 879 0 l 692 0 l 428 407 l 621 411 m 129 1279 l 301 1279 l 397 1093 l 300 1093 l 129 1279 m 342 1279 l 514 1279 l 610 1093 l 513 1093 l 342 1279 z "},"Ȓ":{"ha":931,"x_min":139,"x_max":879,"o":"m 424 1011 q 576 990 507 1011 q 694 926 646 968 q 770 824 743 885 q 797 686 797 764 q 779 567 797 626 q 720 459 761 507 q 613 381 679 411 q 447 351 546 351 l 301 351 l 301 0 l 139 0 l 139 1011 l 424 1011 m 446 507 q 536 524 500 507 q 592 568 572 542 q 622 624 613 594 q 631 681 631 654 q 622 735 631 706 q 594 792 614 765 q 539 838 574 819 q 451 856 504 856 l 301 856 l 301 507 l 446 507 m 621 411 l 879 0 l 692 0 l 428 407 l 621 411 m 421 1296 q 526 1267 482 1296 q 599 1183 571 1239 q 640 1044 628 1126 l 535 1044 q 515 1121 529 1088 q 478 1172 501 1154 q 421 1190 456 1190 q 363 1172 386 1190 q 327 1121 340 1154 q 307 1044 314 1088 l 203 1044 q 242 1185 214 1129 q 315 1268 271 1240 q 421 1296 360 1296 z "},"S":{"ha":808,"x_min":58,"x_max":733,"o":"m 669 806 q 554 853 615 833 q 438 874 493 874 q 319 840 363 874 q 275 749 275 807 q 305 676 275 707 q 383 622 335 644 q 483 578 431 599 q 574 538 529 561 q 656 482 619 515 q 713 399 692 449 q 733 278 733 350 q 694 133 733 199 q 579 28 654 67 q 397 -11 504 -11 q 273 3 333 -11 q 158 41 213 17 q 58 96 104 65 l 131 222 q 207 176 164 197 q 296 143 250 156 q 382 131 342 131 q 467 145 425 131 q 538 192 510 160 q 567 276 567 224 q 542 350 567 319 q 478 403 518 381 q 390 444 438 426 q 294 485 343 463 q 203 540 246 507 q 135 619 161 572 q 108 736 108 667 q 147 881 108 819 q 255 978 186 942 q 414 1017 324 1014 q 597 991 521 1017 q 731 929 672 965 l 669 806 z "},"Ś":{"ha":808,"x_min":58,"x_max":733,"o":"m 669 806 q 554 853 615 833 q 438 874 493 874 q 319 840 363 874 q 275 749 275 807 q 305 676 275 707 q 383 622 335 644 q 483 578 431 599 q 574 538 529 561 q 656 482 619 515 q 713 399 692 449 q 733 278 733 350 q 694 133 733 199 q 579 28 654 67 q 397 -11 504 -11 q 273 3 333 -11 q 158 41 213 17 q 58 96 104 65 l 131 222 q 207 176 164 197 q 296 143 250 156 q 382 131 342 131 q 467 145 425 131 q 538 192 510 160 q 567 276 567 224 q 542 350 567 319 q 478 403 518 381 q 390 444 438 426 q 294 485 343 463 q 203 540 246 507 q 135 619 161 572 q 108 736 108 667 q 147 881 108 819 q 255 978 186 942 q 414 1017 324 1014 q 597 991 521 1017 q 731 929 672 965 l 669 806 m 635 1246 l 446 1060 l 350 1060 l 463 1246 l 635 1246 z "},"Š":{"ha":808,"x_min":58,"x_max":733,"o":"m 669 806 q 554 853 615 833 q 438 874 493 874 q 319 840 363 874 q 275 749 275 807 q 305 676 275 707 q 383 622 335 644 q 483 578 431 599 q 574 538 529 561 q 656 482 619 515 q 713 399 692 449 q 733 278 733 350 q 694 133 733 199 q 579 28 654 67 q 397 -11 504 -11 q 273 3 333 -11 q 158 41 213 17 q 58 96 104 65 l 131 222 q 207 176 164 197 q 296 143 250 156 q 382 131 342 131 q 467 145 425 131 q 538 192 510 160 q 567 276 567 224 q 542 350 567 319 q 478 403 518 381 q 390 444 438 426 q 294 485 343 463 q 203 540 246 507 q 135 619 161 572 q 108 736 108 667 q 147 881 108 819 q 255 978 186 942 q 414 1017 324 1014 q 597 991 521 1017 q 731 929 672 965 l 669 806 m 297 1293 l 419 1171 l 376 1160 l 500 1293 l 642 1293 l 401 1049 l 400 1049 l 156 1293 l 297 1293 z "},"Ş":{"ha":808,"x_min":58,"x_max":733,"o":"m 669 806 q 554 853 615 833 q 438 874 493 874 q 319 840 363 874 q 275 749 275 807 q 305 676 275 707 q 383 622 335 644 q 483 578 431 599 q 574 538 529 561 q 656 482 619 515 q 713 399 692 449 q 733 278 733 350 q 694 133 733 199 q 579 28 654 67 q 397 -11 504 -11 q 273 3 333 -11 q 158 41 213 17 q 58 96 104 65 l 131 222 q 207 176 164 197 q 296 143 250 156 q 382 131 342 131 q 467 145 425 131 q 538 192 510 160 q 567 276 567 224 q 542 350 567 319 q 478 403 518 381 q 390 444 438 426 q 294 485 343 463 q 203 540 246 507 q 135 619 161 572 q 108 736 108 667 q 147 881 108 819 q 255 978 186 942 q 414 1017 324 1014 q 597 991 521 1017 q 731 929 672 965 l 669 806 m 289 -215 q 327 -241 304 -231 q 378 -251 350 -251 q 438 -237 410 -251 q 465 -194 465 -222 q 448 -156 465 -174 q 382 -137 431 -137 q 336 -143 360 -137 q 294 -154 313 -149 l 269 -81 l 365 3 l 485 -1 l 382 -118 l 350 -81 q 384 -72 365 -75 q 421 -68 403 -69 q 546 -98 496 -67 q 596 -192 596 -129 q 567 -272 596 -240 q 492 -319 538 -304 q 394 -335 447 -335 q 301 -318 339 -335 q 240 -278 264 -301 l 289 -215 z "},"Ŝ":{"ha":808,"x_min":58,"x_max":733,"o":"m 669 806 q 554 853 615 833 q 438 874 493 874 q 319 840 363 874 q 275 749 275 807 q 305 676 275 707 q 383 622 335 644 q 483 578 431 599 q 574 538 529 561 q 656 482 619 515 q 713 399 692 449 q 733 278 733 350 q 694 133 733 199 q 579 28 654 67 q 397 -11 504 -11 q 273 3 333 -11 q 158 41 213 17 q 58 96 104 65 l 131 222 q 207 176 164 197 q 296 143 250 156 q 382 131 342 131 q 467 145 425 131 q 538 192 510 160 q 567 276 567 224 q 542 350 567 319 q 478 403 518 381 q 390 444 438 426 q 294 485 343 463 q 203 540 246 507 q 135 619 161 572 q 108 736 108 667 q 147 881 108 819 q 255 978 186 942 q 414 1017 324 1014 q 597 991 521 1017 q 731 929 672 965 l 669 806 m 494 1082 l 374 1204 l 415 1215 l 293 1082 l 150 1082 l 390 1326 l 392 1326 l 636 1082 l 494 1082 z "},"Ș":{"ha":808,"x_min":58,"x_max":733,"o":"m 669 806 q 554 853 615 833 q 438 874 493 874 q 319 840 363 874 q 275 749 275 807 q 305 676 275 707 q 383 622 335 644 q 483 578 431 599 q 574 538 529 561 q 656 482 619 515 q 713 399 692 449 q 733 278 733 350 q 694 133 733 199 q 579 28 654 67 q 397 -11 504 -11 q 273 3 333 -11 q 158 41 213 17 q 58 96 104 65 l 131 222 q 207 176 164 197 q 296 143 250 156 q 382 131 342 131 q 467 145 425 131 q 538 192 510 160 q 567 276 567 224 q 542 350 567 319 q 478 403 518 381 q 390 444 438 426 q 294 485 343 463 q 203 540 246 507 q 135 619 161 572 q 108 736 108 667 q 147 881 108 819 q 255 978 186 942 q 414 1017 324 1014 q 597 991 521 1017 q 731 929 672 965 l 669 806 m 360 -319 l 281 -265 q 326 -182 313 -236 q 332 -78 340 -128 l 468 -79 q 464 -163 475 -117 q 427 -251 453 -210 q 360 -319 401 -293 z "},"ẞ":{"ha":1165,"x_min":139,"x_max":1097,"o":"m 792 -11 q 620 14 704 -11 q 465 88 536 39 l 536 214 q 654 154 588 178 q 778 131 721 131 q 847 144 811 131 q 906 186 882 157 q 929 264 929 215 q 908 326 929 300 q 851 374 886 353 q 778 418 817 396 q 674 481 726 444 q 588 571 622 518 q 553 694 553 624 q 582 822 553 768 q 666 909 611 876 q 797 946 721 942 q 856 937 833 946 q 896 913 879 928 l 846 833 q 722 913 792 888 q 579 939 653 939 q 432 899 494 939 q 335 774 369 860 q 301 556 301 689 l 301 0 l 139 0 l 139 561 q 188 826 139 711 q 332 1004 238 940 q 563 1068 426 1068 q 715 1047 639 1068 q 853 994 792 1026 q 947 926 915 963 l 904 807 q 874 826 894 815 q 822 836 853 836 q 765 821 790 836 q 727 781 740 806 q 714 722 714 756 q 737 651 714 681 q 796 598 760 621 q 869 551 832 575 q 949 505 908 529 q 1022 449 989 481 q 1076 372 1056 417 q 1097 264 1097 328 q 1061 128 1097 190 q 958 27 1025 65 q 792 -11 890 -11 z "},"Ə":{"ha":1099,"x_min":63,"x_max":1022,"o":"m 522 1021 q 728 983 636 1021 q 886 878 821 946 q 987 720 951 811 q 1022 524 1022 629 q 983 315 1022 411 q 873 149 943 219 q 713 38 803 78 q 518 -3 622 -3 q 306 49 399 -3 q 151 196 213 100 q 63 425 89 292 l 874 704 l 908 585 l 201 333 l 251 383 q 352 210 282 279 q 531 142 422 142 q 653 170 594 142 q 756 249 711 199 q 826 368 800 300 q 851 514 851 436 q 824 656 851 592 q 750 766 797 719 q 643 838 703 813 q 518 864 583 864 q 417 848 469 864 q 318 805 364 832 q 243 743 272 778 l 163 874 q 265 947 203 914 q 396 1001 328 981 q 522 1021 464 1021 z "},"T":{"ha":810,"x_min":67,"x_max":743,"o":"m 67 1011 l 743 1011 l 743 856 l 482 856 l 482 0 l 321 0 l 321 856 l 67 856 l 67 1011 z "},"Ŧ":{"ha":810,"x_min":67,"x_max":743,"o":"m 67 1011 l 743 1011 l 743 856 l 482 856 l 482 0 l 321 0 l 321 856 l 67 856 l 67 1011 m 197 574 l 603 574 l 603 429 l 197 429 l 197 574 z "},"Ť":{"ha":810,"x_min":67,"x_max":743,"o":"m 67 1011 l 743 1011 l 743 856 l 482 856 l 482 0 l 321 0 l 321 856 l 67 856 l 67 1011 m 301 1286 l 424 1164 l 381 1153 l 504 1286 l 646 1286 l 406 1042 l 404 1042 l 160 1286 l 301 1286 z "},"Ţ":{"ha":810,"x_min":67,"x_max":743,"o":"m 67 1011 l 743 1011 l 743 856 l 482 856 l 482 0 l 321 0 l 321 856 l 67 856 l 67 1011 m 292 -204 q 330 -230 307 -219 q 381 -240 353 -240 q 440 -226 413 -240 q 468 -183 468 -211 q 451 -144 468 -162 q 385 -126 433 -126 q 339 -132 363 -126 q 297 -143 315 -137 l 272 -69 l 368 14 l 488 10 l 385 -107 l 353 -69 q 387 -61 368 -64 q 424 -57 406 -58 q 549 -87 499 -56 q 599 -181 599 -118 q 569 -261 599 -229 q 495 -308 540 -293 q 397 -324 450 -324 q 304 -307 342 -324 q 243 -267 267 -290 l 292 -204 z "},"Ț":{"ha":810,"x_min":67,"x_max":743,"o":"m 67 1011 l 743 1011 l 743 856 l 482 856 l 482 0 l 321 0 l 321 856 l 67 856 l 67 1011 m 364 -308 l 285 -254 q 331 -171 317 -225 q 336 -67 344 -117 l 472 -68 q 468 -152 479 -106 q 431 -240 457 -199 q 364 -308 406 -282 z "},"U":{"ha":1029,"x_min":124,"x_max":907,"o":"m 285 364 q 316 254 285 304 q 399 175 347 204 q 514 146 450 146 q 633 175 581 146 q 717 254 686 204 q 747 364 747 304 l 747 1011 l 907 1011 l 907 360 q 854 166 907 250 q 713 35 801 82 q 514 -11 624 -11 l 514 -11 q 317 35 406 -11 q 176 166 228 82 q 124 360 124 250 l 124 1011 l 285 1011 l 285 364 z "},"Ú":{"ha":1029,"x_min":124,"x_max":907,"o":"m 285 364 q 316 254 285 304 q 399 175 347 204 q 514 146 450 146 q 633 175 581 146 q 717 254 686 204 q 747 364 747 304 l 747 1011 l 907 1011 l 907 360 q 854 166 907 250 q 713 35 801 82 q 514 -11 624 -11 l 514 -11 q 317 35 406 -11 q 176 166 228 82 q 124 360 124 250 l 124 1011 l 285 1011 l 285 364 m 747 1261 l 558 1075 l 463 1075 l 575 1261 l 747 1261 z "},"Ŭ":{"ha":1029,"x_min":124,"x_max":907,"o":"m 285 364 q 316 254 285 304 q 399 175 347 204 q 514 146 450 146 q 633 175 581 146 q 717 254 686 204 q 747 364 747 304 l 747 1011 l 907 1011 l 907 360 q 854 166 907 250 q 713 35 801 82 q 514 -11 624 -11 l 514 -11 q 317 35 406 -11 q 176 166 228 82 q 124 360 124 250 l 124 1011 l 285 1011 l 285 364 m 515 1081 q 409 1109 454 1081 q 336 1193 364 1138 q 296 1331 308 1249 l 400 1331 q 421 1256 407 1289 q 458 1203 435 1222 q 515 1185 482 1185 q 574 1203 551 1185 q 608 1256 596 1222 q 628 1331 621 1289 l 733 1331 q 693 1191 721 1247 q 621 1108 665 1135 q 515 1081 576 1081 z "},"Ǔ":{"ha":1029,"x_min":124,"x_max":907,"o":"m 285 364 q 316 254 285 304 q 399 175 347 204 q 514 146 450 146 q 633 175 581 146 q 717 254 686 204 q 747 364 747 304 l 747 1011 l 907 1011 l 907 360 q 854 166 907 250 q 713 35 801 82 q 514 -11 624 -11 l 514 -11 q 317 35 406 -11 q 176 166 228 82 q 124 360 124 250 l 124 1011 l 285 1011 l 285 364 m 411 1308 l 533 1186 l 490 1175 l 614 1308 l 756 1308 l 515 1064 l 514 1064 l 269 1308 l 411 1308 z "},"Û":{"ha":1029,"x_min":124,"x_max":907,"o":"m 285 364 q 316 254 285 304 q 399 175 347 204 q 514 146 450 146 q 633 175 581 146 q 717 254 686 204 q 747 364 747 304 l 747 1011 l 907 1011 l 907 360 q 854 166 907 250 q 713 35 801 82 q 514 -11 624 -11 l 514 -11 q 317 35 406 -11 q 176 166 228 82 q 124 360 124 250 l 124 1011 l 285 1011 l 285 364 m 607 1097 l 486 1219 l 528 1231 l 406 1097 l 263 1097 l 503 1342 l 504 1342 l 749 1097 l 607 1097 z "},"Ȕ":{"ha":1029,"x_min":124,"x_max":907,"o":"m 285 364 q 316 254 285 304 q 399 175 347 204 q 514 146 450 146 q 633 175 581 146 q 717 254 686 204 q 747 364 747 304 l 747 1011 l 907 1011 l 907 360 q 854 166 907 250 q 713 35 801 82 q 514 -11 624 -11 l 514 -11 q 317 35 406 -11 q 176 166 228 82 q 124 360 124 250 l 124 1011 l 285 1011 l 285 364 m 217 1279 l 389 1279 l 485 1093 l 388 1093 l 217 1279 m 429 1279 l 601 1279 l 697 1093 l 600 1093 l 429 1279 z "},"Ü":{"ha":1029,"x_min":124,"x_max":907,"o":"m 285 364 q 316 254 285 304 q 399 175 347 204 q 514 146 450 146 q 633 175 581 146 q 717 254 686 204 q 747 364 747 304 l 747 1011 l 907 1011 l 907 360 q 854 166 907 250 q 713 35 801 82 q 514 -11 624 -11 l 514 -11 q 317 35 406 -11 q 176 166 228 82 q 124 360 124 250 l 124 1011 l 285 1011 l 285 364 m 290 1164 q 317 1224 290 1200 q 374 1249 343 1249 q 431 1224 404 1249 q 457 1164 457 1200 q 431 1103 457 1126 q 374 1079 404 1079 q 317 1103 343 1079 q 290 1164 290 1126 l 290 1164 m 557 1164 q 583 1224 557 1200 q 642 1249 610 1249 q 697 1224 671 1249 q 724 1164 724 1200 q 697 1103 724 1126 q 642 1079 671 1079 q 583 1103 610 1079 q 557 1164 557 1126 l 557 1164 z "},"Ụ":{"ha":1029,"x_min":124,"x_max":907,"o":"m 285 364 q 316 254 285 304 q 399 175 347 204 q 514 146 450 146 q 633 175 581 146 q 717 254 686 204 q 747 364 747 304 l 747 1011 l 907 1011 l 907 360 q 854 166 907 250 q 713 35 801 82 q 514 -11 624 -11 l 514 -11 q 317 35 406 -11 q 176 166 228 82 q 124 360 124 250 l 124 1011 l 285 1011 l 285 364 m 424 -150 q 452 -90 424 -114 q 514 -67 481 -67 q 574 -90 547 -67 q 600 -150 600 -114 q 574 -209 600 -186 q 514 -232 547 -232 q 452 -208 481 -232 q 424 -150 424 -185 z "},"Ù":{"ha":1029,"x_min":124,"x_max":907,"o":"m 285 364 q 316 254 285 304 q 399 175 347 204 q 514 146 450 146 q 633 175 581 146 q 717 254 686 204 q 747 364 747 304 l 747 1011 l 907 1011 l 907 360 q 854 166 907 250 q 713 35 801 82 q 514 -11 624 -11 l 514 -11 q 317 35 406 -11 q 176 166 228 82 q 124 360 124 250 l 124 1011 l 285 1011 l 285 364 m 285 1269 l 457 1269 l 553 1083 l 456 1083 l 285 1269 z "},"Ủ":{"ha":1029,"x_min":124,"x_max":907,"o":"m 285 364 q 316 254 285 304 q 399 175 347 204 q 514 146 450 146 q 633 175 581 146 q 717 254 686 204 q 747 364 747 304 l 747 1011 l 907 1011 l 907 360 q 854 166 907 250 q 713 35 801 82 q 514 -11 624 -11 l 514 -11 q 317 35 406 -11 q 176 166 228 82 q 124 360 124 250 l 124 1011 l 285 1011 l 285 364 m 504 1135 q 547 1172 531 1154 q 563 1214 563 1189 q 552 1249 563 1235 q 519 1263 542 1263 q 485 1251 500 1263 q 460 1221 469 1239 l 403 1257 q 463 1326 426 1304 q 540 1349 500 1349 q 603 1333 579 1349 q 640 1290 628 1317 q 651 1235 651 1264 q 618 1151 651 1185 q 540 1089 585 1117 l 504 1135 z "},"Ư":{"ha":1064,"x_min":124,"x_max":1101,"o":"m 285 364 q 316 254 285 304 q 399 175 347 204 q 514 146 450 146 q 633 175 581 146 q 717 254 686 204 q 747 364 747 304 l 747 1011 l 907 1011 l 907 360 q 854 166 907 250 q 713 35 801 82 q 514 -11 624 -11 l 514 -11 q 317 35 406 -11 q 176 166 228 82 q 124 360 124 250 l 124 1011 l 285 1011 l 285 364 m 879 936 q 955 960 933 936 q 986 1053 976 985 l 1101 1053 q 1060 918 1089 964 q 986 857 1032 872 q 879 842 940 842 l 879 936 z "},"Ứ":{"ha":1064,"x_min":124,"x_max":1101,"o":"m 285 364 q 316 254 285 304 q 399 175 347 204 q 514 146 450 146 q 633 175 581 146 q 717 254 686 204 q 747 364 747 304 l 747 1011 l 907 1011 l 907 360 q 854 166 907 250 q 713 35 801 82 q 514 -11 624 -11 l 514 -11 q 317 35 406 -11 q 176 166 228 82 q 124 360 124 250 l 124 1011 l 285 1011 l 285 364 m 879 936 q 955 960 933 936 q 986 1053 976 985 l 1101 1053 q 1060 918 1089 964 q 986 857 1032 872 q 879 842 940 842 l 879 936 m 747 1261 l 558 1075 l 463 1075 l 575 1261 l 747 1261 z "},"Ự":{"ha":1064,"x_min":124,"x_max":1101,"o":"m 285 364 q 316 254 285 304 q 399 175 347 204 q 514 146 450 146 q 633 175 581 146 q 717 254 686 204 q 747 364 747 304 l 747 1011 l 907 1011 l 907 360 q 854 166 907 250 q 713 35 801 82 q 514 -11 624 -11 l 514 -11 q 317 35 406 -11 q 176 166 228 82 q 124 360 124 250 l 124 1011 l 285 1011 l 285 364 m 879 936 q 955 960 933 936 q 986 1053 976 985 l 1101 1053 q 1060 918 1089 964 q 986 857 1032 872 q 879 842 940 842 l 879 936 m 424 -150 q 452 -90 424 -114 q 514 -67 481 -67 q 574 -90 547 -67 q 600 -150 600 -114 q 574 -209 600 -186 q 514 -232 547 -232 q 452 -208 481 -232 q 424 -150 424 -185 z "},"Ừ":{"ha":1064,"x_min":124,"x_max":1101,"o":"m 285 364 q 316 254 285 304 q 399 175 347 204 q 514 146 450 146 q 633 175 581 146 q 717 254 686 204 q 747 364 747 304 l 747 1011 l 907 1011 l 907 360 q 854 166 907 250 q 713 35 801 82 q 514 -11 624 -11 l 514 -11 q 317 35 406 -11 q 176 166 228 82 q 124 360 124 250 l 124 1011 l 285 1011 l 285 364 m 879 936 q 955 960 933 936 q 986 1053 976 985 l 1101 1053 q 1060 918 1089 964 q 986 857 1032 872 q 879 842 940 842 l 879 936 m 285 1269 l 457 1269 l 553 1083 l 456 1083 l 285 1269 z "},"Ử":{"ha":1064,"x_min":124,"x_max":1101,"o":"m 285 364 q 316 254 285 304 q 399 175 347 204 q 514 146 450 146 q 633 175 581 146 q 717 254 686 204 q 747 364 747 304 l 747 1011 l 907 1011 l 907 360 q 854 166 907 250 q 713 35 801 82 q 514 -11 624 -11 l 514 -11 q 317 35 406 -11 q 176 166 228 82 q 124 360 124 250 l 124 1011 l 285 1011 l 285 364 m 879 936 q 955 960 933 936 q 986 1053 976 985 l 1101 1053 q 1060 918 1089 964 q 986 857 1032 872 q 879 842 940 842 l 879 936 m 504 1135 q 547 1172 531 1154 q 563 1214 563 1189 q 552 1249 563 1235 q 519 1263 542 1263 q 485 1251 500 1263 q 460 1221 469 1239 l 403 1257 q 463 1326 426 1304 q 540 1349 500 1349 q 603 1333 579 1349 q 640 1290 628 1317 q 651 1235 651 1264 q 618 1151 651 1185 q 540 1089 585 1117 l 504 1135 z "},"Ữ":{"ha":1064,"x_min":124,"x_max":1101,"o":"m 285 364 q 316 254 285 304 q 399 175 347 204 q 514 146 450 146 q 633 175 581 146 q 717 254 686 204 q 747 364 747 304 l 747 1011 l 907 1011 l 907 360 q 854 166 907 250 q 713 35 801 82 q 514 -11 624 -11 l 514 -11 q 317 35 406 -11 q 176 166 228 82 q 124 360 124 250 l 124 1011 l 285 1011 l 285 364 m 879 936 q 955 960 933 936 q 986 1053 976 985 l 1101 1053 q 1060 918 1089 964 q 986 857 1032 872 q 879 842 940 842 l 879 936 m 622 1125 q 547 1145 576 1125 q 492 1188 517 1165 q 460 1213 475 1201 q 425 1225 444 1225 q 395 1212 407 1225 q 378 1176 383 1199 q 374 1125 372 1154 l 293 1126 q 303 1226 288 1181 q 353 1298 319 1271 q 433 1325 386 1325 q 496 1306 469 1325 q 546 1267 522 1286 q 583 1235 565 1249 q 619 1221 600 1221 q 655 1251 646 1221 q 664 1325 664 1281 l 744 1324 q 737 1220 751 1265 q 692 1150 722 1175 q 622 1125 661 1125 z "},"Ű":{"ha":1029,"x_min":124,"x_max":907,"o":"m 285 364 q 316 254 285 304 q 399 175 347 204 q 514 146 450 146 q 633 175 581 146 q 717 254 686 204 q 747 364 747 304 l 747 1011 l 907 1011 l 907 360 q 854 166 907 250 q 713 35 801 82 q 514 -11 624 -11 l 514 -11 q 317 35 406 -11 q 176 166 228 82 q 124 360 124 250 l 124 1011 l 285 1011 l 285 364 m 593 1275 l 404 1089 l 308 1089 l 421 1275 l 593 1275 m 821 1272 l 632 1086 l 536 1086 l 649 1272 l 821 1272 z "},"Ȗ":{"ha":1029,"x_min":124,"x_max":907,"o":"m 285 364 q 316 254 285 304 q 399 175 347 204 q 514 146 450 146 q 633 175 581 146 q 717 254 686 204 q 747 364 747 304 l 747 1011 l 907 1011 l 907 360 q 854 166 907 250 q 713 35 801 82 q 514 -11 624 -11 l 514 -11 q 317 35 406 -11 q 176 166 228 82 q 124 360 124 250 l 124 1011 l 285 1011 l 285 364 m 508 1296 q 614 1267 569 1296 q 687 1183 658 1239 q 728 1044 715 1126 l 622 1044 q 603 1121 617 1088 q 566 1172 589 1154 q 508 1190 543 1190 q 451 1172 474 1190 q 415 1121 428 1154 q 394 1044 401 1088 l 290 1044 q 330 1185 301 1129 q 403 1268 358 1240 q 508 1296 447 1296 z "},"Ū":{"ha":1029,"x_min":124,"x_max":907,"o":"m 285 364 q 316 254 285 304 q 399 175 347 204 q 514 146 450 146 q 633 175 581 146 q 717 254 686 204 q 747 364 747 304 l 747 1011 l 907 1011 l 907 360 q 854 166 907 250 q 713 35 801 82 q 514 -11 624 -11 l 514 -11 q 317 35 406 -11 q 176 166 228 82 q 124 360 124 250 l 124 1011 l 285 1011 l 285 364 m 338 1196 l 683 1196 l 683 1086 l 338 1086 l 338 1196 z "},"Ų":{"ha":1029,"x_min":124,"x_max":907,"o":"m 661 -308 q 534 -263 586 -308 q 482 -146 482 -218 q 511 -55 482 -100 q 593 14 540 -10 l 640 78 l 656 13 q 514 -11 589 -11 q 308 36 396 -11 q 172 167 221 83 q 124 360 124 250 l 124 1011 l 285 1011 l 285 364 q 316 254 285 304 q 399 175 347 204 q 514 146 450 146 q 633 175 581 146 q 717 254 686 204 q 747 364 747 304 l 747 1011 l 907 1011 l 907 350 q 881 213 907 271 q 813 113 854 156 q 729 38 772 71 q 645 -43 679 -3 q 611 -133 611 -83 q 631 -183 611 -169 q 675 -197 651 -197 q 727 -181 703 -197 q 772 -131 751 -164 l 829 -211 q 755 -281 803 -253 q 661 -308 707 -308 z "},"Ů":{"ha":1029,"x_min":124,"x_max":907,"o":"m 285 364 q 316 254 285 304 q 399 175 347 204 q 514 146 450 146 q 633 175 581 146 q 717 254 686 204 q 747 364 747 304 l 747 1011 l 907 1011 l 907 360 q 854 166 907 250 q 713 35 801 82 q 514 -11 624 -11 l 514 -11 q 317 35 406 -11 q 176 166 228 82 q 124 360 124 250 l 124 1011 l 285 1011 l 285 364 m 379 1208 q 419 1304 379 1268 q 519 1340 458 1340 q 619 1304 579 1340 q 660 1208 660 1268 q 619 1112 660 1149 q 519 1075 579 1075 q 419 1112 460 1075 q 379 1208 379 1149 m 463 1206 q 478 1163 463 1179 q 519 1146 494 1146 q 561 1163 546 1146 q 576 1206 576 1179 q 561 1250 576 1235 q 519 1265 546 1265 q 478 1250 494 1265 q 463 1206 463 1235 z "},"Ũ":{"ha":1029,"x_min":124,"x_max":907,"o":"m 285 364 q 316 254 285 304 q 399 175 347 204 q 514 146 450 146 q 633 175 581 146 q 717 254 686 204 q 747 364 747 304 l 747 1011 l 907 1011 l 907 360 q 854 166 907 250 q 713 35 801 82 q 514 -11 624 -11 l 514 -11 q 317 35 406 -11 q 176 166 228 82 q 124 360 124 250 l 124 1011 l 285 1011 l 285 364 m 622 1125 q 547 1145 576 1125 q 492 1188 517 1165 q 460 1213 475 1201 q 425 1225 444 1225 q 395 1212 407 1225 q 378 1176 383 1199 q 374 1125 372 1154 l 293 1126 q 303 1226 288 1181 q 353 1298 319 1271 q 433 1325 386 1325 q 496 1306 469 1325 q 546 1267 522 1286 q 583 1235 565 1249 q 619 1221 600 1221 q 655 1251 646 1221 q 664 1325 664 1281 l 744 1324 q 737 1220 751 1265 q 692 1150 722 1175 q 622 1125 661 1125 z "},"V":{"ha":1008,"x_min":51,"x_max":957,"o":"m 244 1011 l 563 219 l 469 238 l 767 1011 l 957 1011 l 504 -47 l 51 1011 l 244 1011 z "},"W":{"ha":1408,"x_min":51,"x_max":1357,"o":"m 51 1006 l 240 1006 l 490 289 l 464 300 l 658 799 l 733 578 l 456 -47 l 51 1006 m 546 1006 l 707 1006 l 985 304 l 953 310 l 1183 1006 l 1357 1006 l 963 -44 l 546 1006 z "},"Ẃ":{"ha":1408,"x_min":51,"x_max":1357,"o":"m 51 1006 l 240 1006 l 490 289 l 464 300 l 658 799 l 733 578 l 456 -47 l 51 1006 m 546 1006 l 707 1006 l 985 304 l 953 310 l 1183 1006 l 1357 1006 l 963 -44 l 546 1006 m 938 1250 l 749 1064 l 653 1064 l 765 1250 l 938 1250 z "},"Ŵ":{"ha":1408,"x_min":51,"x_max":1357,"o":"m 51 1006 l 240 1006 l 490 289 l 464 300 l 658 799 l 733 578 l 456 -47 l 51 1006 m 546 1006 l 707 1006 l 985 304 l 953 310 l 1183 1006 l 1357 1006 l 963 -44 l 546 1006 m 797 1086 l 676 1208 l 718 1219 l 596 1086 l 453 1086 l 693 1331 l 694 1331 l 939 1086 l 797 1086 z "},"Ẅ":{"ha":1408,"x_min":51,"x_max":1357,"o":"m 51 1006 l 240 1006 l 490 289 l 464 300 l 658 799 l 733 578 l 456 -47 l 51 1006 m 546 1006 l 707 1006 l 985 304 l 953 310 l 1183 1006 l 1357 1006 l 963 -44 l 546 1006 m 481 1153 q 507 1213 481 1189 q 564 1238 533 1238 q 621 1213 594 1238 q 647 1153 647 1189 q 621 1092 647 1115 q 564 1068 594 1068 q 507 1092 533 1068 q 481 1153 481 1115 l 481 1153 m 747 1153 q 774 1213 747 1189 q 832 1238 800 1238 q 888 1213 861 1238 q 914 1153 914 1189 q 888 1092 914 1115 q 832 1068 861 1068 q 774 1092 800 1068 q 747 1153 747 1115 l 747 1153 z "},"Ẁ":{"ha":1408,"x_min":51,"x_max":1357,"o":"m 51 1006 l 240 1006 l 490 289 l 464 300 l 658 799 l 733 578 l 456 -47 l 51 1006 m 546 1006 l 707 1006 l 985 304 l 953 310 l 1183 1006 l 1357 1006 l 963 -44 l 546 1006 m 475 1258 l 647 1258 l 743 1072 l 646 1072 l 475 1258 z "},"X":{"ha":963,"x_min":42,"x_max":921,"o":"m 56 1011 l 261 1011 l 921 0 l 713 0 l 56 1011 m 42 0 l 397 557 l 474 397 l 242 0 l 42 0 m 482 615 l 713 1011 l 908 1011 l 567 478 l 482 615 z "},"Y":{"ha":978,"x_min":32,"x_max":946,"o":"m 406 328 l 32 1011 l 231 1011 l 515 467 l 467 464 l 747 1011 l 946 1011 l 567 328 l 567 0 l 406 0 l 406 328 z "},"Ý":{"ha":978,"x_min":32,"x_max":946,"o":"m 406 328 l 32 1011 l 231 1011 l 515 467 l 467 464 l 747 1011 l 946 1011 l 567 328 l 567 0 l 406 0 l 406 328 m 743 1260 l 554 1074 l 458 1074 l 571 1260 l 743 1260 z "},"Ŷ":{"ha":978,"x_min":32,"x_max":946,"o":"m 406 328 l 32 1011 l 231 1011 l 515 467 l 467 464 l 747 1011 l 946 1011 l 567 328 l 567 0 l 406 0 l 406 328 m 603 1094 l 482 1217 l 524 1228 l 401 1094 l 258 1094 l 499 1339 l 500 1339 l 744 1094 l 603 1094 z "},"Ÿ":{"ha":978,"x_min":32,"x_max":946,"o":"m 406 328 l 32 1011 l 231 1011 l 515 467 l 467 464 l 747 1011 l 946 1011 l 567 328 l 567 0 l 406 0 l 406 328 m 286 1163 q 313 1223 286 1199 q 369 1247 339 1247 q 426 1223 400 1247 q 453 1163 453 1199 q 426 1101 453 1125 q 369 1078 400 1078 q 313 1101 339 1078 q 286 1163 286 1125 l 286 1163 m 553 1163 q 579 1223 553 1199 q 638 1247 606 1247 q 693 1223 667 1247 q 719 1163 719 1199 q 693 1101 719 1125 q 638 1078 667 1078 q 579 1101 606 1078 q 553 1163 553 1125 l 553 1163 z "},"Ỵ":{"ha":978,"x_min":32,"x_max":946,"o":"m 406 328 l 32 1011 l 231 1011 l 515 467 l 467 464 l 747 1011 l 946 1011 l 567 328 l 567 0 l 406 0 l 406 328 m 397 -150 q 426 -90 397 -114 q 488 -67 454 -67 q 547 -90 521 -67 q 574 -150 574 -114 q 547 -209 574 -186 q 488 -232 521 -232 q 426 -208 454 -232 q 397 -150 397 -185 z "},"Ỳ":{"ha":978,"x_min":32,"x_max":946,"o":"m 406 328 l 32 1011 l 231 1011 l 515 467 l 467 464 l 747 1011 l 946 1011 l 567 328 l 567 0 l 406 0 l 406 328 m 281 1267 l 453 1267 l 549 1081 l 451 1081 l 281 1267 z "},"Ỷ":{"ha":978,"x_min":32,"x_max":946,"o":"m 406 328 l 32 1011 l 231 1011 l 515 467 l 467 464 l 747 1011 l 946 1011 l 567 328 l 567 0 l 406 0 l 406 328 m 499 1132 q 541 1169 525 1151 q 557 1211 557 1186 q 547 1246 557 1232 q 514 1260 536 1260 q 479 1248 494 1260 q 454 1218 464 1236 l 397 1254 q 458 1324 421 1301 q 535 1346 494 1346 q 598 1330 574 1346 q 634 1288 622 1314 q 646 1232 646 1261 q 613 1148 646 1182 q 535 1086 579 1114 l 499 1132 z "},"Ȳ":{"ha":978,"x_min":32,"x_max":946,"o":"m 406 328 l 32 1011 l 231 1011 l 515 467 l 467 464 l 747 1011 l 946 1011 l 567 328 l 567 0 l 406 0 l 406 328 m 333 1193 l 679 1193 l 679 1083 l 333 1083 l 333 1193 z "},"Ỹ":{"ha":978,"x_min":32,"x_max":946,"o":"m 406 328 l 32 1011 l 231 1011 l 515 467 l 467 464 l 747 1011 l 946 1011 l 567 328 l 567 0 l 406 0 l 406 328 m 617 1124 q 541 1144 571 1124 q 486 1186 511 1164 q 454 1212 469 1200 q 419 1224 439 1224 q 390 1210 401 1224 q 372 1175 378 1197 q 368 1124 367 1153 l 288 1125 q 298 1224 282 1179 q 347 1297 314 1269 q 428 1324 381 1324 q 490 1304 464 1324 q 540 1265 517 1285 q 577 1233 560 1247 q 614 1219 594 1219 q 649 1249 640 1219 q 658 1324 658 1279 l 739 1322 q 731 1219 746 1264 q 686 1149 717 1174 q 617 1124 656 1124 z "},"Z":{"ha":994,"x_min":67,"x_max":921,"o":"m 67 0 q 105 56 76 14 q 174 161 133 99 q 263 299 215 224 q 363 452 311 374 q 463 605 414 531 q 552 741 511 679 q 621 845 593 803 q 658 900 649 888 l 678 856 l 253 856 q 197 867 225 856 q 149 899 168 878 q 131 947 131 919 l 131 1063 l 281 1063 l 281 1043 q 290 1014 281 1017 q 324 1011 300 1011 l 913 1011 l 332 136 l 322 156 l 921 156 l 921 0 l 67 0 z "},"Ź":{"ha":994,"x_min":67,"x_max":921,"o":"m 67 0 q 105 56 76 14 q 174 161 133 99 q 263 299 215 224 q 363 452 311 374 q 463 605 414 531 q 552 741 511 679 q 621 845 593 803 q 658 900 649 888 l 678 856 l 253 856 q 197 867 225 856 q 149 899 168 878 q 131 947 131 919 l 131 1063 l 281 1063 l 281 1043 q 290 1014 281 1017 q 324 1011 300 1011 l 913 1011 l 332 136 l 322 156 l 921 156 l 921 0 l 67 0 m 729 1240 l 540 1054 l 444 1054 l 557 1240 l 729 1240 z "},"Ž":{"ha":994,"x_min":67,"x_max":921,"o":"m 67 0 q 105 56 76 14 q 174 161 133 99 q 263 299 215 224 q 363 452 311 374 q 463 605 414 531 q 552 741 511 679 q 621 845 593 803 q 658 900 649 888 l 678 856 l 253 856 q 197 867 225 856 q 149 899 168 878 q 131 947 131 919 l 131 1063 l 281 1063 l 281 1043 q 290 1014 281 1017 q 324 1011 300 1011 l 913 1011 l 332 136 l 322 156 l 921 156 l 921 0 l 67 0 m 393 1286 l 515 1164 l 472 1153 l 596 1286 l 738 1286 l 497 1042 l 496 1042 l 251 1286 l 393 1286 z "},"Ż":{"ha":994,"x_min":67,"x_max":921,"o":"m 67 0 q 105 56 76 14 q 174 161 133 99 q 263 299 215 224 q 363 452 311 374 q 463 605 414 531 q 552 741 511 679 q 621 845 593 803 q 658 900 649 888 l 678 856 l 253 856 q 197 867 225 856 q 149 899 168 878 q 131 947 131 919 l 131 1063 l 281 1063 l 281 1043 q 290 1014 281 1017 q 324 1011 300 1011 l 913 1011 l 332 136 l 322 156 l 921 156 l 921 0 l 67 0 m 408 1139 q 437 1199 408 1175 q 499 1222 465 1222 q 558 1199 532 1222 q 585 1139 585 1175 q 558 1080 585 1103 q 499 1057 532 1057 q 437 1081 465 1057 q 408 1139 408 1104 z "},"a":{"ha":829,"x_min":58,"x_max":722,"o":"m 353 -15 q 203 19 271 -15 q 97 123 136 54 q 58 293 58 192 q 99 465 58 393 q 208 575 140 536 q 354 614 275 614 q 491 580 439 614 q 572 501 543 546 l 564 479 l 579 588 l 722 588 l 722 0 l 567 0 l 567 143 l 582 106 q 560 78 578 97 q 514 38 543 60 q 445 0 485 15 q 353 -15 406 -15 m 396 113 q 474 128 439 113 q 532 171 508 143 q 567 238 556 199 l 567 365 q 531 428 556 401 q 470 471 506 456 q 392 486 435 486 q 303 463 343 486 q 240 397 264 439 q 215 301 215 356 q 240 206 215 249 q 307 138 265 163 q 396 113 349 113 z "},"á":{"ha":829,"x_min":58,"x_max":722,"o":"m 353 -15 q 203 19 271 -15 q 97 123 136 54 q 58 293 58 192 q 99 465 58 393 q 208 575 140 536 q 354 614 275 614 q 491 580 439 614 q 572 501 543 546 l 564 479 l 579 588 l 722 588 l 722 0 l 567 0 l 567 143 l 582 106 q 560 78 578 97 q 514 38 543 60 q 445 0 485 15 q 353 -15 406 -15 m 396 113 q 474 128 439 113 q 532 171 508 143 q 567 238 556 199 l 567 365 q 531 428 556 401 q 470 471 506 456 q 392 486 435 486 q 303 463 343 486 q 240 397 264 439 q 215 301 215 356 q 240 206 215 249 q 307 138 265 163 q 396 113 349 113 m 614 878 l 425 692 l 329 692 l 442 878 l 614 878 z "},"ă":{"ha":829,"x_min":58,"x_max":722,"o":"m 353 -15 q 203 19 271 -15 q 97 123 136 54 q 58 293 58 192 q 99 465 58 393 q 208 575 140 536 q 354 614 275 614 q 491 580 439 614 q 572 501 543 546 l 564 479 l 579 588 l 722 588 l 722 0 l 567 0 l 567 143 l 582 106 q 560 78 578 97 q 514 38 543 60 q 445 0 485 15 q 353 -15 406 -15 m 396 113 q 474 128 439 113 q 532 171 508 143 q 567 238 556 199 l 567 365 q 531 428 556 401 q 470 471 506 456 q 392 486 435 486 q 303 463 343 486 q 240 397 264 439 q 215 301 215 356 q 240 206 215 249 q 307 138 265 163 q 396 113 349 113 m 439 672 q 333 701 378 672 q 260 785 288 729 q 219 922 232 840 l 324 922 q 344 847 331 881 q 382 795 358 814 q 439 776 406 776 q 497 795 475 776 q 532 847 519 814 q 551 922 544 881 l 657 922 q 617 783 644 839 q 544 699 589 726 q 439 672 500 672 z "},"ắ":{"ha":829,"x_min":58,"x_max":722,"o":"m 353 -15 q 203 19 271 -15 q 97 123 136 54 q 58 293 58 192 q 99 465 58 393 q 208 575 140 536 q 354 614 275 614 q 491 580 439 614 q 572 501 543 546 l 564 479 l 579 588 l 722 588 l 722 0 l 567 0 l 567 143 l 582 106 q 560 78 578 97 q 514 38 543 60 q 445 0 485 15 q 353 -15 406 -15 m 396 113 q 474 128 439 113 q 532 171 508 143 q 567 238 556 199 l 567 365 q 531 428 556 401 q 470 471 506 456 q 392 486 435 486 q 303 463 343 486 q 240 397 264 439 q 215 301 215 356 q 240 206 215 249 q 307 138 265 163 q 396 113 349 113 m 439 672 q 333 701 378 672 q 260 785 288 729 q 219 922 232 840 l 324 922 q 344 847 331 881 q 382 795 358 814 q 439 776 406 776 q 497 795 475 776 q 532 847 519 814 q 551 922 544 881 l 657 922 q 617 783 644 839 q 544 699 589 726 q 439 672 500 672 m 597 1138 l 408 951 l 313 951 l 425 1138 l 597 1138 z "},"ặ":{"ha":829,"x_min":58,"x_max":722,"o":"m 353 -15 q 203 19 271 -15 q 97 123 136 54 q 58 293 58 192 q 99 465 58 393 q 208 575 140 536 q 354 614 275 614 q 491 580 439 614 q 572 501 543 546 l 564 479 l 579 588 l 722 588 l 722 0 l 567 0 l 567 143 l 582 106 q 560 78 578 97 q 514 38 543 60 q 445 0 485 15 q 353 -15 406 -15 m 396 113 q 474 128 439 113 q 532 171 508 143 q 567 238 556 199 l 567 365 q 531 428 556 401 q 470 471 506 456 q 392 486 435 486 q 303 463 343 486 q 240 397 264 439 q 215 301 215 356 q 240 206 215 249 q 307 138 265 163 q 396 113 349 113 m 338 -147 q 362 -97 338 -117 q 414 -78 386 -78 q 465 -97 442 -78 q 488 -147 488 -117 q 465 -197 488 -178 q 414 -217 442 -217 q 362 -197 386 -217 q 338 -147 338 -178 m 439 672 q 333 701 378 672 q 260 785 288 729 q 219 922 232 840 l 324 922 q 344 847 331 881 q 382 795 358 814 q 439 776 406 776 q 497 795 475 776 q 532 847 519 814 q 551 922 544 881 l 657 922 q 617 783 644 839 q 544 699 589 726 q 439 672 500 672 z "},"ằ":{"ha":829,"x_min":58,"x_max":722,"o":"m 353 -15 q 203 19 271 -15 q 97 123 136 54 q 58 293 58 192 q 99 465 58 393 q 208 575 140 536 q 354 614 275 614 q 491 580 439 614 q 572 501 543 546 l 564 479 l 579 588 l 722 588 l 722 0 l 567 0 l 567 143 l 582 106 q 560 78 578 97 q 514 38 543 60 q 445 0 485 15 q 353 -15 406 -15 m 396 113 q 474 128 439 113 q 532 171 508 143 q 567 238 556 199 l 567 365 q 531 428 556 401 q 470 471 506 456 q 392 486 435 486 q 303 463 343 486 q 240 397 264 439 q 215 301 215 356 q 240 206 215 249 q 307 138 265 163 q 396 113 349 113 m 439 672 q 333 701 378 672 q 260 785 288 729 q 219 922 232 840 l 324 922 q 344 847 331 881 q 382 795 358 814 q 439 776 406 776 q 497 795 475 776 q 532 847 519 814 q 551 922 544 881 l 657 922 q 617 783 644 839 q 544 699 589 726 q 439 672 500 672 m 224 1136 l 396 1136 l 492 950 l 394 950 l 224 1136 z "},"ẳ":{"ha":829,"x_min":58,"x_max":722,"o":"m 353 -15 q 203 19 271 -15 q 97 123 136 54 q 58 293 58 192 q 99 465 58 393 q 208 575 140 536 q 354 614 275 614 q 491 580 439 614 q 572 501 543 546 l 564 479 l 579 588 l 722 588 l 722 0 l 567 0 l 567 143 l 582 106 q 560 78 578 97 q 514 38 543 60 q 445 0 485 15 q 353 -15 406 -15 m 396 113 q 474 128 439 113 q 532 171 508 143 q 567 238 556 199 l 567 365 q 531 428 556 401 q 470 471 506 456 q 392 486 435 486 q 303 463 343 486 q 240 397 264 439 q 215 301 215 356 q 240 206 215 249 q 307 138 265 163 q 396 113 349 113 m 439 672 q 333 701 378 672 q 260 785 288 729 q 219 922 232 840 l 324 922 q 344 847 331 881 q 382 795 358 814 q 439 776 406 776 q 497 795 475 776 q 532 847 519 814 q 551 922 544 881 l 657 922 q 617 783 644 839 q 544 699 589 726 q 439 672 500 672 m 432 979 q 474 1016 458 999 q 490 1058 490 1033 q 480 1093 490 1079 q 447 1107 469 1107 q 413 1095 428 1107 q 388 1065 397 1083 l 331 1101 q 391 1171 354 1149 q 468 1193 428 1193 q 531 1177 507 1193 q 567 1135 556 1161 q 579 1079 579 1108 q 546 995 579 1029 q 468 933 513 961 l 432 979 z "},"ẵ":{"ha":829,"x_min":58,"x_max":722,"o":"m 353 -15 q 203 19 271 -15 q 97 123 136 54 q 58 293 58 192 q 99 465 58 393 q 208 575 140 536 q 354 614 275 614 q 491 580 439 614 q 572 501 543 546 l 564 479 l 579 588 l 722 588 l 722 0 l 567 0 l 567 143 l 582 106 q 560 78 578 97 q 514 38 543 60 q 445 0 485 15 q 353 -15 406 -15 m 396 113 q 474 128 439 113 q 532 171 508 143 q 567 238 556 199 l 567 365 q 531 428 556 401 q 470 471 506 456 q 392 486 435 486 q 303 463 343 486 q 240 397 264 439 q 215 301 215 356 q 240 206 215 249 q 307 138 265 163 q 396 113 349 113 m 439 672 q 333 701 378 672 q 260 785 288 729 q 219 922 232 840 l 324 922 q 344 847 331 881 q 382 795 358 814 q 439 776 406 776 q 497 795 475 776 q 532 847 519 814 q 551 922 544 881 l 657 922 q 617 783 644 839 q 544 699 589 726 q 439 672 500 672 m 557 967 q 481 987 511 967 q 426 1028 451 1007 q 394 1054 410 1043 q 360 1065 379 1065 q 330 1052 342 1065 q 313 1017 318 1039 q 308 967 307 994 l 228 967 q 238 1067 222 1021 q 288 1140 254 1113 q 368 1167 321 1167 q 431 1147 404 1167 q 481 1107 457 1128 q 517 1075 500 1089 q 554 1061 535 1061 q 590 1092 581 1061 q 599 1165 599 1122 l 679 1165 q 672 1062 686 1107 q 626 992 657 1017 q 557 967 596 967 z "},"â":{"ha":829,"x_min":58,"x_max":722,"o":"m 353 -15 q 203 19 271 -15 q 97 123 136 54 q 58 293 58 192 q 99 465 58 393 q 208 575 140 536 q 354 614 275 614 q 491 580 439 614 q 572 501 543 546 l 564 479 l 579 588 l 722 588 l 722 0 l 567 0 l 567 143 l 582 106 q 560 78 578 97 q 514 38 543 60 q 445 0 485 15 q 353 -15 406 -15 m 396 113 q 474 128 439 113 q 532 171 508 143 q 567 238 556 199 l 567 365 q 531 428 556 401 q 470 471 506 456 q 392 486 435 486 q 303 463 343 486 q 240 397 264 439 q 215 301 215 356 q 240 206 215 249 q 307 138 265 163 q 396 113 349 113 m 536 699 l 415 821 l 457 832 l 335 699 l 192 699 l 432 943 l 433 943 l 678 699 l 536 699 z "},"ấ":{"ha":829,"x_min":58,"x_max":844,"o":"m 353 -15 q 203 19 271 -15 q 97 123 136 54 q 58 293 58 192 q 99 465 58 393 q 208 575 140 536 q 354 614 275 614 q 491 580 439 614 q 572 501 543 546 l 564 479 l 579 588 l 722 588 l 722 0 l 567 0 l 567 143 l 582 106 q 560 78 578 97 q 514 38 543 60 q 445 0 485 15 q 353 -15 406 -15 m 396 113 q 474 128 439 113 q 532 171 508 143 q 567 238 556 199 l 567 365 q 531 428 556 401 q 470 471 506 456 q 392 486 435 486 q 303 463 343 486 q 240 397 264 439 q 215 301 215 356 q 240 206 215 249 q 307 138 265 163 q 396 113 349 113 m 542 694 l 421 817 l 463 828 l 340 694 l 197 694 l 438 939 l 439 939 l 683 694 l 542 694 m 844 1021 l 656 835 l 560 835 l 672 1021 l 844 1021 z "},"ậ":{"ha":829,"x_min":58,"x_max":722,"o":"m 353 -15 q 203 19 271 -15 q 97 123 136 54 q 58 293 58 192 q 99 465 58 393 q 208 575 140 536 q 354 614 275 614 q 491 580 439 614 q 572 501 543 546 l 564 479 l 579 588 l 722 588 l 722 0 l 567 0 l 567 143 l 582 106 q 560 78 578 97 q 514 38 543 60 q 445 0 485 15 q 353 -15 406 -15 m 396 113 q 474 128 439 113 q 532 171 508 143 q 567 238 556 199 l 567 365 q 531 428 556 401 q 470 471 506 456 q 392 486 435 486 q 303 463 343 486 q 240 397 264 439 q 215 301 215 356 q 240 206 215 249 q 307 138 265 163 q 396 113 349 113 m 338 -147 q 362 -97 338 -117 q 414 -78 386 -78 q 465 -97 442 -78 q 488 -147 488 -117 q 465 -197 488 -178 q 414 -217 442 -217 q 362 -197 386 -217 q 338 -147 338 -178 m 536 699 l 415 821 l 457 832 l 335 699 l 192 699 l 432 943 l 433 943 l 678 699 l 536 699 z "},"ầ":{"ha":829,"x_min":-15,"x_max":722,"o":"m 353 -15 q 203 19 271 -15 q 97 123 136 54 q 58 293 58 192 q 99 465 58 393 q 208 575 140 536 q 354 614 275 614 q 491 580 439 614 q 572 501 543 546 l 564 479 l 579 588 l 722 588 l 722 0 l 567 0 l 567 143 l 582 106 q 560 78 578 97 q 514 38 543 60 q 445 0 485 15 q 353 -15 406 -15 m 396 113 q 474 128 439 113 q 532 171 508 143 q 567 238 556 199 l 567 365 q 531 428 556 401 q 470 471 506 456 q 392 486 435 486 q 303 463 343 486 q 240 397 264 439 q 215 301 215 356 q 240 206 215 249 q 307 138 265 163 q 396 113 349 113 m 532 692 l 411 814 l 453 825 l 331 692 l 188 692 l 428 936 l 429 936 l 674 692 l 532 692 m -15 1029 l 157 1029 l 253 843 l 156 843 l -15 1029 z "},"ẩ":{"ha":829,"x_min":58,"x_max":817,"o":"m 353 -15 q 203 19 271 -15 q 97 123 136 54 q 58 293 58 192 q 99 465 58 393 q 208 575 140 536 q 354 614 275 614 q 491 580 439 614 q 572 501 543 546 l 564 479 l 579 588 l 722 588 l 722 0 l 567 0 l 567 143 l 582 106 q 560 78 578 97 q 514 38 543 60 q 445 0 485 15 q 353 -15 406 -15 m 396 113 q 474 128 439 113 q 532 171 508 143 q 567 238 556 199 l 567 365 q 531 428 556 401 q 470 471 506 456 q 392 486 435 486 q 303 463 343 486 q 240 397 264 439 q 215 301 215 356 q 240 206 215 249 q 307 138 265 163 q 396 113 349 113 m 536 694 l 415 817 l 457 828 l 335 694 l 192 694 l 432 939 l 433 939 l 678 694 l 536 694 m 668 843 q 710 880 694 863 q 726 922 726 897 q 716 957 726 943 q 683 971 706 971 q 649 959 664 971 q 624 929 633 947 l 567 965 q 627 1035 590 1013 q 704 1057 664 1057 q 767 1041 743 1057 q 803 999 792 1025 q 815 943 815 972 q 782 859 815 893 q 704 797 749 825 l 668 843 z "},"ẫ":{"ha":829,"x_min":58,"x_max":722,"o":"m 353 -15 q 203 19 271 -15 q 97 123 136 54 q 58 293 58 192 q 99 465 58 393 q 208 575 140 536 q 354 614 275 614 q 491 580 439 614 q 572 501 543 546 l 564 479 l 579 588 l 722 588 l 722 0 l 567 0 l 567 143 l 582 106 q 560 78 578 97 q 514 38 543 60 q 445 0 485 15 q 353 -15 406 -15 m 396 113 q 474 128 439 113 q 532 171 508 143 q 567 238 556 199 l 567 365 q 531 428 556 401 q 470 471 506 456 q 392 486 435 486 q 303 463 343 486 q 240 397 264 439 q 215 301 215 356 q 240 206 215 249 q 307 138 265 163 q 396 113 349 113 m 529 689 l 408 811 l 450 822 l 328 689 l 185 689 l 425 933 l 426 933 l 671 689 l 529 689 m 538 969 q 462 990 492 969 q 407 1031 432 1010 q 375 1057 390 1046 q 340 1068 360 1068 q 310 1055 322 1068 q 293 1019 299 1042 q 289 969 288 997 l 208 969 q 219 1069 203 1024 q 268 1142 235 1115 q 349 1169 301 1169 q 411 1150 385 1169 q 461 1110 438 1131 q 498 1078 481 1092 q 535 1064 515 1064 q 570 1094 561 1064 q 579 1168 579 1125 l 660 1168 q 652 1065 667 1110 q 607 994 638 1019 q 538 969 576 969 z "},"ȁ":{"ha":829,"x_min":58,"x_max":722,"o":"m 353 -15 q 203 19 271 -15 q 97 123 136 54 q 58 293 58 192 q 99 465 58 393 q 208 575 140 536 q 354 614 275 614 q 491 580 439 614 q 572 501 543 546 l 564 479 l 579 588 l 722 588 l 722 0 l 567 0 l 567 143 l 582 106 q 560 78 578 97 q 514 38 543 60 q 445 0 485 15 q 353 -15 406 -15 m 396 113 q 474 128 439 113 q 532 171 508 143 q 567 238 556 199 l 567 365 q 531 428 556 401 q 470 471 506 456 q 392 486 435 486 q 303 463 343 486 q 240 397 264 439 q 215 301 215 356 q 240 206 215 249 q 307 138 265 163 q 396 113 349 113 m 124 885 l 296 885 l 392 699 l 294 699 l 124 885 m 336 885 l 508 885 l 604 699 l 507 699 l 336 885 z "},"ä":{"ha":829,"x_min":58,"x_max":722,"o":"m 353 -15 q 203 19 271 -15 q 97 123 136 54 q 58 293 58 192 q 99 465 58 393 q 208 575 140 536 q 354 614 275 614 q 491 580 439 614 q 572 501 543 546 l 564 479 l 579 588 l 722 588 l 722 0 l 567 0 l 567 143 l 582 106 q 560 78 578 97 q 514 38 543 60 q 445 0 485 15 q 353 -15 406 -15 m 396 113 q 474 128 439 113 q 532 171 508 143 q 567 238 556 199 l 567 365 q 531 428 556 401 q 470 471 506 456 q 392 486 435 486 q 303 463 343 486 q 240 397 264 439 q 215 301 215 356 q 240 206 215 249 q 307 138 265 163 q 396 113 349 113 m 218 763 q 244 823 218 799 q 301 847 271 847 q 358 823 332 847 q 385 763 385 799 q 358 701 385 725 q 301 678 332 678 q 244 701 271 678 q 218 763 218 725 l 218 763 m 485 763 q 511 823 485 799 q 569 847 538 847 q 625 823 599 847 q 651 763 651 799 q 625 701 651 725 q 569 678 599 678 q 511 701 538 678 q 485 763 485 725 l 485 763 z "},"ạ":{"ha":829,"x_min":58,"x_max":722,"o":"m 353 -15 q 203 19 271 -15 q 97 123 136 54 q 58 293 58 192 q 99 465 58 393 q 208 575 140 536 q 354 614 275 614 q 491 580 439 614 q 572 501 543 546 l 564 479 l 579 588 l 722 588 l 722 0 l 567 0 l 567 143 l 582 106 q 560 78 578 97 q 514 38 543 60 q 445 0 485 15 q 353 -15 406 -15 m 396 113 q 474 128 439 113 q 532 171 508 143 q 567 238 556 199 l 567 365 q 531 428 556 401 q 470 471 506 456 q 392 486 435 486 q 303 463 343 486 q 240 397 264 439 q 215 301 215 356 q 240 206 215 249 q 307 138 265 163 q 396 113 349 113 m 338 -147 q 362 -97 338 -117 q 414 -78 386 -78 q 465 -97 442 -78 q 488 -147 488 -117 q 465 -197 488 -178 q 414 -217 442 -217 q 362 -197 386 -217 q 338 -147 338 -178 z "},"à":{"ha":829,"x_min":58,"x_max":722,"o":"m 353 -15 q 203 19 271 -15 q 97 123 136 54 q 58 293 58 192 q 99 465 58 393 q 208 575 140 536 q 354 614 275 614 q 491 580 439 614 q 572 501 543 546 l 564 479 l 579 588 l 722 588 l 722 0 l 567 0 l 567 143 l 582 106 q 560 78 578 97 q 514 38 543 60 q 445 0 485 15 q 353 -15 406 -15 m 396 113 q 474 128 439 113 q 532 171 508 143 q 567 238 556 199 l 567 365 q 531 428 556 401 q 470 471 506 456 q 392 486 435 486 q 303 463 343 486 q 240 397 264 439 q 215 301 215 356 q 240 206 215 249 q 307 138 265 163 q 396 113 349 113 m 217 885 l 389 885 l 485 699 l 388 699 l 217 885 z "},"ả":{"ha":829,"x_min":58,"x_max":722,"o":"m 353 -15 q 203 19 271 -15 q 97 123 136 54 q 58 293 58 192 q 99 465 58 393 q 208 575 140 536 q 354 614 275 614 q 491 580 439 614 q 572 501 543 546 l 564 479 l 579 588 l 722 588 l 722 0 l 567 0 l 567 143 l 582 106 q 560 78 578 97 q 514 38 543 60 q 445 0 485 15 q 353 -15 406 -15 m 396 113 q 474 128 439 113 q 532 171 508 143 q 567 238 556 199 l 567 365 q 531 428 556 401 q 470 471 506 456 q 392 486 435 486 q 303 463 343 486 q 240 397 264 439 q 215 301 215 356 q 240 206 215 249 q 307 138 265 163 q 396 113 349 113 m 403 719 q 445 756 429 739 q 461 799 461 774 q 451 833 461 819 q 418 847 440 847 q 383 835 399 847 q 358 806 368 824 l 301 842 q 362 911 325 889 q 439 933 399 933 q 502 917 478 933 q 538 875 526 901 q 550 819 550 849 q 517 735 550 769 q 439 674 483 701 l 403 719 z "},"ȃ":{"ha":829,"x_min":58,"x_max":722,"o":"m 353 -15 q 203 19 271 -15 q 97 123 136 54 q 58 293 58 192 q 99 465 58 393 q 208 575 140 536 q 354 614 275 614 q 491 580 439 614 q 572 501 543 546 l 564 479 l 579 588 l 722 588 l 722 0 l 567 0 l 567 143 l 582 106 q 560 78 578 97 q 514 38 543 60 q 445 0 485 15 q 353 -15 406 -15 m 396 113 q 474 128 439 113 q 532 171 508 143 q 567 238 556 199 l 567 365 q 531 428 556 401 q 470 471 506 456 q 392 486 435 486 q 303 463 343 486 q 240 397 264 439 q 215 301 215 356 q 240 206 215 249 q 307 138 265 163 q 396 113 349 113 m 442 915 q 547 887 503 915 q 620 803 592 858 q 661 665 649 747 l 557 665 q 536 741 550 708 q 499 792 522 774 q 442 811 476 811 q 384 792 407 811 q 348 741 361 774 q 329 665 335 708 l 224 665 q 264 805 236 749 q 336 888 292 861 q 442 915 381 915 z "},"ā":{"ha":829,"x_min":58,"x_max":722,"o":"m 353 -15 q 203 19 271 -15 q 97 123 136 54 q 58 293 58 192 q 99 465 58 393 q 208 575 140 536 q 354 614 275 614 q 491 580 439 614 q 572 501 543 546 l 564 479 l 579 588 l 722 588 l 722 0 l 567 0 l 567 143 l 582 106 q 560 78 578 97 q 514 38 543 60 q 445 0 485 15 q 353 -15 406 -15 m 396 113 q 474 128 439 113 q 532 171 508 143 q 567 238 556 199 l 567 365 q 531 428 556 401 q 470 471 506 456 q 392 486 435 486 q 303 463 343 486 q 240 397 264 439 q 215 301 215 356 q 240 206 215 249 q 307 138 265 163 q 396 113 349 113 m 264 789 l 610 789 l 610 679 l 264 679 l 264 789 z "},"ą":{"ha":838,"x_min":63,"x_max":803,"o":"m 353 -15 q 206 19 272 -15 q 101 123 140 54 q 63 293 63 192 q 103 465 63 393 q 210 575 143 536 q 353 614 276 614 q 454 599 413 614 q 524 558 496 583 q 572 501 553 532 l 583 588 l 726 588 l 726 0 q 624 -59 664 -28 q 585 -133 585 -90 q 605 -183 585 -169 q 649 -197 625 -197 q 701 -181 676 -197 q 746 -131 725 -164 l 803 -211 q 728 -281 776 -253 q 635 -308 681 -308 q 508 -263 561 -308 q 456 -146 456 -218 q 488 -54 456 -99 q 576 14 521 -10 l 590 -7 l 571 -28 l 571 142 l 583 106 q 537 58 567 86 q 462 7 507 29 q 353 -15 417 -15 m 396 113 q 475 128 440 113 q 535 171 510 143 q 571 238 560 199 l 571 365 q 535 428 560 401 q 474 471 510 456 q 396 486 439 486 q 308 463 349 486 q 244 397 268 439 q 219 301 219 356 q 244 206 219 249 q 308 138 268 163 q 396 113 349 113 z "},"å":{"ha":829,"x_min":58,"x_max":722,"o":"m 353 -15 q 203 19 271 -15 q 97 123 136 54 q 58 293 58 192 q 99 465 58 393 q 208 575 140 536 q 354 614 275 614 q 491 580 439 614 q 572 501 543 546 l 564 479 l 579 588 l 722 588 l 722 0 l 567 0 l 567 143 l 582 106 q 560 78 578 97 q 514 38 543 60 q 445 0 485 15 q 353 -15 406 -15 m 396 113 q 474 128 439 113 q 532 171 508 143 q 567 238 556 199 l 567 365 q 531 428 556 401 q 470 471 506 456 q 392 486 435 486 q 303 463 343 486 q 240 397 264 439 q 215 301 215 356 q 240 206 215 249 q 307 138 265 163 q 396 113 349 113 m 281 788 q 320 883 281 847 q 421 919 360 919 q 521 883 481 919 q 561 788 561 847 q 521 691 561 728 q 421 654 481 654 q 321 691 361 654 q 281 788 281 728 m 364 785 q 380 742 364 758 q 421 725 396 725 q 463 742 447 725 q 478 785 478 758 q 463 829 478 814 q 421 844 447 844 q 380 829 396 844 q 364 785 364 814 z "},"ǻ":{"ha":829,"x_min":58,"x_max":722,"o":"m 353 -15 q 203 19 271 -15 q 97 123 136 54 q 58 293 58 192 q 99 465 58 393 q 208 575 140 536 q 354 614 275 614 q 491 580 439 614 q 572 501 543 546 l 564 479 l 579 588 l 722 588 l 722 0 l 567 0 l 567 143 l 582 106 q 560 78 578 97 q 514 38 543 60 q 445 0 485 15 q 353 -15 406 -15 m 396 113 q 474 128 439 113 q 532 171 508 143 q 567 238 556 199 l 567 365 q 531 428 556 401 q 470 471 506 456 q 392 486 435 486 q 303 463 343 486 q 240 397 264 439 q 215 301 215 356 q 240 206 215 249 q 307 138 265 163 q 396 113 349 113 m 281 788 q 320 883 281 847 q 421 919 360 919 q 521 883 481 919 q 561 788 561 847 q 521 691 561 728 q 421 654 481 654 q 321 691 361 654 q 281 788 281 728 m 364 785 q 380 742 364 758 q 421 725 396 725 q 463 742 447 725 q 478 785 478 758 q 463 829 478 814 q 421 844 447 844 q 380 829 396 844 q 364 785 364 814 m 614 1188 l 425 1001 l 329 1001 l 442 1188 l 614 1188 z "},"ã":{"ha":829,"x_min":58,"x_max":722,"o":"m 353 -15 q 203 19 271 -15 q 97 123 136 54 q 58 293 58 192 q 99 465 58 393 q 208 575 140 536 q 354 614 275 614 q 491 580 439 614 q 572 501 543 546 l 564 479 l 579 588 l 722 588 l 722 0 l 567 0 l 567 143 l 582 106 q 560 78 578 97 q 514 38 543 60 q 445 0 485 15 q 353 -15 406 -15 m 396 113 q 474 128 439 113 q 532 171 508 143 q 567 238 556 199 l 567 365 q 531 428 556 401 q 470 471 506 456 q 392 486 435 486 q 303 463 343 486 q 240 397 264 439 q 215 301 215 356 q 240 206 215 249 q 307 138 265 163 q 396 113 349 113 m 544 664 q 469 684 499 664 q 414 725 439 704 q 382 751 397 740 q 347 763 367 763 q 317 749 329 763 q 300 714 306 736 q 296 664 294 692 l 215 664 q 226 764 210 718 q 275 837 242 810 q 356 864 308 864 q 418 844 392 864 q 468 804 444 825 q 505 772 488 786 q 542 758 522 758 q 577 789 568 758 q 586 863 586 819 l 667 863 q 659 759 674 804 q 614 689 644 714 q 544 664 583 664 z "},"æ":{"ha":1150,"x_min":58,"x_max":1104,"o":"m 289 -15 q 158 8 210 -15 q 83 74 107 32 q 58 168 58 117 q 93 267 58 226 q 185 329 128 307 q 304 351 242 351 q 429 332 368 351 q 522 285 490 313 l 497 194 q 423 236 456 224 q 340 249 390 249 q 284 241 310 249 q 244 217 258 233 q 229 172 229 200 q 256 115 229 136 q 332 93 283 93 q 387 102 358 93 q 440 127 415 111 q 481 163 465 143 l 481 236 l 543 236 l 543 94 q 474 33 515 57 q 386 -3 433 8 q 289 -15 339 -15 m 468 290 l 468 365 q 445 440 468 414 q 393 476 422 467 q 342 485 364 485 q 244 458 288 485 q 174 396 201 431 l 96 494 q 206 577 140 542 q 364 613 272 613 q 494 590 436 613 q 585 522 551 567 q 618 407 618 476 l 618 371 l 468 290 m 797 -15 q 620 25 693 -15 q 508 136 547 65 q 468 299 468 207 q 513 458 468 386 q 633 572 557 529 q 800 614 708 614 q 999 544 921 614 q 1104 346 1078 474 l 631 186 l 594 274 l 965 406 l 932 388 q 883 460 918 429 q 788 492 849 492 q 701 468 739 492 q 642 403 664 444 q 621 307 621 363 q 644 206 621 249 q 708 141 668 164 q 800 118 749 118 q 869 131 836 118 q 932 164 903 143 l 1003 49 q 902 2 957 19 q 797 -15 847 -15 z "},"ǽ":{"ha":1150,"x_min":58,"x_max":1104,"o":"m 289 -15 q 158 8 210 -15 q 83 74 107 32 q 58 168 58 117 q 93 267 58 226 q 185 329 128 307 q 304 351 242 351 q 429 332 368 351 q 522 285 490 313 l 497 194 q 423 236 456 224 q 340 249 390 249 q 284 241 310 249 q 244 217 258 233 q 229 172 229 200 q 256 115 229 136 q 332 93 283 93 q 387 102 358 93 q 440 127 415 111 q 481 163 465 143 l 481 236 l 543 236 l 543 94 q 474 33 515 57 q 386 -3 433 8 q 289 -15 339 -15 m 468 290 l 468 365 q 445 440 468 414 q 393 476 422 467 q 342 485 364 485 q 244 458 288 485 q 174 396 201 431 l 96 494 q 206 577 140 542 q 364 613 272 613 q 494 590 436 613 q 585 522 551 567 q 618 407 618 476 l 618 371 l 468 290 m 797 -15 q 620 25 693 -15 q 508 136 547 65 q 468 299 468 207 q 513 458 468 386 q 633 572 557 529 q 800 614 708 614 q 999 544 921 614 q 1104 346 1078 474 l 631 186 l 594 274 l 965 406 l 932 388 q 883 460 918 429 q 788 492 849 492 q 701 468 739 492 q 642 403 664 444 q 621 307 621 363 q 644 206 621 249 q 708 141 668 164 q 800 118 749 118 q 869 131 836 118 q 932 164 903 143 l 1003 49 q 902 2 957 19 q 797 -15 847 -15 m 750 856 l 561 669 l 465 669 l 578 856 l 750 856 z "},"b":{"ha":840,"x_min":107,"x_max":782,"o":"m 478 -15 q 342 16 399 -15 q 247 96 285 47 l 263 136 l 263 0 l 107 0 l 107 1083 l 261 1083 l 261 467 l 260 521 q 357 588 294 563 q 497 614 419 614 q 641 576 576 614 q 744 470 706 539 q 782 304 782 401 q 740 133 782 206 q 628 23 699 61 q 478 -15 558 -15 m 444 117 q 535 141 494 117 q 601 208 576 165 q 625 306 625 251 q 601 400 625 358 q 535 467 576 442 q 444 492 494 492 q 363 476 400 492 q 301 433 326 460 q 263 368 275 406 l 263 239 q 301 175 276 203 q 363 132 326 147 q 444 117 399 117 z "},"c":{"ha":646,"x_min":58,"x_max":597,"o":"m 593 54 q 498 3 554 22 q 385 -15 442 -15 q 214 23 288 -15 q 99 130 140 61 q 58 294 58 199 q 102 460 58 390 q 217 566 146 529 q 368 603 289 603 q 500 583 443 603 q 597 528 557 563 l 521 426 q 463 460 499 444 q 382 476 428 476 q 297 453 336 476 q 236 388 258 429 q 214 294 214 347 q 238 203 214 244 q 302 137 261 161 q 397 113 343 113 q 463 123 433 113 q 515 151 492 133 l 593 54 z "},"ć":{"ha":646,"x_min":58,"x_max":597,"o":"m 593 54 q 498 3 554 22 q 385 -15 442 -15 q 214 23 288 -15 q 99 130 140 61 q 58 294 58 199 q 102 460 58 390 q 217 566 146 529 q 368 603 289 603 q 500 583 443 603 q 597 528 557 563 l 521 426 q 463 460 499 444 q 382 476 428 476 q 297 453 336 476 q 236 388 258 429 q 214 294 214 347 q 238 203 214 244 q 302 137 261 161 q 397 113 343 113 q 463 123 433 113 q 515 151 492 133 l 593 54 m 531 867 l 342 681 l 246 681 l 358 867 l 531 867 z "},"č":{"ha":646,"x_min":58,"x_max":608,"o":"m 593 54 q 498 3 554 22 q 385 -15 442 -15 q 214 23 288 -15 q 99 130 140 61 q 58 294 58 199 q 102 460 58 390 q 217 566 146 529 q 368 603 289 603 q 500 583 443 603 q 597 528 557 563 l 521 426 q 463 460 499 444 q 382 476 428 476 q 297 453 336 476 q 236 388 258 429 q 214 294 214 347 q 238 203 214 244 q 302 137 261 161 q 397 113 343 113 q 463 123 433 113 q 515 151 492 133 l 593 54 m 264 915 l 386 793 l 343 782 l 467 915 l 608 915 l 368 671 l 367 671 l 122 915 l 264 915 z "},"ç":{"ha":646,"x_min":58,"x_max":597,"o":"m 593 54 q 498 3 554 22 q 385 -15 442 -15 q 214 23 288 -15 q 99 130 140 61 q 58 294 58 199 q 102 460 58 390 q 217 566 146 529 q 368 603 289 603 q 500 583 443 603 q 597 528 557 563 l 521 426 q 463 460 499 444 q 382 476 428 476 q 297 453 336 476 q 236 388 258 429 q 214 294 214 347 q 238 203 214 244 q 302 137 261 161 q 397 113 343 113 q 463 123 433 113 q 515 151 492 133 l 593 54 m 210 -203 q 248 -228 225 -218 q 299 -239 271 -239 q 358 -224 331 -239 q 386 -182 386 -210 q 369 -143 386 -161 q 303 -125 351 -125 q 257 -131 281 -125 q 215 -142 233 -136 l 190 -68 l 286 15 l 406 11 l 303 -106 l 271 -68 q 305 -60 286 -62 q 342 -56 324 -57 q 467 -85 417 -54 q 517 -179 517 -117 q 488 -260 517 -228 q 413 -307 458 -292 q 315 -322 368 -322 q 222 -306 260 -322 q 161 -265 185 -289 l 210 -203 z "},"ĉ":{"ha":646,"x_min":58,"x_max":597,"o":"m 593 54 q 498 3 554 22 q 385 -15 442 -15 q 214 23 288 -15 q 99 130 140 61 q 58 294 58 199 q 102 460 58 390 q 217 566 146 529 q 368 603 289 603 q 500 583 443 603 q 597 528 557 563 l 521 426 q 463 460 499 444 q 382 476 428 476 q 297 453 336 476 q 236 388 258 429 q 214 294 214 347 q 238 203 214 244 q 302 137 261 161 q 397 113 343 113 q 463 123 433 113 q 515 151 492 133 l 593 54 m 453 688 l 332 810 l 374 821 l 251 688 l 108 688 l 349 932 l 350 932 l 594 688 l 453 688 z "},"ċ":{"ha":646,"x_min":58,"x_max":597,"o":"m 593 54 q 498 3 554 22 q 385 -15 442 -15 q 214 23 288 -15 q 99 130 140 61 q 58 294 58 199 q 102 460 58 390 q 217 566 146 529 q 368 603 289 603 q 500 583 443 603 q 597 528 557 563 l 521 426 q 463 460 499 444 q 382 476 428 476 q 297 453 336 476 q 236 388 258 429 q 214 294 214 347 q 238 203 214 244 q 302 137 261 161 q 397 113 343 113 q 463 123 433 113 q 515 151 492 133 l 593 54 m 265 808 q 294 868 265 844 q 356 892 322 892 q 415 868 389 892 q 442 808 442 844 q 415 749 442 772 q 356 726 389 726 q 294 750 322 726 q 265 808 265 774 z "},"d":{"ha":840,"x_min":58,"x_max":733,"o":"m 347 -15 q 199 24 265 -15 q 96 135 133 63 q 58 303 58 207 q 99 471 58 401 q 209 577 139 540 q 367 614 279 614 q 489 590 431 614 q 582 519 547 565 l 579 467 l 579 1083 l 733 1083 l 733 0 l 578 0 l 578 133 l 593 94 q 488 16 549 47 q 347 -15 426 -15 m 396 117 q 478 132 443 117 q 540 176 514 147 q 578 243 565 204 l 578 368 q 541 432 567 404 q 478 476 515 460 q 396 492 440 492 q 306 467 347 492 q 240 401 265 443 q 215 306 215 360 q 240 210 215 253 q 307 142 265 167 q 396 117 349 117 z "},"ð":{"ha":771,"x_min":58,"x_max":713,"o":"m 372 -15 q 213 23 285 -15 q 100 132 142 61 q 58 300 58 203 q 97 460 58 389 q 202 573 136 532 q 349 614 268 614 q 457 588 410 614 q 538 519 504 561 q 591 426 572 476 q 613 328 610 376 l 556 353 q 528 547 553 460 q 459 708 504 635 q 351 846 414 781 q 208 975 288 911 l 322 1076 q 477 940 406 1021 q 601 763 549 860 q 683 562 654 667 q 713 356 713 457 q 690 220 713 286 q 625 101 668 154 q 519 16 582 47 q 372 -15 456 -15 m 385 113 q 474 138 436 113 q 534 205 513 163 q 556 299 556 247 q 534 394 556 351 q 474 461 513 436 q 385 486 436 486 q 298 460 336 486 q 238 393 260 435 q 215 299 215 351 q 238 205 215 247 q 299 138 260 163 q 385 113 338 113 m 628 933 l 276 715 l 225 818 l 576 1035 l 628 933 z "},"ď":{"ha":986,"x_min":58,"x_max":1007,"o":"m 347 -15 q 199 24 265 -15 q 96 135 133 63 q 58 303 58 207 q 99 471 58 401 q 209 577 139 540 q 367 614 279 614 q 489 590 431 614 q 582 519 547 565 l 579 467 l 579 1083 l 733 1083 l 733 0 l 578 0 l 578 133 l 593 94 q 488 16 549 47 q 347 -15 426 -15 m 396 117 q 478 132 443 117 q 540 176 514 147 q 578 243 565 204 l 578 368 q 541 432 567 404 q 478 476 515 460 q 396 492 440 492 q 306 467 347 492 q 240 401 265 443 q 215 306 215 360 q 240 210 215 253 q 307 142 265 167 q 396 117 349 117 m 900 857 l 821 893 q 868 971 850 921 q 876 1069 886 1021 l 999 1079 q 994 996 1007 1040 q 957 915 982 951 q 900 857 932 878 l 900 857 z "},"đ":{"ha":840,"x_min":58,"x_max":850,"o":"m 347 -15 q 199 24 265 -15 q 96 135 133 63 q 58 303 58 207 q 99 471 58 401 q 209 577 139 540 q 367 614 279 614 q 489 590 431 614 q 582 519 547 565 l 579 467 l 579 1083 l 733 1083 l 733 0 l 578 0 l 578 133 l 593 94 q 488 16 549 47 q 347 -15 426 -15 m 396 117 q 478 132 443 117 q 540 176 514 147 q 578 243 565 204 l 578 368 q 541 432 567 404 q 478 476 515 460 q 396 492 440 492 q 306 467 347 492 q 240 401 265 443 q 215 306 215 360 q 240 210 215 253 q 307 142 265 167 q 396 117 349 117 m 444 954 l 850 954 l 850 810 l 444 810 l 444 954 z "},"ǳ":{"ha":1517,"x_min":58,"x_max":1444,"o":"m 347 -15 q 199 24 265 -15 q 96 135 133 63 q 58 303 58 207 q 99 471 58 401 q 209 577 139 540 q 367 614 279 614 q 489 590 431 614 q 582 519 547 565 l 579 467 l 579 1083 l 733 1083 l 733 0 l 578 0 l 578 133 l 593 94 q 488 16 549 47 q 347 -15 426 -15 m 396 117 q 478 132 443 117 q 540 176 514 147 q 578 243 565 204 l 578 368 q 541 432 567 404 q 478 476 515 460 q 396 492 440 492 q 306 467 347 492 q 240 401 265 443 q 215 306 215 360 q 240 210 215 253 q 307 142 265 167 q 396 117 349 117 m 1018 461 q 939 492 972 461 q 906 578 906 522 l 906 644 l 1022 644 l 1022 625 q 1033 594 1022 600 q 1069 588 1044 588 l 1444 588 l 1103 94 l 1074 128 l 1440 128 l 1440 0 l 875 0 l 1224 506 l 1249 461 l 1018 461 z "},"ǆ":{"ha":1517,"x_min":58,"x_max":1444,"o":"m 347 -15 q 199 24 265 -15 q 96 135 133 63 q 58 303 58 207 q 99 471 58 401 q 209 577 139 540 q 367 614 279 614 q 489 590 431 614 q 582 519 547 565 l 579 467 l 579 1083 l 733 1083 l 733 0 l 578 0 l 578 133 l 593 94 q 488 16 549 47 q 347 -15 426 -15 m 396 117 q 478 132 443 117 q 540 176 514 147 q 578 243 565 204 l 578 368 q 541 432 567 404 q 478 476 515 460 q 396 492 440 492 q 306 467 347 492 q 240 401 265 443 q 215 306 215 360 q 240 210 215 253 q 307 142 265 167 q 396 117 349 117 m 1018 461 q 939 492 972 461 q 906 578 906 522 l 906 644 l 1022 644 l 1022 625 q 1033 594 1022 600 q 1069 588 1044 588 l 1444 588 l 1103 94 l 1074 128 l 1440 128 l 1440 0 l 875 0 l 1224 506 l 1249 461 l 1018 461 m 1092 904 l 1214 782 l 1171 771 l 1294 904 l 1436 904 l 1196 660 l 1194 660 l 950 904 l 1092 904 z "},"e":{"ha":740,"x_min":58,"x_max":694,"o":"m 388 -15 q 210 25 283 -15 q 97 136 136 65 q 58 299 58 207 q 103 458 58 386 q 223 572 147 529 q 390 614 299 614 q 590 544 511 614 q 694 346 668 474 l 221 186 l 185 274 l 556 406 l 522 388 q 474 460 508 429 q 378 492 439 492 q 292 468 329 492 q 233 403 254 444 q 211 307 211 363 q 235 206 211 249 q 299 141 258 164 q 390 118 339 118 q 459 131 426 118 q 522 164 492 143 l 593 49 q 492 2 547 19 q 388 -15 438 -15 z "},"é":{"ha":740,"x_min":58,"x_max":694,"o":"m 388 -15 q 210 25 283 -15 q 97 136 136 65 q 58 299 58 207 q 103 458 58 386 q 223 572 147 529 q 390 614 299 614 q 590 544 511 614 q 694 346 668 474 l 221 186 l 185 274 l 556 406 l 522 388 q 474 460 508 429 q 378 492 439 492 q 292 468 329 492 q 233 403 254 444 q 211 307 211 363 q 235 206 211 249 q 299 141 258 164 q 390 118 339 118 q 459 131 426 118 q 522 164 492 143 l 593 49 q 492 2 547 19 q 388 -15 438 -15 m 561 879 l 372 693 l 276 693 l 389 879 l 561 879 z "},"ĕ":{"ha":740,"x_min":58,"x_max":694,"o":"m 388 -15 q 210 25 283 -15 q 97 136 136 65 q 58 299 58 207 q 103 458 58 386 q 223 572 147 529 q 390 614 299 614 q 590 544 511 614 q 694 346 668 474 l 221 186 l 185 274 l 556 406 l 522 388 q 474 460 508 429 q 378 492 439 492 q 292 468 329 492 q 233 403 254 444 q 211 307 211 363 q 235 206 211 249 q 299 141 258 164 q 390 118 339 118 q 459 131 426 118 q 522 164 492 143 l 593 49 q 492 2 547 19 q 388 -15 438 -15 m 388 672 q 281 701 326 672 q 208 785 236 729 q 168 922 181 840 l 272 922 q 293 847 279 881 q 331 795 307 814 q 388 776 354 776 q 446 795 424 776 q 481 847 468 814 q 500 922 493 881 l 606 922 q 565 783 593 839 q 493 699 538 726 q 388 672 449 672 z "},"ě":{"ha":740,"x_min":58,"x_max":694,"o":"m 388 -15 q 210 25 283 -15 q 97 136 136 65 q 58 299 58 207 q 103 458 58 386 q 223 572 147 529 q 390 614 299 614 q 590 544 511 614 q 694 346 668 474 l 221 186 l 185 274 l 556 406 l 522 388 q 474 460 508 429 q 378 492 439 492 q 292 468 329 492 q 233 403 254 444 q 211 307 211 363 q 235 206 211 249 q 299 141 258 164 q 390 118 339 118 q 459 131 426 118 q 522 164 492 143 l 593 49 q 492 2 547 19 q 388 -15 438 -15 m 294 926 l 417 804 l 374 793 l 497 926 l 639 926 l 399 682 l 397 682 l 153 926 l 294 926 z "},"ê":{"ha":740,"x_min":58,"x_max":694,"o":"m 388 -15 q 210 25 283 -15 q 97 136 136 65 q 58 299 58 207 q 103 458 58 386 q 223 572 147 529 q 390 614 299 614 q 590 544 511 614 q 694 346 668 474 l 221 186 l 185 274 l 556 406 l 522 388 q 474 460 508 429 q 378 492 439 492 q 292 468 329 492 q 233 403 254 444 q 211 307 211 363 q 235 206 211 249 q 299 141 258 164 q 390 118 339 118 q 459 131 426 118 q 522 164 492 143 l 593 49 q 492 2 547 19 q 388 -15 438 -15 m 485 700 l 364 822 l 406 833 l 283 700 l 140 700 l 381 944 l 382 944 l 626 700 l 485 700 z "},"ế":{"ha":740,"x_min":58,"x_max":793,"o":"m 388 -15 q 210 25 283 -15 q 97 136 136 65 q 58 299 58 207 q 103 458 58 386 q 223 572 147 529 q 390 614 299 614 q 590 544 511 614 q 694 346 668 474 l 221 186 l 185 274 l 556 406 l 522 388 q 474 460 508 429 q 378 492 439 492 q 292 468 329 492 q 233 403 254 444 q 211 307 211 363 q 235 206 211 249 q 299 141 258 164 q 390 118 339 118 q 459 131 426 118 q 522 164 492 143 l 593 49 q 492 2 547 19 q 388 -15 438 -15 m 489 696 l 368 818 l 410 829 l 288 696 l 144 696 l 385 940 l 386 940 l 631 696 l 489 696 m 793 1022 l 604 836 l 508 836 l 621 1022 l 793 1022 z "},"ệ":{"ha":740,"x_min":58,"x_max":694,"o":"m 388 -15 q 210 25 283 -15 q 97 136 136 65 q 58 299 58 207 q 103 458 58 386 q 223 572 147 529 q 390 614 299 614 q 590 544 511 614 q 694 346 668 474 l 221 186 l 185 274 l 556 406 l 522 388 q 474 460 508 429 q 378 492 439 492 q 292 468 329 492 q 233 403 254 444 q 211 307 211 363 q 235 206 211 249 q 299 141 258 164 q 390 118 339 118 q 459 131 426 118 q 522 164 492 143 l 593 49 q 492 2 547 19 q 388 -15 438 -15 m 294 -147 q 319 -97 294 -117 q 371 -78 343 -78 q 422 -97 399 -78 q 444 -147 444 -117 q 422 -197 444 -178 q 371 -217 399 -217 q 319 -197 343 -217 q 294 -147 294 -178 m 485 700 l 364 822 l 406 833 l 283 700 l 140 700 l 381 944 l 382 944 l 626 700 l 485 700 z "},"ề":{"ha":740,"x_min":-67,"x_max":694,"o":"m 388 -15 q 210 25 283 -15 q 97 136 136 65 q 58 299 58 207 q 103 458 58 386 q 223 572 147 529 q 390 614 299 614 q 590 544 511 614 q 694 346 668 474 l 221 186 l 185 274 l 556 406 l 522 388 q 474 460 508 429 q 378 492 439 492 q 292 468 329 492 q 233 403 254 444 q 211 307 211 363 q 235 206 211 249 q 299 141 258 164 q 390 118 339 118 q 459 131 426 118 q 522 164 492 143 l 593 49 q 492 2 547 19 q 388 -15 438 -15 m 479 693 l 358 815 l 400 826 l 278 693 l 135 693 l 375 938 l 376 938 l 621 693 l 479 693 m -68 1029 l 104 1029 l 200 843 l 103 843 l -68 1029 z "},"ể":{"ha":740,"x_min":58,"x_max":764,"o":"m 388 -15 q 210 25 283 -15 q 97 136 136 65 q 58 299 58 207 q 103 458 58 386 q 223 572 147 529 q 390 614 299 614 q 590 544 511 614 q 694 346 668 474 l 221 186 l 185 274 l 556 406 l 522 388 q 474 460 508 429 q 378 492 439 492 q 292 468 329 492 q 233 403 254 444 q 211 307 211 363 q 235 206 211 249 q 299 141 258 164 q 390 118 339 118 q 459 131 426 118 q 522 164 492 143 l 593 49 q 492 2 547 19 q 388 -15 438 -15 m 483 696 l 363 818 l 404 829 l 282 696 l 139 696 l 379 940 l 381 940 l 625 696 l 483 696 m 617 844 q 659 881 643 864 q 675 924 675 899 q 665 958 675 944 q 632 972 654 972 q 597 960 613 972 q 572 931 582 949 l 515 967 q 576 1036 539 1014 q 653 1058 613 1058 q 716 1042 692 1058 q 752 1000 740 1026 q 764 944 764 974 q 731 860 764 894 q 653 799 697 826 l 617 844 z "},"ễ":{"ha":740,"x_min":58,"x_max":694,"o":"m 388 -15 q 210 25 283 -15 q 97 136 136 65 q 58 299 58 207 q 103 458 58 386 q 223 572 147 529 q 390 614 299 614 q 590 544 511 614 q 694 346 668 474 l 221 186 l 185 274 l 556 406 l 522 388 q 474 460 508 429 q 378 492 439 492 q 292 468 329 492 q 233 403 254 444 q 211 307 211 363 q 235 206 211 249 q 299 141 258 164 q 390 118 339 118 q 459 131 426 118 q 522 164 492 143 l 593 49 q 492 2 547 19 q 388 -15 438 -15 m 476 689 l 356 811 l 397 822 l 275 689 l 132 689 l 372 933 l 374 933 l 618 689 l 476 689 m 485 971 q 409 991 439 971 q 354 1032 379 1011 q 322 1058 338 1047 q 288 1069 307 1069 q 258 1056 269 1069 q 240 1021 246 1043 q 236 971 235 999 l 156 971 q 166 1071 150 1025 q 215 1144 182 1117 q 296 1171 249 1171 q 358 1151 332 1171 q 408 1111 385 1132 q 445 1079 428 1093 q 482 1065 463 1065 q 517 1096 508 1065 q 526 1169 526 1126 l 607 1169 q 599 1066 614 1111 q 554 996 585 1021 q 485 971 524 971 z "},"ȅ":{"ha":740,"x_min":58,"x_max":694,"o":"m 388 -15 q 210 25 283 -15 q 97 136 136 65 q 58 299 58 207 q 103 458 58 386 q 223 572 147 529 q 390 614 299 614 q 590 544 511 614 q 694 346 668 474 l 221 186 l 185 274 l 556 406 l 522 388 q 474 460 508 429 q 378 492 439 492 q 292 468 329 492 q 233 403 254 444 q 211 307 211 363 q 235 206 211 249 q 299 141 258 164 q 390 118 339 118 q 459 131 426 118 q 522 164 492 143 l 593 49 q 492 2 547 19 q 388 -15 438 -15 m 71 885 l 243 885 l 339 699 l 242 699 l 71 885 m 285 885 l 457 885 l 553 699 l 456 699 l 285 885 z "},"ë":{"ha":740,"x_min":58,"x_max":694,"o":"m 388 -15 q 210 25 283 -15 q 97 136 136 65 q 58 299 58 207 q 103 458 58 386 q 223 572 147 529 q 390 614 299 614 q 590 544 511 614 q 694 346 668 474 l 221 186 l 185 274 l 556 406 l 522 388 q 474 460 508 429 q 378 492 439 492 q 292 468 329 492 q 233 403 254 444 q 211 307 211 363 q 235 206 211 249 q 299 141 258 164 q 390 118 339 118 q 459 131 426 118 q 522 164 492 143 l 593 49 q 492 2 547 19 q 388 -15 438 -15 m 165 763 q 192 823 165 799 q 249 847 218 847 q 306 823 279 847 q 332 763 332 799 q 306 701 332 725 q 249 678 279 678 q 192 701 218 678 q 165 763 165 725 l 165 763 m 432 763 q 458 823 432 799 q 517 847 485 847 q 572 823 546 847 q 599 763 599 799 q 572 701 599 725 q 517 678 546 678 q 458 701 485 678 q 432 763 432 725 l 432 763 z "},"ė":{"ha":740,"x_min":58,"x_max":694,"o":"m 388 -15 q 210 25 283 -15 q 97 136 136 65 q 58 299 58 207 q 103 458 58 386 q 223 572 147 529 q 390 614 299 614 q 590 544 511 614 q 694 346 668 474 l 221 186 l 185 274 l 556 406 l 522 388 q 474 460 508 429 q 378 492 439 492 q 292 468 329 492 q 233 403 254 444 q 211 307 211 363 q 235 206 211 249 q 299 141 258 164 q 390 118 339 118 q 459 131 426 118 q 522 164 492 143 l 593 49 q 492 2 547 19 q 388 -15 438 -15 m 297 821 q 326 881 297 857 q 388 904 354 904 q 447 881 421 904 q 474 821 474 857 q 447 762 474 785 q 388 739 421 739 q 326 763 354 739 q 297 821 297 786 z "},"ẹ":{"ha":740,"x_min":58,"x_max":694,"o":"m 388 -15 q 210 25 283 -15 q 97 136 136 65 q 58 299 58 207 q 103 458 58 386 q 223 572 147 529 q 390 614 299 614 q 590 544 511 614 q 694 346 668 474 l 221 186 l 185 274 l 556 406 l 522 388 q 474 460 508 429 q 378 492 439 492 q 292 468 329 492 q 233 403 254 444 q 211 307 211 363 q 235 206 211 249 q 299 141 258 164 q 390 118 339 118 q 459 131 426 118 q 522 164 492 143 l 593 49 q 492 2 547 19 q 388 -15 438 -15 m 294 -147 q 319 -97 294 -117 q 371 -78 343 -78 q 422 -97 399 -78 q 444 -147 444 -117 q 422 -197 444 -178 q 371 -217 399 -217 q 319 -197 343 -217 q 294 -147 294 -178 z "},"è":{"ha":740,"x_min":58,"x_max":694,"o":"m 388 -15 q 210 25 283 -15 q 97 136 136 65 q 58 299 58 207 q 103 458 58 386 q 223 572 147 529 q 390 614 299 614 q 590 544 511 614 q 694 346 668 474 l 221 186 l 185 274 l 556 406 l 522 388 q 474 460 508 429 q 378 492 439 492 q 292 468 329 492 q 233 403 254 444 q 211 307 211 363 q 235 206 211 249 q 299 141 258 164 q 390 118 339 118 q 459 131 426 118 q 522 164 492 143 l 593 49 q 492 2 547 19 q 388 -15 438 -15 m 165 885 l 338 885 l 433 699 l 336 699 l 165 885 z "},"ẻ":{"ha":740,"x_min":58,"x_max":694,"o":"m 388 -15 q 210 25 283 -15 q 97 136 136 65 q 58 299 58 207 q 103 458 58 386 q 223 572 147 529 q 390 614 299 614 q 590 544 511 614 q 694 346 668 474 l 221 186 l 185 274 l 556 406 l 522 388 q 474 460 508 429 q 378 492 439 492 q 292 468 329 492 q 233 403 254 444 q 211 307 211 363 q 235 206 211 249 q 299 141 258 164 q 390 118 339 118 q 459 131 426 118 q 522 164 492 143 l 593 49 q 492 2 547 19 q 388 -15 438 -15 m 351 721 q 394 758 378 740 q 410 800 410 775 q 399 835 410 821 q 367 849 389 849 q 332 837 347 849 q 307 807 317 825 l 250 843 q 310 913 274 890 q 388 935 347 935 q 451 919 426 935 q 487 876 475 903 q 499 821 499 850 q 465 737 499 771 q 388 675 432 703 l 351 721 z "},"ȇ":{"ha":740,"x_min":58,"x_max":694,"o":"m 388 -15 q 210 25 283 -15 q 97 136 136 65 q 58 299 58 207 q 103 458 58 386 q 223 572 147 529 q 390 614 299 614 q 590 544 511 614 q 694 346 668 474 l 221 186 l 185 274 l 556 406 l 522 388 q 474 460 508 429 q 378 492 439 492 q 292 468 329 492 q 233 403 254 444 q 211 307 211 363 q 235 206 211 249 q 299 141 258 164 q 390 118 339 118 q 459 131 426 118 q 522 164 492 143 l 593 49 q 492 2 547 19 q 388 -15 438 -15 m 390 917 q 496 888 451 917 q 569 804 540 860 q 610 667 597 749 l 506 667 q 485 742 499 710 q 448 794 471 775 q 390 813 425 813 q 333 794 356 813 q 297 742 310 775 q 278 667 283 710 l 172 667 q 213 806 185 750 q 285 890 240 863 q 390 917 329 917 z "},"ē":{"ha":740,"x_min":58,"x_max":694,"o":"m 388 -15 q 210 25 283 -15 q 97 136 136 65 q 58 299 58 207 q 103 458 58 386 q 223 572 147 529 q 390 614 299 614 q 590 544 511 614 q 694 346 668 474 l 221 186 l 185 274 l 556 406 l 522 388 q 474 460 508 429 q 378 492 439 492 q 292 468 329 492 q 233 403 254 444 q 211 307 211 363 q 235 206 211 249 q 299 141 258 164 q 390 118 339 118 q 459 131 426 118 q 522 164 492 143 l 593 49 q 492 2 547 19 q 388 -15 438 -15 m 213 790 l 558 790 l 558 681 l 213 681 l 213 790 z "},"ę":{"ha":744,"x_min":63,"x_max":699,"o":"m 453 -308 q 317 -262 368 -308 q 265 -143 265 -217 q 293 -54 265 -97 q 374 14 321 -11 l 535 38 q 495 10 524 22 q 438 -8 467 -1 q 392 -15 410 -15 q 215 25 288 -15 q 102 136 142 65 q 63 299 63 207 q 107 458 63 386 q 227 572 151 529 q 394 614 303 614 q 594 544 515 614 q 699 346 672 474 l 225 186 l 190 272 l 560 404 l 526 388 q 477 461 511 431 q 382 492 443 492 q 296 468 333 492 q 237 403 258 444 q 215 307 215 363 q 239 206 215 249 q 303 141 263 164 q 394 118 344 118 q 464 131 431 118 q 526 164 497 143 l 597 49 q 526 13 563 28 q 460 -20 490 -3 q 413 -60 431 -37 q 394 -119 394 -83 q 418 -176 394 -156 q 467 -197 442 -197 q 517 -183 493 -197 q 560 -136 540 -168 l 617 -218 q 543 -283 590 -257 q 453 -308 496 -308 z "},"ẽ":{"ha":740,"x_min":58,"x_max":694,"o":"m 388 -15 q 210 25 283 -15 q 97 136 136 65 q 58 299 58 207 q 103 458 58 386 q 223 572 147 529 q 390 614 299 614 q 590 544 511 614 q 694 346 668 474 l 221 186 l 185 274 l 556 406 l 522 388 q 474 460 508 429 q 378 492 439 492 q 292 468 329 492 q 233 403 254 444 q 211 307 211 363 q 235 206 211 249 q 299 141 258 164 q 390 118 339 118 q 459 131 426 118 q 522 164 492 143 l 593 49 q 492 2 547 19 q 388 -15 438 -15 m 493 664 q 417 684 447 664 q 363 725 388 704 q 331 751 346 740 q 296 763 315 763 q 266 749 278 763 q 249 714 254 736 q 244 664 243 692 l 164 664 q 174 764 158 718 q 224 837 190 810 q 304 864 257 864 q 367 844 340 864 q 417 804 393 825 q 453 772 436 786 q 490 758 471 758 q 526 789 517 758 q 535 863 535 819 l 615 863 q 608 759 622 804 q 563 689 593 714 q 493 664 532 664 z "},"ə":{"ha":740,"x_min":46,"x_max":682,"o":"m 354 603 q 531 563 457 603 q 643 451 604 522 q 682 289 682 381 q 638 130 682 201 q 518 16 593 58 q 350 -26 443 -26 q 151 44 229 -26 q 46 242 72 114 l 519 401 l 556 314 l 186 182 l 218 201 q 267 128 233 160 q 363 97 301 97 q 450 120 413 97 q 508 185 488 143 q 529 281 529 226 q 506 381 529 339 q 442 447 483 424 q 350 469 401 469 q 281 458 314 469 q 218 424 249 446 l 147 539 q 249 585 194 568 q 354 603 303 603 z "},"f":{"ha":558,"x_min":58,"x_max":544,"o":"m 158 0 l 158 451 l 58 451 l 58 589 l 158 589 l 158 819 q 220 1012 158 942 q 400 1082 282 1082 q 474 1072 433 1082 q 544 1042 514 1063 l 479 929 q 449 949 465 943 q 417 954 432 954 q 342 922 369 954 q 314 815 314 890 l 314 589 l 497 589 l 497 451 l 314 451 l 314 0 l 158 0 z "},"g":{"ha":850,"x_min":58,"x_max":743,"o":"m 399 -293 q 276 -276 328 -293 q 185 -233 225 -260 q 111 -176 146 -206 l 203 -69 q 288 -132 243 -107 q 396 -157 333 -157 q 497 -138 454 -157 q 563 -84 539 -119 q 588 0 588 -49 l 588 146 l 597 117 q 511 24 574 63 q 356 -15 449 -15 q 207 26 275 -15 q 99 138 139 67 q 58 297 58 208 q 101 460 58 389 q 214 573 144 532 q 363 614 283 614 q 501 586 440 614 q 592 517 561 558 l 583 494 l 600 588 l 743 588 l 743 -3 q 699 -151 743 -85 q 578 -255 656 -217 q 399 -293 501 -293 m 215 301 q 240 206 215 249 q 306 138 264 163 q 401 113 349 113 q 485 128 447 113 q 549 171 522 143 q 588 236 575 199 l 588 364 q 548 428 575 401 q 483 471 521 456 q 401 486 446 486 q 306 463 349 486 q 240 397 264 439 q 215 301 215 356 z "},"ğ":{"ha":850,"x_min":58,"x_max":743,"o":"m 399 -293 q 276 -276 328 -293 q 185 -233 225 -260 q 111 -176 146 -206 l 203 -69 q 288 -132 243 -107 q 396 -157 333 -157 q 497 -138 454 -157 q 563 -84 539 -119 q 588 0 588 -49 l 588 146 l 597 117 q 511 24 574 63 q 356 -15 449 -15 q 207 26 275 -15 q 99 138 139 67 q 58 297 58 208 q 101 460 58 389 q 214 573 144 532 q 363 614 283 614 q 501 586 440 614 q 592 517 561 558 l 583 494 l 600 588 l 743 588 l 743 -3 q 699 -151 743 -85 q 578 -255 656 -217 q 399 -293 501 -293 m 215 301 q 240 206 215 249 q 306 138 264 163 q 401 113 349 113 q 485 128 447 113 q 549 171 522 143 q 588 236 575 199 l 588 364 q 548 428 575 401 q 483 471 521 456 q 401 486 446 486 q 306 463 349 486 q 240 397 264 439 q 215 301 215 356 m 428 672 q 322 701 367 672 q 249 785 276 729 q 208 922 221 840 l 313 922 q 333 847 319 881 q 371 795 347 814 q 428 776 394 776 q 486 795 464 776 q 521 847 508 814 q 540 922 533 881 l 646 922 q 606 783 633 839 q 533 699 578 726 q 428 672 489 672 z "},"ǧ":{"ha":850,"x_min":58,"x_max":743,"o":"m 399 -293 q 276 -276 328 -293 q 185 -233 225 -260 q 111 -176 146 -206 l 203 -69 q 288 -132 243 -107 q 396 -157 333 -157 q 497 -138 454 -157 q 563 -84 539 -119 q 588 0 588 -49 l 588 146 l 597 117 q 511 24 574 63 q 356 -15 449 -15 q 207 26 275 -15 q 99 138 139 67 q 58 297 58 208 q 101 460 58 389 q 214 573 144 532 q 363 614 283 614 q 501 586 440 614 q 592 517 561 558 l 583 494 l 600 588 l 743 588 l 743 -3 q 699 -151 743 -85 q 578 -255 656 -217 q 399 -293 501 -293 m 215 301 q 240 206 215 249 q 306 138 264 163 q 401 113 349 113 q 485 128 447 113 q 549 171 522 143 q 588 236 575 199 l 588 364 q 548 428 575 401 q 483 471 521 456 q 401 486 446 486 q 306 463 349 486 q 240 397 264 439 q 215 301 215 356 m 335 926 l 457 804 l 414 793 l 538 926 l 679 926 l 439 682 l 438 682 l 193 926 l 335 926 z "},"ĝ":{"ha":850,"x_min":58,"x_max":743,"o":"m 399 -293 q 276 -276 328 -293 q 185 -233 225 -260 q 111 -176 146 -206 l 203 -69 q 288 -132 243 -107 q 396 -157 333 -157 q 497 -138 454 -157 q 563 -84 539 -119 q 588 0 588 -49 l 588 146 l 597 117 q 511 24 574 63 q 356 -15 449 -15 q 207 26 275 -15 q 99 138 139 67 q 58 297 58 208 q 101 460 58 389 q 214 573 144 532 q 363 614 283 614 q 501 586 440 614 q 592 517 561 558 l 583 494 l 600 588 l 743 588 l 743 -3 q 699 -151 743 -85 q 578 -255 656 -217 q 399 -293 501 -293 m 215 301 q 240 206 215 249 q 306 138 264 163 q 401 113 349 113 q 485 128 447 113 q 549 171 522 143 q 588 236 575 199 l 588 364 q 548 428 575 401 q 483 471 521 456 q 401 486 446 486 q 306 463 349 486 q 240 397 264 439 q 215 301 215 356 m 525 699 l 404 821 l 446 832 l 324 699 l 181 699 l 421 943 l 422 943 l 667 699 l 525 699 z "},"ģ":{"ha":806,"x_min":58,"x_max":743,"o":"m 317 704 q 378 850 349 778 q 439 994 408 922 l 564 994 q 510 850 536 922 q 456 704 483 778 l 317 704 m 399 -293 q 276 -276 328 -293 q 185 -233 225 -260 q 111 -176 146 -206 l 203 -69 q 288 -132 243 -107 q 396 -157 333 -157 q 497 -138 454 -157 q 563 -84 539 -119 q 588 0 588 -49 l 588 146 l 597 117 q 511 24 574 63 q 356 -15 449 -15 q 207 26 275 -15 q 99 138 139 67 q 58 297 58 208 q 101 460 58 389 q 214 573 144 532 q 363 614 283 614 q 501 586 440 614 q 592 517 561 558 l 583 494 l 600 588 l 743 588 l 743 -3 q 699 -151 743 -85 q 578 -255 656 -217 q 399 -293 501 -293 m 215 301 q 240 206 215 249 q 306 138 264 163 q 401 113 349 113 q 485 128 447 113 q 549 171 522 143 q 588 236 575 199 l 588 364 q 548 428 575 401 q 483 471 521 456 q 401 486 446 486 q 306 463 349 486 q 240 397 264 439 q 215 301 215 356 z "},"ġ":{"ha":850,"x_min":58,"x_max":743,"o":"m 399 -293 q 276 -276 328 -293 q 185 -233 225 -260 q 111 -176 146 -206 l 203 -69 q 288 -132 243 -107 q 396 -157 333 -157 q 497 -138 454 -157 q 563 -84 539 -119 q 588 0 588 -49 l 588 146 l 597 117 q 511 24 574 63 q 356 -15 449 -15 q 207 26 275 -15 q 99 138 139 67 q 58 297 58 208 q 101 460 58 389 q 214 573 144 532 q 363 614 283 614 q 501 586 440 614 q 592 517 561 558 l 583 494 l 600 588 l 743 588 l 743 -3 q 699 -151 743 -85 q 578 -255 656 -217 q 399 -293 501 -293 m 215 301 q 240 206 215 249 q 306 138 264 163 q 401 113 349 113 q 485 128 447 113 q 549 171 522 143 q 588 236 575 199 l 588 364 q 548 428 575 401 q 483 471 521 456 q 401 486 446 486 q 306 463 349 486 q 240 397 264 439 q 215 301 215 356 m 338 819 q 366 879 338 856 q 428 903 394 903 q 488 879 461 903 q 514 819 514 856 q 488 760 514 783 q 428 738 461 738 q 366 761 394 738 q 338 819 338 785 z "},"h":{"ha":790,"x_min":107,"x_max":683,"o":"m 107 0 l 107 1083 l 260 1083 l 260 458 l 257 482 q 347 576 288 539 q 490 613 407 613 q 628 564 574 613 q 683 436 682 515 l 683 0 l 528 0 l 528 381 q 503 452 526 425 q 428 481 479 479 q 343 451 381 481 q 284 373 306 422 q 263 261 263 324 l 263 0 l 107 0 z "},"ħ":{"ha":790,"x_min":-8,"x_max":683,"o":"m 107 0 l 107 1083 l 260 1083 l 260 458 l 257 482 q 347 576 288 539 q 490 613 407 613 q 628 564 574 613 q 683 436 682 515 l 683 0 l 528 0 l 528 381 q 503 452 526 425 q 428 481 479 479 q 343 451 381 481 q 284 373 306 422 q 263 261 263 324 l 263 0 l 107 0 m -8 917 l 397 917 l 397 772 l -8 772 l -8 917 z "},"ĥ":{"ha":790,"x_min":-69,"x_max":683,"o":"m 107 0 l 107 1083 l 260 1083 l 260 458 l 257 482 q 347 576 288 539 q 490 613 407 613 q 628 564 574 613 q 683 436 682 515 l 683 0 l 528 0 l 528 381 q 503 452 526 425 q 428 481 479 479 q 343 451 381 481 q 284 373 306 422 q 263 261 263 324 l 263 0 l 107 0 m 274 1143 l 153 1265 l 194 1276 l 72 1143 l -71 1143 l 169 1388 l 171 1388 l 415 1143 l 274 1143 z "},"i":{"ha":369,"x_min":100,"x_max":276,"o":"m 107 588 l 263 588 l 263 0 l 107 0 l 107 588 m 100 799 q 128 858 100 835 q 190 882 157 882 q 250 858 224 882 q 276 799 276 835 q 250 740 276 763 q 190 717 224 717 q 128 740 157 717 q 100 799 100 764 z "},"ı":{"ha":369,"x_min":107,"x_max":263,"o":"m 107 588 l 263 588 l 263 0 l 107 0 l 107 588 z "},"í":{"ha":369,"x_min":79,"x_max":364,"o":"m 107 588 l 263 588 l 263 0 l 107 0 l 107 588 m 364 856 l 175 669 l 79 669 l 192 856 l 364 856 z "},"ĭ":{"ha":369,"x_min":-31,"x_max":407,"o":"m 107 588 l 263 588 l 263 0 l 107 0 l 107 588 m 189 650 q 83 678 128 650 q 10 763 38 707 q -31 900 -18 818 l 74 900 q 94 825 81 858 q 132 773 108 792 q 189 754 156 754 q 247 773 225 754 q 282 825 269 792 q 301 900 294 858 l 407 900 q 367 760 394 817 q 294 677 339 704 q 189 650 250 650 z "},"î":{"ha":369,"x_min":-57,"x_max":429,"o":"m 107 588 l 263 588 l 263 0 l 107 0 l 107 588 m 286 676 l 165 799 l 207 810 l 85 676 l -58 676 l 182 921 l 183 921 l 428 676 l 286 676 z "},"ȉ":{"ha":369,"x_min":-126,"x_max":354,"o":"m 107 588 l 263 588 l 263 0 l 107 0 l 107 588 m -126 863 l 46 863 l 142 676 l 44 676 l -126 863 m 86 863 l 258 863 l 354 676 l 257 676 l 86 863 z "},"ï":{"ha":369,"x_min":-32,"x_max":401,"o":"m 107 588 l 263 588 l 263 0 l 107 0 l 107 588 m -32 740 q -6 801 -32 776 q 51 825 21 825 q 108 801 82 825 q 135 740 135 776 q 108 679 135 703 q 51 656 82 656 q -6 679 21 656 q -32 740 -32 703 l -32 740 m 235 740 q 261 801 235 776 q 319 825 288 825 q 375 801 349 825 q 401 740 401 776 q 375 679 401 703 q 319 656 349 656 q 261 679 288 656 q 235 740 235 703 l 235 740 z "},"ị":{"ha":369,"x_min":100,"x_max":276,"o":"m 107 588 l 263 588 l 263 0 l 107 0 l 107 588 m 100 799 q 128 858 100 835 q 190 882 157 882 q 250 858 224 882 q 276 799 276 835 q 250 740 276 763 q 190 717 224 717 q 128 740 157 717 q 100 799 100 764 m 108 -147 q 133 -97 108 -117 q 185 -78 157 -78 q 235 -97 213 -78 q 258 -147 258 -117 q 235 -197 258 -178 q 185 -217 213 -217 q 133 -197 157 -217 q 108 -147 108 -178 z "},"ì":{"ha":369,"x_min":-32,"x_max":263,"o":"m 107 588 l 263 588 l 263 0 l 107 0 l 107 588 m -32 863 l 140 863 l 236 676 l 139 676 l -32 863 z "},"ỉ":{"ha":369,"x_min":51,"x_max":301,"o":"m 107 588 l 263 588 l 263 0 l 107 0 l 107 588 m 154 699 q 197 735 181 718 q 213 778 213 753 q 202 813 213 799 q 169 826 192 826 q 135 815 150 826 q 110 785 119 803 l 53 821 q 113 890 76 868 q 190 913 150 913 q 253 897 229 913 q 290 854 278 881 q 301 799 301 828 q 268 715 301 749 q 190 653 235 681 l 154 699 z "},"ȋ":{"ha":369,"x_min":-25,"x_max":411,"o":"m 107 588 l 263 588 l 263 0 l 107 0 l 107 588 m 193 893 q 299 865 254 893 q 372 781 343 836 q 413 643 400 725 l 308 643 q 288 719 301 686 q 251 770 274 751 q 193 789 228 789 q 135 770 158 789 q 99 719 113 751 q 81 643 86 686 l -25 643 q 15 783 -12 726 q 88 866 43 839 q 193 893 132 893 z "},"ĳ":{"ha":732,"x_min":100,"x_max":631,"o":"m 107 588 l 263 588 l 263 0 l 107 0 l 107 588 m 100 799 q 128 858 100 835 q 190 882 157 882 q 250 858 224 882 q 276 799 276 835 q 250 740 276 763 q 190 717 224 717 q 128 740 157 717 q 100 799 100 764 m 468 -283 l 378 -187 q 440 -107 417 -154 q 463 6 463 -60 l 463 588 l 618 588 l 618 -3 q 583 -173 618 -104 q 468 -283 549 -242 m 453 799 q 481 858 453 835 q 543 882 510 882 q 603 858 576 882 q 629 799 629 835 q 603 740 629 763 q 543 717 576 717 q 481 740 510 717 q 453 799 453 764 z "},"ī":{"ha":369,"x_min":14,"x_max":361,"o":"m 107 588 l 263 588 l 263 0 l 107 0 l 107 588 m 15 768 l 361 768 l 361 658 l 15 658 l 15 768 z "},"į":{"ha":376,"x_min":-4,"x_max":343,"o":"m 175 -308 q 48 -263 100 -308 q -4 -146 -4 -218 q 28 -54 -4 -99 q 118 14 61 -10 l 236 13 l 265 0 q 163 -59 200 -29 q 125 -133 125 -89 q 144 -183 125 -169 q 189 -197 164 -197 q 241 -181 217 -197 q 286 -131 265 -164 l 343 -211 q 269 -281 317 -253 q 175 -308 221 -308 m 107 588 l 263 588 l 263 0 l 107 0 l 107 588 m 97 793 q 126 852 97 829 q 188 875 154 875 q 247 852 219 875 q 274 793 274 829 q 247 734 274 757 q 188 711 219 711 q 126 734 154 711 q 97 793 97 757 z "},"ĩ":{"ha":369,"x_min":-39,"x_max":424,"o":"m 107 588 l 263 588 l 263 0 l 107 0 l 107 588 m 294 642 q 219 662 249 642 q 164 703 189 682 q 132 729 147 718 q 97 740 117 740 q 67 727 79 740 q 50 692 56 714 q 46 642 44 669 l -35 642 q -24 742 -40 696 q 25 815 -8 788 q 106 842 58 842 q 168 822 142 842 q 218 782 194 803 q 255 750 238 764 q 292 736 272 736 q 327 767 318 736 q 336 840 336 797 l 417 840 q 409 737 424 782 q 364 667 394 692 q 294 642 333 642 z "},"j":{"ha":381,"x_min":38,"x_max":289,"o":"m 128 -283 l 38 -187 q 99 -107 76 -154 q 122 6 122 -60 l 122 588 l 278 588 l 278 -3 q 243 -173 278 -104 q 128 -283 208 -242 m 113 799 q 141 858 113 835 q 203 882 169 882 q 263 858 236 882 q 289 799 289 835 q 263 740 289 763 q 203 717 236 717 q 141 740 169 717 q 113 799 113 764 z "},"ȷ":{"ha":381,"x_min":38,"x_max":278,"o":"m 128 -283 l 38 -187 q 99 -107 76 -154 q 122 6 122 -60 l 122 588 l 278 588 l 278 -3 q 243 -173 278 -104 q 128 -283 208 -242 z "},"ĵ":{"ha":381,"x_min":-44,"x_max":442,"o":"m 128 -283 l 38 -187 q 99 -107 76 -154 q 122 6 122 -60 l 122 588 l 278 588 l 278 -3 q 243 -173 278 -104 q 128 -283 208 -242 m 300 676 l 179 799 l 221 810 l 99 676 l -44 676 l 196 921 l 197 921 l 442 676 l 300 676 z "},"k":{"ha":718,"x_min":107,"x_max":676,"o":"m 107 0 l 107 1083 l 263 1083 l 263 0 l 107 0 m 408 394 l 676 0 l 494 0 l 306 306 l 408 394 m 215 176 l 200 325 l 556 601 l 651 518 l 215 176 z "},"ķ":{"ha":718,"x_min":107,"x_max":676,"o":"m 107 0 l 107 1083 l 263 1083 l 263 0 l 107 0 m 408 394 l 676 0 l 494 0 l 306 306 l 408 394 m 215 176 l 200 325 l 556 601 l 651 518 l 215 176 m 318 -287 l 239 -233 q 285 -150 271 -204 q 290 -46 299 -96 l 426 -47 q 422 -131 433 -85 q 385 -219 411 -178 q 318 -287 360 -261 z "},"ĸ":{"ha":735,"x_min":107,"x_max":678,"o":"m 251 169 l 228 307 l 490 588 l 678 588 l 251 169 m 263 0 l 107 0 l 107 588 l 263 588 l 263 0 m 406 339 l 676 0 l 496 0 l 286 271 l 406 339 z "},"l":{"ha":369,"x_min":107,"x_max":263,"o":"m 107 1083 l 263 1083 l 263 0 l 107 0 l 107 1083 z "},"ĺ":{"ha":369,"x_min":107,"x_max":419,"o":"m 107 1083 l 263 1083 l 263 0 l 107 0 l 107 1083 m 419 1332 l 231 1146 l 135 1146 l 247 1332 l 419 1332 z "},"ľ":{"ha":536,"x_min":107,"x_max":542,"o":"m 107 1083 l 263 1083 l 263 0 l 107 0 l 107 1083 m 433 846 l 354 882 q 401 960 383 910 q 410 1058 419 1010 l 532 1068 q 528 985 540 1029 q 490 903 515 940 q 433 846 465 867 l 433 846 z "},"ļ":{"ha":369,"x_min":65,"x_max":263,"o":"m 107 1083 l 263 1083 l 263 0 l 107 0 l 107 1083 m 144 -287 l 65 -233 q 111 -150 97 -204 q 117 -46 125 -96 l 253 -47 q 249 -131 260 -85 q 212 -219 238 -178 q 144 -287 186 -261 z "},"ŀ":{"ha":511,"x_min":107,"x_max":525,"o":"m 107 1083 l 263 1083 l 263 0 l 107 0 l 107 1083 m 358 453 q 385 513 358 488 q 443 538 411 538 q 499 513 472 538 q 525 453 525 488 q 499 391 525 414 q 443 368 472 368 q 385 391 411 368 q 358 453 358 414 l 358 453 z "},"ǉ":{"ha":750,"x_min":107,"x_max":660,"o":"m 107 1083 l 263 1083 l 263 0 l 107 0 l 107 1083 m 497 -283 l 407 -187 q 469 -107 446 -154 q 492 6 492 -60 l 492 588 l 647 588 l 647 -3 q 613 -173 647 -104 q 497 -283 578 -242 m 482 799 q 510 858 482 835 q 572 882 539 882 q 632 858 606 882 q 658 799 658 835 q 632 740 658 763 q 572 717 606 717 q 510 740 539 717 q 482 799 482 764 z "},"ł":{"ha":397,"x_min":25,"x_max":379,"o":"m 379 554 l 379 419 l 25 329 l 25 464 l 379 554 m 118 1083 l 274 1083 l 274 0 l 118 0 l 118 1083 z "},"m":{"ha":1167,"x_min":107,"x_max":1060,"o":"m 247 588 l 260 468 l 256 478 q 347 578 289 542 q 481 614 404 614 q 567 599 529 614 q 630 556 604 583 q 663 486 656 528 l 656 483 q 749 578 692 543 q 869 614 806 614 q 1007 565 956 614 q 1060 438 1058 515 l 1060 0 l 906 0 l 906 378 q 888 448 904 419 q 825 479 871 476 q 738 448 775 479 q 682 367 701 417 q 661 264 663 318 l 661 0 l 506 0 l 506 378 q 486 448 504 419 q 422 479 468 476 q 338 448 374 479 q 282 367 301 417 q 263 264 263 318 l 263 0 l 107 0 l 107 588 l 247 588 z "},"n":{"ha":790,"x_min":107,"x_max":683,"o":"m 247 588 l 260 461 l 256 478 q 346 576 285 539 q 490 613 407 613 q 628 564 574 613 q 683 436 682 515 l 683 0 l 528 0 l 528 381 q 503 452 526 425 q 428 481 479 479 q 343 452 381 481 q 284 374 306 424 q 263 261 263 325 l 263 0 l 107 0 l 107 588 l 247 588 z "},"ń":{"ha":790,"x_min":107,"x_max":683,"o":"m 247 588 l 260 461 l 256 478 q 346 576 285 539 q 490 613 407 613 q 628 564 574 613 q 683 436 682 515 l 683 0 l 528 0 l 528 381 q 503 452 526 425 q 428 481 479 479 q 343 452 381 481 q 284 374 306 424 q 263 261 263 325 l 263 0 l 107 0 l 107 588 l 247 588 m 572 867 l 383 681 l 288 681 l 400 867 l 572 867 z "},"ŉ":{"ha":817,"x_min":-76,"x_max":708,"o":"m 3 576 l -76 631 q -31 714 -44 660 q -25 818 -17 768 l 111 817 q 107 733 118 779 q 70 644 96 686 q 3 576 44 603 m 272 588 l 285 461 l 281 478 q 371 576 310 539 q 515 613 432 613 q 653 564 599 613 q 708 436 707 515 l 708 0 l 553 0 l 553 381 q 528 452 551 425 q 453 481 504 479 q 368 452 406 481 q 309 374 331 424 q 288 261 288 325 l 288 0 l 132 0 l 132 588 l 272 588 z "},"ň":{"ha":790,"x_min":107,"x_max":683,"o":"m 247 588 l 260 461 l 256 478 q 346 576 285 539 q 490 613 407 613 q 628 564 574 613 q 683 436 682 515 l 683 0 l 528 0 l 528 381 q 503 452 526 425 q 428 481 479 479 q 343 452 381 481 q 284 374 306 424 q 263 261 263 325 l 263 0 l 107 0 l 107 588 l 247 588 m 306 915 l 428 793 l 385 782 l 508 915 l 650 915 l 410 671 l 408 671 l 164 915 l 306 915 z "},"ņ":{"ha":790,"x_min":107,"x_max":683,"o":"m 247 588 l 260 461 l 256 478 q 346 576 285 539 q 490 613 407 613 q 628 564 574 613 q 683 436 682 515 l 683 0 l 528 0 l 528 381 q 503 452 526 425 q 428 481 479 479 q 343 452 381 481 q 284 374 306 424 q 263 261 263 325 l 263 0 l 107 0 l 107 588 l 247 588 m 354 -287 l 275 -233 q 321 -150 307 -204 q 326 -46 335 -96 l 463 -47 q 458 -131 469 -85 q 422 -219 447 -178 q 354 -287 396 -261 z "},"ŋ":{"ha":790,"x_min":107,"x_max":683,"o":"m 683 6 q 647 -165 683 -90 q 535 -283 611 -239 l 444 -187 q 506 -107 483 -154 q 528 6 528 -60 l 528 381 q 503 452 526 425 q 428 481 479 479 q 343 452 381 481 q 284 374 306 424 q 263 261 263 325 l 263 0 l 107 0 l 107 588 l 247 588 l 260 478 q 348 576 289 539 q 490 613 407 613 q 628 564 574 613 q 683 436 682 515 l 683 6 z "},"ɲ":{"ha":790,"x_min":26,"x_max":683,"o":"m 117 -283 l 26 -187 q 89 -107 67 -154 q 111 6 111 -60 l 111 58 l 267 58 l 267 -3 q 226 -169 267 -99 q 117 -283 185 -239 m 247 588 l 260 461 l 256 478 q 346 576 285 539 q 490 613 407 613 q 628 564 574 613 q 683 436 682 515 l 683 0 l 528 0 l 528 381 q 503 452 526 425 q 428 481 479 479 q 343 452 381 481 q 284 374 306 424 q 263 261 263 325 l 263 0 l 107 0 l 107 588 l 247 588 z "},"ǌ":{"ha":1157,"x_min":107,"x_max":1056,"o":"m 247 588 l 260 461 l 256 478 q 346 576 285 539 q 490 613 407 613 q 628 564 574 613 q 683 436 682 515 l 683 0 l 528 0 l 528 381 q 503 452 526 425 q 428 481 479 479 q 343 452 381 481 q 284 374 306 424 q 263 261 263 325 l 263 0 l 107 0 l 107 588 l 247 588 m 893 -283 l 803 -187 q 865 -107 842 -154 q 888 6 888 -60 l 888 588 l 1043 588 l 1043 -3 q 1008 -173 1043 -104 q 893 -283 974 -242 m 878 799 q 906 858 878 835 q 968 882 935 882 q 1028 858 1001 882 q 1054 799 1054 835 q 1028 740 1054 763 q 968 717 1001 717 q 906 740 935 717 q 878 799 878 764 z "},"ñ":{"ha":790,"x_min":107,"x_max":683,"o":"m 247 588 l 260 461 l 256 478 q 346 576 285 539 q 490 613 407 613 q 628 564 574 613 q 683 436 682 515 l 683 0 l 528 0 l 528 381 q 503 452 526 425 q 428 481 479 479 q 343 452 381 481 q 284 374 306 424 q 263 261 263 325 l 263 0 l 107 0 l 107 588 l 247 588 m 503 653 q 427 673 457 653 q 372 714 397 693 q 340 740 356 729 q 306 751 325 751 q 276 738 288 751 q 258 703 264 725 q 254 653 253 681 l 174 653 q 184 753 168 707 q 233 826 200 799 q 314 853 267 853 q 376 833 350 853 q 426 793 403 814 q 463 761 446 775 q 500 747 481 747 q 535 778 526 747 q 544 851 544 808 l 625 851 q 617 748 632 793 q 572 678 603 703 q 503 653 542 653 z "},"o":{"ha":771,"x_min":58,"x_max":713,"o":"m 58 300 q 101 460 58 389 q 218 573 143 532 q 389 614 293 614 q 560 573 488 614 q 673 460 633 532 q 713 300 713 389 q 673 140 713 211 q 560 26 633 68 q 388 -15 486 -15 q 217 23 292 -15 q 101 132 143 61 q 58 300 58 203 m 215 299 q 238 205 215 247 q 299 138 260 163 q 385 113 338 113 q 474 138 436 113 q 534 205 513 163 q 556 299 556 247 q 534 394 556 351 q 474 461 513 436 q 385 486 436 486 q 298 460 336 486 q 238 393 260 435 q 215 299 215 351 z "},"ó":{"ha":771,"x_min":58,"x_max":713,"o":"m 58 300 q 101 460 58 389 q 218 573 143 532 q 389 614 293 614 q 560 573 488 614 q 673 460 633 532 q 713 300 713 389 q 673 140 713 211 q 560 26 633 68 q 388 -15 486 -15 q 217 23 292 -15 q 101 132 143 61 q 58 300 58 203 m 215 299 q 238 205 215 247 q 299 138 260 163 q 385 113 338 113 q 474 138 436 113 q 534 205 513 163 q 556 299 556 247 q 534 394 556 351 q 474 461 513 436 q 385 486 436 486 q 298 460 336 486 q 238 393 260 435 q 215 299 215 351 m 563 878 l 374 692 l 278 692 l 390 878 l 563 878 z "},"ŏ":{"ha":771,"x_min":58,"x_max":713,"o":"m 58 300 q 101 460 58 389 q 218 573 143 532 q 389 614 293 614 q 560 573 488 614 q 673 460 633 532 q 713 300 713 389 q 673 140 713 211 q 560 26 633 68 q 388 -15 486 -15 q 217 23 292 -15 q 101 132 143 61 q 58 300 58 203 m 215 299 q 238 205 215 247 q 299 138 260 163 q 385 113 338 113 q 474 138 436 113 q 534 205 513 163 q 556 299 556 247 q 534 394 556 351 q 474 461 513 436 q 385 486 436 486 q 298 460 336 486 q 238 393 260 435 q 215 299 215 351 m 389 672 q 283 701 328 672 q 210 785 238 729 q 169 922 182 840 l 274 922 q 294 847 281 881 q 332 795 308 814 q 389 776 356 776 q 447 795 425 776 q 482 847 469 814 q 501 922 494 881 l 607 922 q 567 783 594 839 q 494 699 539 726 q 389 672 450 672 z "},"ô":{"ha":771,"x_min":58,"x_max":713,"o":"m 58 300 q 101 460 58 389 q 218 573 143 532 q 389 614 293 614 q 560 573 488 614 q 673 460 633 532 q 713 300 713 389 q 673 140 713 211 q 560 26 633 68 q 388 -15 486 -15 q 217 23 292 -15 q 101 132 143 61 q 58 300 58 203 m 215 299 q 238 205 215 247 q 299 138 260 163 q 385 113 338 113 q 474 138 436 113 q 534 205 513 163 q 556 299 556 247 q 534 394 556 351 q 474 461 513 436 q 385 486 436 486 q 298 460 336 486 q 238 393 260 435 q 215 299 215 351 m 486 699 l 365 821 l 407 832 l 285 699 l 142 699 l 382 943 l 383 943 l 628 699 l 486 699 z "},"ố":{"ha":771,"x_min":58,"x_max":794,"o":"m 58 300 q 101 460 58 389 q 218 573 143 532 q 389 614 293 614 q 560 573 488 614 q 673 460 633 532 q 713 300 713 389 q 673 140 713 211 q 560 26 633 68 q 388 -15 486 -15 q 217 23 292 -15 q 101 132 143 61 q 58 300 58 203 m 215 299 q 238 205 215 247 q 299 138 260 163 q 385 113 338 113 q 474 138 436 113 q 534 205 513 163 q 556 299 556 247 q 534 394 556 351 q 474 461 513 436 q 385 486 436 486 q 298 460 336 486 q 238 393 260 435 q 215 299 215 351 m 492 694 l 371 817 l 413 828 l 290 694 l 147 694 l 388 939 l 389 939 l 633 694 l 492 694 m 794 1021 l 606 835 l 510 835 l 622 1021 l 794 1021 z "},"ộ":{"ha":771,"x_min":58,"x_max":713,"o":"m 58 300 q 101 460 58 389 q 218 573 143 532 q 389 614 293 614 q 560 573 488 614 q 673 460 633 532 q 713 300 713 389 q 673 140 713 211 q 560 26 633 68 q 388 -15 486 -15 q 217 23 292 -15 q 101 132 143 61 q 58 300 58 203 m 215 299 q 238 205 215 247 q 299 138 260 163 q 385 113 338 113 q 474 138 436 113 q 534 205 513 163 q 556 299 556 247 q 534 394 556 351 q 474 461 513 436 q 385 486 436 486 q 298 460 336 486 q 238 393 260 435 q 215 299 215 351 m 310 -147 q 334 -97 310 -117 q 386 -78 358 -78 q 437 -97 414 -78 q 460 -147 460 -117 q 437 -197 460 -178 q 386 -217 414 -217 q 334 -197 358 -217 q 310 -147 310 -178 m 486 699 l 365 821 l 407 832 l 285 699 l 142 699 l 382 943 l 383 943 l 628 699 l 486 699 z "},"ồ":{"ha":771,"x_min":-65,"x_max":713,"o":"m 58 300 q 101 460 58 389 q 218 573 143 532 q 389 614 293 614 q 560 573 488 614 q 673 460 633 532 q 713 300 713 389 q 673 140 713 211 q 560 26 633 68 q 388 -15 486 -15 q 217 23 292 -15 q 101 132 143 61 q 58 300 58 203 m 215 299 q 238 205 215 247 q 299 138 260 163 q 385 113 338 113 q 474 138 436 113 q 534 205 513 163 q 556 299 556 247 q 534 394 556 351 q 474 461 513 436 q 385 486 436 486 q 298 460 336 486 q 238 393 260 435 q 215 299 215 351 m 481 692 l 360 814 l 401 825 l 279 692 l 136 692 l 376 936 l 378 936 l 622 692 l 481 692 m -65 1029 l 107 1029 l 203 843 l 106 843 l -65 1029 z "},"ổ":{"ha":771,"x_min":58,"x_max":765,"o":"m 58 300 q 101 460 58 389 q 218 573 143 532 q 389 614 293 614 q 560 573 488 614 q 673 460 633 532 q 713 300 713 389 q 673 140 713 211 q 560 26 633 68 q 388 -15 486 -15 q 217 23 292 -15 q 101 132 143 61 q 58 300 58 203 m 215 299 q 238 205 215 247 q 299 138 260 163 q 385 113 338 113 q 474 138 436 113 q 534 205 513 163 q 556 299 556 247 q 534 394 556 351 q 474 461 513 436 q 385 486 436 486 q 298 460 336 486 q 238 393 260 435 q 215 299 215 351 m 486 694 l 365 817 l 407 828 l 285 694 l 142 694 l 382 939 l 383 939 l 628 694 l 486 694 m 618 843 q 660 880 644 863 q 676 922 676 897 q 666 957 676 943 q 633 971 656 971 q 599 959 614 971 q 574 929 583 947 l 517 965 q 577 1035 540 1013 q 654 1057 614 1057 q 717 1041 693 1057 q 753 999 742 1025 q 765 943 765 972 q 732 859 765 893 q 654 797 699 825 l 618 843 z "},"ỗ":{"ha":771,"x_min":58,"x_max":713,"o":"m 58 300 q 101 460 58 389 q 218 573 143 532 q 389 614 293 614 q 560 573 488 614 q 673 460 633 532 q 713 300 713 389 q 673 140 713 211 q 560 26 633 68 q 388 -15 486 -15 q 217 23 292 -15 q 101 132 143 61 q 58 300 58 203 m 215 299 q 238 205 215 247 q 299 138 260 163 q 385 113 338 113 q 474 138 436 113 q 534 205 513 163 q 556 299 556 247 q 534 394 556 351 q 474 461 513 436 q 385 486 436 486 q 298 460 336 486 q 238 393 260 435 q 215 299 215 351 m 479 689 l 358 811 l 400 822 l 278 689 l 135 689 l 375 933 l 376 933 l 621 689 l 479 689 m 488 969 q 412 990 442 969 q 357 1031 382 1010 q 325 1057 340 1046 q 290 1068 310 1068 q 260 1055 272 1068 q 243 1019 249 1042 q 239 969 238 997 l 158 969 q 169 1069 153 1024 q 218 1142 185 1115 q 299 1169 251 1169 q 361 1150 335 1169 q 411 1110 388 1131 q 448 1078 431 1092 q 485 1064 465 1064 q 520 1094 511 1064 q 529 1168 529 1125 l 610 1168 q 602 1065 617 1110 q 557 994 588 1019 q 488 969 526 969 z "},"ȍ":{"ha":771,"x_min":58,"x_max":713,"o":"m 58 300 q 101 460 58 389 q 218 573 143 532 q 389 614 293 614 q 560 573 488 614 q 673 460 633 532 q 713 300 713 389 q 673 140 713 211 q 560 26 633 68 q 388 -15 486 -15 q 217 23 292 -15 q 101 132 143 61 q 58 300 58 203 m 215 299 q 238 205 215 247 q 299 138 260 163 q 385 113 338 113 q 474 138 436 113 q 534 205 513 163 q 556 299 556 247 q 534 394 556 351 q 474 461 513 436 q 385 486 436 486 q 298 460 336 486 q 238 393 260 435 q 215 299 215 351 m 72 885 l 244 885 l 340 699 l 243 699 l 72 885 m 286 885 l 458 885 l 554 699 l 457 699 l 286 885 z "},"ö":{"ha":771,"x_min":58,"x_max":713,"o":"m 58 300 q 101 460 58 389 q 218 573 143 532 q 389 614 293 614 q 560 573 488 614 q 673 460 633 532 q 713 300 713 389 q 673 140 713 211 q 560 26 633 68 q 388 -15 486 -15 q 217 23 292 -15 q 101 132 143 61 q 58 300 58 203 m 215 299 q 238 205 215 247 q 299 138 260 163 q 385 113 338 113 q 474 138 436 113 q 534 205 513 163 q 556 299 556 247 q 534 394 556 351 q 474 461 513 436 q 385 486 436 486 q 298 460 336 486 q 238 393 260 435 q 215 299 215 351 m 168 763 q 194 823 168 799 q 251 847 221 847 q 308 823 282 847 q 335 763 335 799 q 308 701 335 725 q 251 678 282 678 q 194 701 221 678 q 168 763 168 725 l 168 763 m 435 763 q 461 823 435 799 q 519 847 488 847 q 575 823 549 847 q 601 763 601 799 q 575 701 601 725 q 519 678 549 678 q 461 701 488 678 q 435 763 435 725 l 435 763 z "},"ȫ":{"ha":771,"x_min":58,"x_max":713,"o":"m 58 300 q 101 460 58 389 q 218 573 143 532 q 389 614 293 614 q 560 573 488 614 q 673 460 633 532 q 713 300 713 389 q 673 140 713 211 q 560 26 633 68 q 388 -15 486 -15 q 217 23 292 -15 q 101 132 143 61 q 58 300 58 203 m 215 299 q 238 205 215 247 q 299 138 260 163 q 385 113 338 113 q 474 138 436 113 q 534 205 513 163 q 556 299 556 247 q 534 394 556 351 q 474 461 513 436 q 385 486 436 486 q 298 460 336 486 q 238 393 260 435 q 215 299 215 351 m 168 763 q 194 823 168 799 q 251 847 221 847 q 308 823 282 847 q 335 763 335 799 q 308 701 335 725 q 251 678 282 678 q 194 701 221 678 q 168 763 168 725 l 168 763 m 435 763 q 461 823 435 799 q 519 847 488 847 q 575 823 549 847 q 601 763 601 799 q 575 701 601 725 q 519 678 549 678 q 461 701 488 678 q 435 763 435 725 l 435 763 m 214 1026 l 560 1026 l 560 917 l 214 917 l 214 1026 z "},"ȱ":{"ha":771,"x_min":58,"x_max":713,"o":"m 58 300 q 101 460 58 389 q 218 573 143 532 q 389 614 293 614 q 560 573 488 614 q 673 460 633 532 q 713 300 713 389 q 673 140 713 211 q 560 26 633 68 q 388 -15 486 -15 q 217 23 292 -15 q 101 132 143 61 q 58 300 58 203 m 215 299 q 238 205 215 247 q 299 138 260 163 q 385 113 338 113 q 474 138 436 113 q 534 205 513 163 q 556 299 556 247 q 534 394 556 351 q 474 461 513 436 q 385 486 436 486 q 298 460 336 486 q 238 393 260 435 q 215 299 215 351 m 299 819 q 327 879 299 856 q 389 903 356 903 q 449 879 422 903 q 475 819 475 856 q 449 760 475 783 q 389 738 422 738 q 327 761 356 738 q 299 819 299 785 m 214 1083 l 560 1083 l 560 974 l 214 974 l 214 1083 z "},"ọ":{"ha":771,"x_min":58,"x_max":713,"o":"m 58 300 q 101 460 58 389 q 218 573 143 532 q 389 614 293 614 q 560 573 488 614 q 673 460 633 532 q 713 300 713 389 q 673 140 713 211 q 560 26 633 68 q 388 -15 486 -15 q 217 23 292 -15 q 101 132 143 61 q 58 300 58 203 m 215 299 q 238 205 215 247 q 299 138 260 163 q 385 113 338 113 q 474 138 436 113 q 534 205 513 163 q 556 299 556 247 q 534 394 556 351 q 474 461 513 436 q 385 486 436 486 q 298 460 336 486 q 238 393 260 435 q 215 299 215 351 m 310 -147 q 334 -97 310 -117 q 386 -78 358 -78 q 437 -97 414 -78 q 460 -147 460 -117 q 437 -197 460 -178 q 386 -217 414 -217 q 334 -197 358 -217 q 310 -147 310 -178 z "},"ò":{"ha":771,"x_min":58,"x_max":713,"o":"m 58 300 q 101 460 58 389 q 218 573 143 532 q 389 614 293 614 q 560 573 488 614 q 673 460 633 532 q 713 300 713 389 q 673 140 713 211 q 560 26 633 68 q 388 -15 486 -15 q 217 23 292 -15 q 101 132 143 61 q 58 300 58 203 m 215 299 q 238 205 215 247 q 299 138 260 163 q 385 113 338 113 q 474 138 436 113 q 534 205 513 163 q 556 299 556 247 q 534 394 556 351 q 474 461 513 436 q 385 486 436 486 q 298 460 336 486 q 238 393 260 435 q 215 299 215 351 m 167 885 l 339 885 l 435 699 l 338 699 l 167 885 z "},"ỏ":{"ha":771,"x_min":58,"x_max":713,"o":"m 58 300 q 101 460 58 389 q 218 573 143 532 q 389 614 293 614 q 560 573 488 614 q 673 460 633 532 q 713 300 713 389 q 673 140 713 211 q 560 26 633 68 q 388 -15 486 -15 q 217 23 292 -15 q 101 132 143 61 q 58 300 58 203 m 215 299 q 238 205 215 247 q 299 138 260 163 q 385 113 338 113 q 474 138 436 113 q 534 205 513 163 q 556 299 556 247 q 534 394 556 351 q 474 461 513 436 q 385 486 436 486 q 298 460 336 486 q 238 393 260 435 q 215 299 215 351 m 353 719 q 395 756 379 739 q 411 799 411 774 q 401 833 411 819 q 368 847 390 847 q 333 835 349 847 q 308 806 318 824 l 251 842 q 312 911 275 889 q 389 933 349 933 q 452 917 428 933 q 488 875 476 901 q 500 819 500 849 q 467 735 500 769 q 389 674 433 701 l 353 719 z "},"ơ":{"ha":771,"x_min":58,"x_max":740,"o":"m 58 300 q 101 460 58 389 q 218 573 143 532 q 389 614 293 614 q 560 573 488 614 q 673 460 633 532 q 713 300 713 389 q 673 140 713 211 q 560 26 633 68 q 388 -15 486 -15 q 217 23 292 -15 q 101 132 143 61 q 58 300 58 203 m 215 299 q 238 205 215 247 q 299 138 260 163 q 385 113 338 113 q 474 138 436 113 q 534 205 513 163 q 556 299 556 247 q 534 394 556 351 q 474 461 513 436 q 385 486 436 486 q 298 460 336 486 q 238 393 260 435 q 215 299 215 351 m 501 588 q 585 617 556 588 q 625 713 615 647 l 740 713 q 696 578 729 626 q 613 513 663 531 q 501 494 563 494 l 501 588 z "},"ớ":{"ha":771,"x_min":58,"x_max":740,"o":"m 58 300 q 101 460 58 389 q 218 573 143 532 q 389 614 293 614 q 560 573 488 614 q 673 460 633 532 q 713 300 713 389 q 673 140 713 211 q 560 26 633 68 q 388 -15 486 -15 q 217 23 292 -15 q 101 132 143 61 q 58 300 58 203 m 215 299 q 238 205 215 247 q 299 138 260 163 q 385 113 338 113 q 474 138 436 113 q 534 205 513 163 q 556 299 556 247 q 534 394 556 351 q 474 461 513 436 q 385 486 436 486 q 298 460 336 486 q 238 393 260 435 q 215 299 215 351 m 501 588 q 585 617 556 588 q 625 713 615 647 l 740 713 q 696 578 729 626 q 613 513 663 531 q 501 494 563 494 l 501 588 m 563 858 l 374 672 l 278 672 l 390 858 l 563 858 z "},"ợ":{"ha":771,"x_min":58,"x_max":740,"o":"m 58 300 q 101 460 58 389 q 218 573 143 532 q 389 614 293 614 q 560 573 488 614 q 673 460 633 532 q 713 300 713 389 q 673 140 713 211 q 560 26 633 68 q 388 -15 486 -15 q 217 23 292 -15 q 101 132 143 61 q 58 300 58 203 m 215 299 q 238 205 215 247 q 299 138 260 163 q 385 113 338 113 q 474 138 436 113 q 534 205 513 163 q 556 299 556 247 q 534 394 556 351 q 474 461 513 436 q 385 486 436 486 q 298 460 336 486 q 238 393 260 435 q 215 299 215 351 m 501 588 q 585 617 556 588 q 625 713 615 647 l 740 713 q 696 578 729 626 q 613 513 663 531 q 501 494 563 494 l 501 588 m 310 -147 q 334 -97 310 -117 q 386 -78 358 -78 q 437 -97 414 -78 q 460 -147 460 -117 q 437 -197 460 -178 q 386 -217 414 -217 q 334 -197 358 -217 q 310 -147 310 -178 z "},"ờ":{"ha":771,"x_min":58,"x_max":740,"o":"m 58 300 q 101 460 58 389 q 218 573 143 532 q 389 614 293 614 q 560 573 488 614 q 673 460 633 532 q 713 300 713 389 q 673 140 713 211 q 560 26 633 68 q 388 -15 486 -15 q 217 23 292 -15 q 101 132 143 61 q 58 300 58 203 m 215 299 q 238 205 215 247 q 299 138 260 163 q 385 113 338 113 q 474 138 436 113 q 534 205 513 163 q 556 299 556 247 q 534 394 556 351 q 474 461 513 436 q 385 486 436 486 q 298 460 336 486 q 238 393 260 435 q 215 299 215 351 m 501 588 q 585 617 556 588 q 625 713 615 647 l 740 713 q 696 578 729 626 q 613 513 663 531 q 501 494 563 494 l 501 588 m 167 885 l 339 885 l 435 699 l 338 699 l 167 885 z "},"ở":{"ha":771,"x_min":58,"x_max":740,"o":"m 58 300 q 101 460 58 389 q 218 573 143 532 q 389 614 293 614 q 560 573 488 614 q 673 460 633 532 q 713 300 713 389 q 673 140 713 211 q 560 26 633 68 q 388 -15 486 -15 q 217 23 292 -15 q 101 132 143 61 q 58 300 58 203 m 215 299 q 238 205 215 247 q 299 138 260 163 q 385 113 338 113 q 474 138 436 113 q 534 205 513 163 q 556 299 556 247 q 534 394 556 351 q 474 461 513 436 q 385 486 436 486 q 298 460 336 486 q 238 393 260 435 q 215 299 215 351 m 501 588 q 585 617 556 588 q 625 713 615 647 l 740 713 q 696 578 729 626 q 613 513 663 531 q 501 494 563 494 l 501 588 m 353 719 q 395 756 379 739 q 411 799 411 774 q 401 833 411 819 q 368 847 390 847 q 333 835 349 847 q 308 806 318 824 l 251 842 q 312 911 275 889 q 389 933 349 933 q 452 917 428 933 q 488 875 476 901 q 500 819 500 849 q 467 735 500 769 q 389 674 433 701 l 353 719 z "},"ỡ":{"ha":771,"x_min":58,"x_max":740,"o":"m 451 672 q 387 690 413 672 q 340 726 361 708 q 311 749 325 739 q 282 758 297 758 q 255 747 265 758 q 240 717 244 736 q 236 672 235 697 l 168 672 q 177 758 164 719 q 219 820 190 797 q 288 843 247 843 q 341 827 318 843 q 385 792 364 811 q 417 765 401 776 q 449 753 432 753 q 481 778 472 753 q 488 843 489 804 l 556 843 q 550 753 563 792 q 511 694 538 715 q 451 672 485 672 m 58 300 q 101 460 58 389 q 218 573 143 532 q 389 614 293 614 q 560 573 488 614 q 673 460 633 532 q 713 300 713 389 q 673 140 713 211 q 560 26 633 68 q 388 -15 486 -15 q 217 23 292 -15 q 101 132 143 61 q 58 300 58 203 m 215 299 q 238 205 215 247 q 299 138 260 163 q 385 113 338 113 q 474 138 436 113 q 534 205 513 163 q 556 299 556 247 q 534 394 556 351 q 474 461 513 436 q 385 486 436 486 q 298 460 336 486 q 238 393 260 435 q 215 299 215 351 m 501 588 q 585 617 556 588 q 625 713 615 647 l 740 713 q 696 578 729 626 q 613 513 663 531 q 501 494 563 494 l 501 588 z "},"ő":{"ha":771,"x_min":58,"x_max":713,"o":"m 58 300 q 101 460 58 389 q 218 573 143 532 q 389 614 293 614 q 560 573 488 614 q 673 460 633 532 q 713 300 713 389 q 673 140 713 211 q 560 26 633 68 q 388 -15 486 -15 q 217 23 292 -15 q 101 132 143 61 q 58 300 58 203 m 215 299 q 238 205 215 247 q 299 138 260 163 q 385 113 338 113 q 474 138 436 113 q 534 205 513 163 q 556 299 556 247 q 534 394 556 351 q 474 461 513 436 q 385 486 436 486 q 298 460 336 486 q 238 393 260 435 q 215 299 215 351 m 483 885 l 294 699 l 199 699 l 311 885 l 483 885 m 710 882 l 521 696 l 425 696 l 538 882 l 710 882 z "},"ȏ":{"ha":771,"x_min":58,"x_max":713,"o":"m 58 300 q 101 460 58 389 q 218 573 143 532 q 389 614 293 614 q 560 573 488 614 q 673 460 633 532 q 713 300 713 389 q 673 140 713 211 q 560 26 633 68 q 388 -15 486 -15 q 217 23 292 -15 q 101 132 143 61 q 58 300 58 203 m 215 299 q 238 205 215 247 q 299 138 260 163 q 385 113 338 113 q 474 138 436 113 q 534 205 513 163 q 556 299 556 247 q 534 394 556 351 q 474 461 513 436 q 385 486 436 486 q 298 460 336 486 q 238 393 260 435 q 215 299 215 351 m 392 915 q 497 887 453 915 q 570 803 542 858 q 611 665 599 747 l 507 665 q 486 741 500 708 q 449 792 472 774 q 392 811 426 811 q 334 792 357 811 q 298 741 311 774 q 279 665 285 708 l 174 665 q 214 805 186 749 q 286 888 242 861 q 392 915 331 915 z "},"ō":{"ha":771,"x_min":58,"x_max":713,"o":"m 58 300 q 101 460 58 389 q 218 573 143 532 q 389 614 293 614 q 560 573 488 614 q 673 460 633 532 q 713 300 713 389 q 673 140 713 211 q 560 26 633 68 q 388 -15 486 -15 q 217 23 292 -15 q 101 132 143 61 q 58 300 58 203 m 215 299 q 238 205 215 247 q 299 138 260 163 q 385 113 338 113 q 474 138 436 113 q 534 205 513 163 q 556 299 556 247 q 534 394 556 351 q 474 461 513 436 q 385 486 436 486 q 298 460 336 486 q 238 393 260 435 q 215 299 215 351 m 214 789 l 560 789 l 560 679 l 214 679 l 214 789 z "},"ǫ":{"ha":779,"x_min":63,"x_max":717,"o":"m 485 -308 q 402 -290 440 -308 q 340 -234 364 -271 q 315 -142 315 -197 q 349 -44 315 -89 q 438 25 382 0 l 489 22 q 445 -3 474 8 q 390 -15 417 -15 q 222 23 296 -15 q 105 132 147 61 q 63 300 63 203 q 104 460 63 389 q 222 572 146 531 q 393 614 297 614 q 565 573 492 614 q 677 460 638 532 q 717 300 717 389 q 674 140 717 213 q 560 18 631 68 q 477 -49 510 -18 q 444 -129 444 -81 q 465 -180 444 -162 q 510 -197 485 -197 q 561 -181 538 -197 q 606 -131 585 -164 l 664 -211 q 587 -281 636 -253 q 485 -308 538 -308 m 389 113 q 478 138 440 113 q 538 205 517 163 q 560 299 560 247 q 538 394 560 351 q 478 461 517 436 q 389 486 440 486 q 302 460 340 486 q 241 393 264 435 q 218 299 218 351 q 241 205 218 247 q 302 138 264 163 q 389 113 340 113 z "},"ø":{"ha":738,"x_min":58,"x_max":713,"o":"m 683 574 l 146 -40 l 71 29 l 604 639 l 683 574 m 58 300 q 101 460 58 389 q 218 573 143 532 q 389 614 293 614 q 560 573 488 614 q 673 460 633 532 q 713 300 713 389 q 673 140 713 211 q 560 26 633 68 q 388 -15 486 -15 q 217 23 292 -15 q 101 132 143 61 q 58 300 58 203 m 215 299 q 238 205 215 247 q 299 138 260 163 q 385 113 338 113 q 474 138 436 113 q 534 205 513 163 q 556 299 556 247 q 534 394 556 351 q 474 461 513 436 q 385 486 436 486 q 298 460 336 486 q 238 393 260 435 q 215 299 215 351 z "},"ǿ":{"ha":738,"x_min":58,"x_max":713,"o":"m 683 574 l 146 -40 l 71 29 l 604 639 l 683 574 m 58 300 q 101 460 58 389 q 218 573 143 532 q 389 614 293 614 q 560 573 488 614 q 673 460 633 532 q 713 300 713 389 q 673 140 713 211 q 560 26 633 68 q 388 -15 486 -15 q 217 23 292 -15 q 101 132 143 61 q 58 300 58 203 m 215 299 q 238 205 215 247 q 299 138 260 163 q 385 113 338 113 q 474 138 436 113 q 534 205 513 163 q 556 299 556 247 q 534 394 556 351 q 474 461 513 436 q 385 486 436 486 q 298 460 336 486 q 238 393 260 435 q 215 299 215 351 m 546 856 l 357 669 l 261 669 l 374 856 l 546 856 z "},"õ":{"ha":771,"x_min":58,"x_max":713,"o":"m 58 300 q 101 460 58 389 q 218 573 143 532 q 389 614 293 614 q 560 573 488 614 q 673 460 633 532 q 713 300 713 389 q 673 140 713 211 q 560 26 633 68 q 388 -15 486 -15 q 217 23 292 -15 q 101 132 143 61 q 58 300 58 203 m 215 299 q 238 205 215 247 q 299 138 260 163 q 385 113 338 113 q 474 138 436 113 q 534 205 513 163 q 556 299 556 247 q 534 394 556 351 q 474 461 513 436 q 385 486 436 486 q 298 460 336 486 q 238 393 260 435 q 215 299 215 351 m 494 664 q 419 684 449 664 q 364 725 389 704 q 332 751 347 740 q 297 763 317 763 q 267 749 279 763 q 250 714 256 736 q 246 664 244 692 l 165 664 q 176 764 160 718 q 225 837 192 810 q 306 864 258 864 q 368 844 342 864 q 418 804 394 825 q 455 772 438 786 q 492 758 472 758 q 527 789 518 758 q 536 863 536 819 l 617 863 q 609 759 624 804 q 564 689 594 714 q 494 664 533 664 z "},"ȭ":{"ha":771,"x_min":58,"x_max":713,"o":"m 58 300 q 101 460 58 389 q 218 573 143 532 q 389 614 293 614 q 560 573 488 614 q 673 460 633 532 q 713 300 713 389 q 673 140 713 211 q 560 26 633 68 q 388 -15 486 -15 q 217 23 292 -15 q 101 132 143 61 q 58 300 58 203 m 215 299 q 238 205 215 247 q 299 138 260 163 q 385 113 338 113 q 474 138 436 113 q 534 205 513 163 q 556 299 556 247 q 534 394 556 351 q 474 461 513 436 q 385 486 436 486 q 298 460 336 486 q 238 393 260 435 q 215 299 215 351 m 494 664 q 419 684 449 664 q 364 725 389 704 q 332 751 347 740 q 297 763 317 763 q 267 749 279 763 q 250 714 256 736 q 246 664 244 692 l 165 664 q 176 764 160 718 q 225 837 192 810 q 306 864 258 864 q 368 844 342 864 q 418 804 394 825 q 455 772 438 786 q 492 758 472 758 q 527 789 518 758 q 536 863 536 819 l 617 863 q 609 759 624 804 q 564 689 594 714 q 494 664 533 664 m 229 1058 l 575 1058 l 575 949 l 229 949 l 229 1058 z "},"œ":{"ha":1140,"x_min":58,"x_max":1094,"o":"m 593 54 q 498 3 554 22 q 385 -15 442 -15 q 214 23 288 -15 q 99 130 140 61 q 58 294 58 199 q 102 460 58 390 q 217 566 146 529 q 368 603 289 603 q 500 583 443 603 q 597 528 557 563 l 521 426 q 463 460 499 444 q 382 476 428 476 q 297 453 336 476 q 236 388 258 429 q 214 294 214 347 q 238 203 214 244 q 302 137 261 161 q 397 113 343 113 q 463 123 433 113 q 515 151 492 133 l 593 54 m 788 -15 q 610 25 683 -15 q 497 136 536 65 q 458 299 458 207 q 503 458 458 386 q 623 572 547 529 q 790 614 699 614 q 990 544 911 614 q 1094 346 1068 474 l 621 186 l 585 274 l 956 406 l 922 388 q 874 460 908 429 q 778 492 839 492 q 692 468 729 492 q 633 403 654 444 q 611 307 611 363 q 635 206 611 249 q 699 141 658 164 q 790 118 739 118 q 859 131 826 118 q 922 164 892 143 l 993 49 q 892 2 947 19 q 788 -15 838 -15 z "},"p":{"ha":840,"x_min":107,"x_max":782,"o":"m 464 -15 q 346 11 403 -15 q 254 83 289 38 l 261 131 l 261 -282 l 107 -282 l 107 599 l 242 599 l 263 463 l 249 504 q 353 583 292 551 q 493 614 415 614 q 642 575 576 614 q 744 465 707 536 q 782 296 782 393 q 741 129 782 199 q 628 22 700 60 q 464 -15 556 -15 m 433 108 q 528 132 485 108 q 599 198 572 156 q 625 293 625 240 q 601 391 625 349 q 535 458 576 433 q 444 482 494 482 q 363 467 399 482 q 301 423 326 451 q 263 356 276 394 l 263 238 q 296 170 272 200 q 356 124 319 140 q 433 108 392 108 z "},"þ":{"ha":835,"x_min":107,"x_max":782,"o":"m 464 -15 q 383 -3 422 -15 q 313 30 344 8 q 260 83 281 51 l 261 136 l 261 -282 l 107 -282 l 107 1083 l 263 1083 l 263 465 l 247 500 q 313 558 275 532 q 396 599 350 583 q 494 614 442 614 q 642 575 576 614 q 744 465 707 536 q 782 296 782 393 q 741 129 782 199 q 628 22 700 60 q 464 -15 556 -15 m 433 108 q 529 133 486 108 q 599 199 572 157 q 625 293 625 240 q 600 390 625 347 q 534 458 575 433 q 444 482 493 482 q 363 467 399 482 q 301 423 326 451 q 263 356 276 394 l 263 236 q 297 169 272 199 q 356 124 321 140 q 433 108 392 108 z "},"q":{"ha":840,"x_min":58,"x_max":733,"o":"m 343 -15 q 201 22 265 -15 q 97 129 136 60 q 58 294 58 199 q 101 465 58 393 q 213 575 143 536 q 365 614 283 614 q 499 583 443 614 q 593 504 556 553 l 578 463 l 578 599 l 733 599 l 733 -282 l 579 -282 l 579 136 l 583 78 q 485 11 549 38 q 343 -15 422 -15 m 396 108 q 480 124 442 108 q 543 170 518 140 q 578 238 568 200 l 578 356 q 540 423 565 394 q 478 467 514 451 q 396 482 443 482 q 307 458 349 482 q 240 390 265 433 q 215 293 215 347 q 240 199 215 240 q 307 133 265 157 q 396 108 349 108 z "},"r":{"ha":542,"x_min":107,"x_max":489,"o":"m 247 588 l 261 421 l 256 444 q 323 535 279 497 q 413 593 367 572 q 489 614 460 614 l 482 458 q 366 435 415 464 q 289 356 317 406 q 261 253 261 307 l 261 0 l 107 0 l 107 588 l 247 588 z "},"ŕ":{"ha":542,"x_min":107,"x_max":489,"o":"m 247 588 l 261 421 l 256 444 q 323 535 279 497 q 413 593 367 572 q 489 614 460 614 l 482 458 q 366 435 415 464 q 289 356 317 406 q 261 253 261 307 l 261 0 l 107 0 l 107 588 l 247 588 m 435 856 l 246 669 l 150 669 l 263 856 l 435 856 z "},"ř":{"ha":542,"x_min":26,"x_max":513,"o":"m 247 588 l 261 421 l 256 444 q 323 535 279 497 q 413 593 367 572 q 489 614 460 614 l 482 458 q 366 435 415 464 q 289 356 317 406 q 261 253 261 307 l 261 0 l 107 0 l 107 588 l 247 588 m 168 904 l 290 782 l 247 771 l 371 904 l 513 904 l 272 660 l 271 660 l 26 904 l 168 904 z "},"ŗ":{"ha":542,"x_min":67,"x_max":489,"o":"m 247 588 l 261 421 l 256 444 q 323 535 279 497 q 413 593 367 572 q 489 614 460 614 l 482 458 q 366 435 415 464 q 289 356 317 406 q 261 253 261 307 l 261 0 l 107 0 l 107 588 l 247 588 m 146 -287 l 67 -233 q 113 -150 99 -204 q 118 -46 126 -96 l 254 -47 q 250 -131 261 -85 q 213 -219 239 -178 q 146 -287 188 -261 z "},"ȑ":{"ha":542,"x_min":-54,"x_max":489,"o":"m 247 588 l 261 421 l 256 444 q 323 535 279 497 q 413 593 367 572 q 489 614 460 614 l 482 458 q 366 435 415 464 q 289 356 317 406 q 261 253 261 307 l 261 0 l 107 0 l 107 588 l 247 588 m -56 863 l 117 863 l 213 676 l 115 676 l -56 863 m 158 863 l 331 863 l 426 676 l 329 676 l 158 863 z "},"ȓ":{"ha":542,"x_min":46,"x_max":489,"o":"m 247 588 l 261 421 l 256 444 q 323 535 279 497 q 413 593 367 572 q 489 614 460 614 l 482 458 q 366 435 415 464 q 289 356 317 406 q 261 253 261 307 l 261 0 l 107 0 l 107 588 l 247 588 m 264 893 q 369 865 325 893 q 442 781 414 836 q 483 643 471 725 l 379 643 q 358 719 372 686 q 322 770 344 751 q 264 789 299 789 q 206 770 229 789 q 170 719 183 751 q 151 643 157 686 l 46 643 q 86 783 58 726 q 158 866 114 839 q 264 893 203 893 z "},"s":{"ha":588,"x_min":56,"x_max":522,"o":"m 283 -12 q 156 11 217 -12 q 56 81 96 35 l 121 168 q 198 113 160 131 q 271 96 236 96 q 319 102 297 96 q 353 122 340 108 q 367 160 367 136 q 347 203 367 188 q 297 230 328 219 q 232 250 267 240 q 119 320 157 275 q 82 425 82 365 q 106 513 82 471 q 178 583 129 556 q 300 611 226 611 q 416 596 367 611 q 508 547 465 581 l 449 453 q 390 491 424 478 q 328 506 356 504 q 283 499 303 507 q 251 478 264 492 q 239 446 239 464 q 259 401 239 418 q 311 375 279 385 q 375 354 343 365 q 451 319 418 342 q 503 266 483 297 q 522 189 522 235 q 496 90 522 136 q 417 15 469 43 q 283 -12 364 -12 z "},"ś":{"ha":588,"x_min":56,"x_max":522,"o":"m 283 -12 q 156 11 217 -12 q 56 81 96 35 l 121 168 q 198 113 160 131 q 271 96 236 96 q 319 102 297 96 q 353 122 340 108 q 367 160 367 136 q 347 203 367 188 q 297 230 328 219 q 232 250 267 240 q 119 320 157 275 q 82 425 82 365 q 106 513 82 471 q 178 583 129 556 q 300 611 226 611 q 416 596 367 611 q 508 547 465 581 l 449 453 q 390 491 424 478 q 328 506 356 504 q 283 499 303 507 q 251 478 264 492 q 239 446 239 464 q 259 401 239 418 q 311 375 279 385 q 375 354 343 365 q 451 319 418 342 q 503 266 483 297 q 522 189 522 235 q 496 90 522 136 q 417 15 469 43 q 283 -12 364 -12 m 472 867 l 283 681 l 188 681 l 300 867 l 472 867 z "},"š":{"ha":588,"x_min":56,"x_max":550,"o":"m 283 -12 q 156 11 217 -12 q 56 81 96 35 l 121 168 q 198 113 160 131 q 271 96 236 96 q 319 102 297 96 q 353 122 340 108 q 367 160 367 136 q 347 203 367 188 q 297 230 328 219 q 232 250 267 240 q 119 320 157 275 q 82 425 82 365 q 106 513 82 471 q 178 583 129 556 q 300 611 226 611 q 416 596 367 611 q 508 547 465 581 l 449 453 q 390 491 424 478 q 328 506 356 504 q 283 499 303 507 q 251 478 264 492 q 239 446 239 464 q 259 401 239 418 q 311 375 279 385 q 375 354 343 365 q 451 319 418 342 q 503 266 483 297 q 522 189 522 235 q 496 90 522 136 q 417 15 469 43 q 283 -12 364 -12 m 206 915 l 328 793 l 285 782 l 408 915 l 550 915 l 310 671 l 308 671 l 64 915 l 206 915 z "},"ş":{"ha":588,"x_min":56,"x_max":522,"o":"m 283 -12 q 156 11 217 -12 q 56 81 96 35 l 121 168 q 198 113 160 131 q 271 96 236 96 q 319 102 297 96 q 353 122 340 108 q 367 160 367 136 q 347 203 367 188 q 297 230 328 219 q 232 250 267 240 q 119 320 157 275 q 82 425 82 365 q 106 513 82 471 q 178 583 129 556 q 300 611 226 611 q 416 596 367 611 q 508 547 465 581 l 449 453 q 390 491 424 478 q 328 506 356 504 q 283 499 303 507 q 251 478 264 492 q 239 446 239 464 q 259 401 239 418 q 311 375 279 385 q 375 354 343 365 q 451 319 418 342 q 503 266 483 297 q 522 189 522 235 q 496 90 522 136 q 417 15 469 43 q 283 -12 364 -12 m 178 -214 q 216 -240 193 -229 q 267 -250 239 -250 q 326 -235 299 -250 q 354 -193 354 -221 q 337 -154 354 -172 q 271 -136 319 -136 q 225 -142 249 -136 q 183 -153 201 -147 l 158 -79 l 254 4 l 374 0 l 271 -117 l 239 -79 q 273 -71 254 -74 q 310 -67 292 -68 q 435 -97 385 -65 q 485 -190 485 -128 q 456 -271 485 -239 q 381 -318 426 -303 q 283 -333 336 -333 q 190 -317 228 -333 q 129 -276 153 -300 l 178 -214 z "},"ŝ":{"ha":588,"x_min":51,"x_max":538,"o":"m 283 -12 q 156 11 217 -12 q 56 81 96 35 l 121 168 q 198 113 160 131 q 271 96 236 96 q 319 102 297 96 q 353 122 340 108 q 367 160 367 136 q 347 203 367 188 q 297 230 328 219 q 232 250 267 240 q 119 320 157 275 q 82 425 82 365 q 106 513 82 471 q 178 583 129 556 q 300 611 226 611 q 416 596 367 611 q 508 547 465 581 l 449 453 q 390 491 424 478 q 328 506 356 504 q 283 499 303 507 q 251 478 264 492 q 239 446 239 464 q 259 401 239 418 q 311 375 279 385 q 375 354 343 365 q 451 319 418 342 q 503 266 483 297 q 522 189 522 235 q 496 90 522 136 q 417 15 469 43 q 283 -12 364 -12 m 396 688 l 275 810 l 317 821 l 194 688 l 51 688 l 292 932 l 293 932 l 538 688 l 396 688 z "}}}
